<?xml version="1.0" encoding="UTF-8" ?>
<!DOCTYPE svg PUBLIC "-//W3C//DTD SVG 1.1//EN" "http://www.w3.org/Graphics/SVG/1.1/DTD/svg11.dtd">
<svg width="154pt" height="220pt" viewBox="0 0 154 220" version="1.1" xmlns="http://www.w3.org/2000/svg">
<g id="#ffffffff">
</g>
<g id="#b6b6b6ff">
<path fill="#b6b6b6" opacity="1.00" d=" M 72.57 0.00 L 82.40 0.00 C 99.12 1.28 115.65 7.51 128.25 18.74 C 141.71 30.13 150.59 46.35 154.00 63.56 L 154.00 90.47 C 150.24 109.06 136.92 123.12 125.05 137.04 C 118.11 144.63 115.51 154.84 113.77 164.70 C 116.50 164.89 119.24 165.05 121.97 165.23 C 122.21 172.46 122.21 179.70 121.97 186.94 C 92.65 187.04 63.34 187.05 34.02 186.94 C 33.77 179.70 33.77 172.46 34.01 165.22 C 36.76 165.06 39.50 164.91 42.24 164.73 C 40.49 156.33 38.92 147.43 33.56 140.45 C 24.63 128.71 13.37 118.52 7.05 104.98 C -1.11 88.16 -0.71 68.09 5.68 50.77 C 15.34 22.50 42.97 2.24 72.57 0.00 Z" />
<path fill="#b6b6b6" opacity="1.00" d=" M 45.06 198.06 C 67.02 197.94 88.98 197.96 110.94 198.06 C 111.07 205.37 111.05 212.69 110.98 220.00 L 45.02 220.00 C 44.95 212.69 44.93 205.37 45.06 198.06 Z" />
</g>
</svg>
