<?xml version="1.0" encoding="UTF-8" ?>
<!DOCTYPE svg PUBLIC "-//W3C//DTD SVG 1.1//EN" "http://www.w3.org/Graphics/SVG/1.1/DTD/svg11.dtd">
<svg width="276pt" height="276pt" viewBox="0 0 276 276" version="1.1" xmlns="http://www.w3.org/2000/svg">
<g id="#ffffffff">
</g>
<g id="#b6b6b6ff">
<path fill="#b6b6b6" opacity="1.00" d=" M 114.75 14.71 C 120.78 10.93 128.20 11.62 135.00 11.60 C 159.33 11.69 183.67 11.65 208.00 11.62 C 215.48 11.65 223.58 10.77 230.30 14.76 C 237.69 19.00 241.88 27.56 241.41 35.99 C 241.09 92.39 241.77 148.81 241.07 205.20 C 235.27 199.17 230.59 192.20 225.09 185.91 C 221.98 182.22 218.22 178.28 218.57 173.06 C 218.73 134.71 218.60 96.35 218.66 57.99 C 218.81 47.77 211.59 37.98 201.68 35.34 C 194.27 33.46 186.55 34.59 179.00 34.36 C 153.85 34.17 128.69 34.70 103.55 34.11 C 103.70 26.24 107.88 18.67 114.75 14.71 Z" />
<path fill="#b6b6b6" opacity="1.00" d=" M 57.62 80.98 C 56.91 68.71 67.65 57.38 79.97 57.66 C 110.99 57.63 142.02 57.62 173.03 57.67 C 185.34 57.41 196.15 68.70 195.39 80.99 C 195.17 142.00 195.66 203.02 195.14 264.02 C 175.02 252.58 155.34 240.35 135.49 228.44 C 131.81 226.47 127.52 222.23 123.22 225.11 C 101.38 237.98 79.90 251.52 57.85 264.03 C 57.35 203.02 57.82 141.99 57.62 80.98 Z" />
</g>
</svg>
