<svg width="63" height="63" viewBox="0 0 63 63" fill="none" xmlns="http://www.w3.org/2000/svg">
<mask id="mask0_15_3065" style="mask-type:alpha" maskUnits="userSpaceOnUse" x="0" y="0" width="63" height="63">
<rect width="62.7793" height="62.7793" fill="#D9D9D9"/>
</mask>
<g mask="url(#mask0_15_3065)">
<path d="M28.1197 24.1962L24.4576 20.4687L29.2314 15.6949H20.4685C20.0761 16.8284 19.4658 17.8093 18.6374 18.6377C17.8091 19.466 16.8282 20.0764 15.6947 20.4687V42.3107C17.2205 42.8774 18.4744 43.8252 19.4562 45.1541C20.4362 46.4846 20.9263 48.0001 20.9263 49.7003C20.9263 51.8802 20.1633 53.733 18.6374 55.2589C17.1116 56.7848 15.2587 57.5477 13.0789 57.5477C10.899 57.5477 9.04616 56.7848 7.52027 55.2589C5.99439 53.733 5.23145 51.8802 5.23145 49.7003C5.23145 48.0001 5.72147 46.4846 6.70153 45.1541C7.68333 43.8252 8.93717 42.8774 10.4631 42.3107V20.4687C8.93717 19.902 7.68333 18.9533 6.70153 17.6227C5.72147 16.2939 5.23145 14.7794 5.23145 13.0791C5.23145 10.8992 5.99439 9.04638 7.52027 7.5205C9.04616 5.99461 10.899 5.23167 13.0789 5.23167C14.7791 5.23167 16.2946 5.7217 17.6251 6.70175C18.954 7.68355 19.9017 8.93739 20.4685 10.4633H29.2314L24.4576 5.68943L28.1197 1.96191L39.2369 13.0791L28.1197 24.1962ZM49.7001 5.23167C51.88 5.23167 53.7328 5.99461 55.2587 7.5205C56.7846 9.04638 57.5475 10.8992 57.5475 13.0791C57.5475 15.2589 56.7846 17.1118 55.2587 18.6377C53.7328 20.1635 51.88 20.9265 49.7001 20.9265C47.5203 20.9265 45.6674 20.1635 44.1415 18.6377C42.6156 17.1118 41.8527 15.2589 41.8527 13.0791C41.8527 10.8992 42.6156 9.04638 44.1415 7.5205C45.6674 5.99461 47.5203 5.23167 49.7001 5.23167ZM13.0789 52.3161C13.82 52.3161 14.4417 52.065 14.9439 51.5628C15.4444 51.0623 15.6947 50.4415 15.6947 49.7003C15.6947 48.9592 15.4444 48.3384 14.9439 47.8379C14.4417 47.3357 13.82 47.0845 13.0789 47.0845C12.3377 47.0845 11.716 47.3357 11.2138 47.8379C10.7133 48.3384 10.4631 48.9592 10.4631 49.7003C10.4631 50.4415 10.7133 51.0623 11.2138 51.5628C11.716 52.065 12.3377 52.3161 13.0789 52.3161ZM13.0789 15.6949C13.82 15.6949 14.4417 15.4446 14.9439 14.9441C15.4444 14.4419 15.6947 13.8202 15.6947 13.0791C15.6947 12.3379 15.4444 11.7162 14.9439 11.214C14.4417 10.7135 13.82 10.4633 13.0789 10.4633C12.3377 10.4633 11.716 10.7135 11.2138 11.214C10.7133 11.7162 10.4631 12.3379 10.4631 13.0791C10.4631 13.8202 10.7133 14.4419 11.2138 14.9441C11.716 15.4446 12.3377 15.6949 13.0789 15.6949ZM49.7001 15.6949C50.4413 15.6949 51.0621 15.4446 51.5626 14.9441C52.0648 14.4419 52.3159 13.8202 52.3159 13.0791C52.3159 12.3379 52.0648 11.7162 51.5626 11.214C51.0621 10.7135 50.4413 10.4633 49.7001 10.4633C48.959 10.4633 48.3382 10.7135 47.8377 11.214C47.3354 11.7162 47.0843 12.3379 47.0843 13.0791C47.0843 13.8202 47.3354 14.4419 47.8377 14.9441C48.3382 15.4446 48.959 15.6949 49.7001 15.6949ZM40.6756 31.9129L44.4031 35.575L31.3895 48.5886V52.3161H35.0516L48.1306 39.2371L51.8582 42.8992L37.275 57.5477H26.1579V46.4306L40.6756 31.9129ZM51.8582 42.8992L40.6756 31.9129L44.9263 27.6622C45.9726 26.6159 47.2264 26.0927 48.6878 26.0927C50.1474 26.0927 51.3786 26.6159 52.3813 27.6622L56.0434 31.3897C57.0462 32.3924 57.5475 33.6131 57.5475 35.0518C57.5475 36.4905 57.0462 37.7112 56.0434 38.714L51.8582 42.8992Z" fill="#545353"/>
</g>
</svg>
