<svg width="461" height="460" viewBox="0 0 461 460" fill="none" xmlns="http://www.w3.org/2000/svg">
<path d="M408 110C437.271 110 461 85.3757 461 55C461 24.6243 437.271 0 408 0C378.729 0 355 24.6243 355 55C355 85.3757 378.729 110 408 110Z" fill="#F2F2F2"/>
<path d="M408 14.5282C409.657 14.5282 411 13.1343 411 11.415C411 9.69559 409.657 8.30176 408 8.30176C406.343 8.30176 405 9.69559 405 11.415C405 13.1343 406.343 14.5282 408 14.5282Z" fill="black" fill-opacity="0.1"/>
<path d="M366 58.1131C367.657 58.1131 369 56.7193 369 54.9999C369 53.2805 367.657 51.8867 366 51.8867C364.343 51.8867 363 53.2805 363 54.9999C363 56.7193 364.343 58.1131 366 58.1131Z" fill="black" fill-opacity="0.1"/>
<path d="M450 58.1131C451.657 58.1131 453 56.7193 453 54.9999C453 53.2805 451.657 51.8867 450 51.8867C448.343 51.8867 447 53.2805 447 54.9999C447 56.7193 448.343 58.1131 450 58.1131Z" fill="black" fill-opacity="0.1"/>
<path d="M408 101.698C409.657 101.698 411 100.304 411 98.5849C411 96.8655 409.657 95.4717 408 95.4717C406.343 95.4717 405 96.8655 405 98.5849C405 100.304 406.343 101.698 408 101.698Z" fill="black" fill-opacity="0.1"/>
<path fill-rule="evenodd" clip-rule="evenodd" d="M408 17.6416L410 53.9624H406L408 17.6416Z" fill="#AFB9C5"/>
<path fill-rule="evenodd" clip-rule="evenodd" d="M425.698 73.366L407.314 57.2226L410.142 54.2875L425.698 73.366Z" fill="#AFB9C5"/>
<path d="M408 59.1505C410.209 59.1505 412 57.2921 412 54.9996C412 52.7071 410.209 50.8486 408 50.8486C405.791 50.8486 404 52.7071 404 54.9996C404 57.2921 405.791 59.1505 408 59.1505Z" fill="#C5CFD6"/>
<path d="M80 346H46C44.8954 346 44 346.895 44 348V353C44 354.105 44.8954 355 46 355H80C81.1046 355 82 354.105 82 353V348C82 346.895 81.1046 346 80 346Z" fill="#AFB9C5"/>
<path fill-rule="evenodd" clip-rule="evenodd" d="M54 317C58.2931 303.085 60.6988 288.419 61.2169 273H64H65.7831C66.3012 288.419 68.7069 303.085 73 317H79.5C88.0604 317 95 323.94 95 332.5C95 341.06 88.0604 348 79.5 348H46.5C37.9396 348 31 341.06 31 332.5C31 323.94 37.9396 317 46.5 317H54Z" fill="#DDE3E9"/>
<path fill-rule="evenodd" clip-rule="evenodd" d="M27.6222 203.679C39.0815 202.56 50.5407 202 62 202C73.4593 202 84.9185 202.56 96.3778 203.679L101 283.133C88 284.378 75 285 62 285C49 285 36 284.378 23 283.133L27.6222 203.679Z" fill="#C5CFD6"/>
<path fill-rule="evenodd" clip-rule="evenodd" d="M21 355H104H125V459H104V377H21V459H0V355H21Z" fill="#F2F2F2"/>
<path fill-rule="evenodd" clip-rule="evenodd" d="M208.284 76.0803C201.96 71.8125 196.855 65.8817 195.336 58.1231C190.96 35.7684 223.439 32.3385 232.503 41.8053C241.568 51.272 248.461 79.5497 241.161 83.6043C238.25 85.2212 231.068 85.0513 223.208 82.8446L235.452 111.197L210.34 117.848L208.284 76.0803Z" fill="#B28B67"/>
<path fill-rule="evenodd" clip-rule="evenodd" d="M217.001 54.9815C221.519 67.8459 225.839 73.7319 229.963 72.6395C236.15 71.0008 240.356 65.7625 243.071 65.0435C245.049 64.5193 245.265 67.0626 244.441 69.2088C243.761 70.9796 238.879 73.806 239.503 76.1069C240.126 78.4078 243.808 75.5248 244.178 76.8894C244.789 79.1467 246.672 83.1968 242.673 84.2559C238.626 85.3278 226.632 86.9561 223.049 81.5983C220.736 78.1406 217.773 70.4909 214.16 58.6493C213.907 58.6857 213.653 58.7372 213.4 58.8043C209.933 59.7227 207.869 63.221 208.789 66.618C209.257 68.3425 210.404 69.7094 211.873 70.5172C210.965 72.9108 209.906 75.4406 208.628 78.1001C200.503 75.8368 192.033 65.1548 195.745 51.7551C196.1 45.5783 199.566 41.4113 204.248 38.6626C207.894 35.8952 212.1 34.5778 215.968 34.6336C223.174 33.3595 230.036 33.798 232.158 34.5758C233.93 41.1113 233.163 43.3927 222.077 46.1459C219.745 48.2681 218.314 51.2374 217.001 54.9815Z" fill="#191847"/>
<path fill-rule="evenodd" clip-rule="evenodd" d="M222.566 204.286L275.733 336.793L311.392 448.816H325.473L270.958 204.286L222.566 204.286Z" fill="#997659"/>
<path fill-rule="evenodd" clip-rule="evenodd" d="M211.86 204.286C211.294 250.85 203.038 313.54 201.719 316.443C200.839 318.378 170.481 342.985 110.643 390.265L120.342 400.484C190.944 359.948 227.879 336.977 231.147 331.57C236.047 323.46 252.002 248.833 264.812 204.286H211.86Z" fill="#B28B67"/>
<path fill-rule="evenodd" clip-rule="evenodd" d="M109.282 386.833C106.025 387.971 103.781 389.05 102.551 390.07C101.054 391.311 99.0799 393.369 96.6275 396.243C98.0841 397.959 111.175 413.381 135.899 442.508C140.94 440.375 142.522 437.88 140.644 435.024C138.766 432.168 137.229 429.776 136.033 427.848L127.477 398.301C127.313 397.733 126.713 397.404 126.138 397.566C126.128 397.569 126.118 397.572 126.108 397.575L121.543 399.006C118.376 397.547 116.156 396.068 114.883 394.569C113.85 393.351 112.919 391.256 112.093 388.284L112.093 388.284C111.776 387.144 110.583 386.473 109.429 386.787C109.38 386.8 109.331 386.816 109.282 386.833Z" fill="#E4E4E4"/>
<path fill-rule="evenodd" clip-rule="evenodd" d="M305.626 443.75C304.414 446.947 303.808 449.34 303.808 450.928C303.808 452.859 304.134 455.676 304.784 459.381C307.05 459.381 327.416 459.381 365.88 459.381C367.468 454.193 366.551 451.391 363.131 450.978C359.71 450.564 356.868 450.19 354.606 449.857L326.209 437.343C325.663 437.102 325.022 437.345 324.779 437.885C324.775 437.894 324.771 437.904 324.767 437.913L322.941 442.29C319.775 443.75 317.201 444.481 315.222 444.481C313.613 444.481 311.392 443.838 308.557 442.554L308.557 442.554C307.47 442.061 306.184 442.533 305.685 443.608C305.664 443.655 305.644 443.702 305.626 443.75Z" fill="#E4E4E4"/>
<path fill-rule="evenodd" clip-rule="evenodd" d="M258.313 437.277L325.261 430.123L275.644 204.286H215.681L258.313 437.277Z" fill="#69A1AC"/>
<path fill-rule="evenodd" clip-rule="evenodd" d="M124.491 373.777L168.405 424.961C214.659 375.217 241.625 342.759 249.303 327.587C256.981 312.415 263.884 271.314 270.01 204.286H202.503C199.156 263.255 196.901 294.111 195.735 296.855C194.57 299.599 170.822 325.24 124.491 373.777Z" fill="#89C5CC"/>
<path fill-rule="evenodd" clip-rule="evenodd" d="M305.487 179.717L343.899 198.365C353.565 199.206 361.819 200.91 368.662 203.476C370.358 204.532 372.6 206.879 366.452 207.478C360.304 208.076 353.864 208.978 353.39 211.159C352.916 213.34 357.021 215.134 355.819 218.175C355.018 220.202 348.87 216.541 337.376 207.19L301.227 199.319L305.487 179.717ZM174.988 203.338L197.296 199.539C191.327 245.646 188.033 270.133 187.413 272.998C186.018 279.446 192.876 287.7 195.989 292.235C189.284 296.706 187.944 284.711 179.516 290.511C171.823 295.804 166.689 303.861 155.963 299.674C154.644 299.159 152.855 296.667 155.627 293.993C162.531 287.331 172.19 276.094 173.174 272.778C174.516 268.256 175.121 245.109 174.988 203.338Z" fill="#B28B67"/>
<path fill-rule="evenodd" clip-rule="evenodd" d="M221.927 100.282L230.874 97.1182C270.287 120.235 294.311 173.656 341.542 195.94L333.64 210.012C259.28 213.834 229.085 148.829 221.927 100.282Z" fill="#E87613"/>
<path fill-rule="evenodd" clip-rule="evenodd" d="M202.055 221.319C239.042 214.872 266.248 210.13 283.675 207.092C287.404 206.442 285.757 201.267 284.741 198.688C273.016 168.922 242.794 139.901 234.961 95.9859L210.77 96.458C196.792 130.659 196.823 169.761 202.055 221.319Z" fill="#DDE3E9"/>
<path fill-rule="evenodd" clip-rule="evenodd" d="M186.775 131.864C183.183 131.493 180.073 129.71 177.445 126.515C166.115 112.742 167.723 103.791 176.426 99.4243C185.129 95.0573 194.345 99.3214 208.997 96.7676C209.794 96.6286 210.533 96.5506 211.213 96.5333L218.657 95.6624C252.377 162.47 266.599 208.486 261.321 233.71L197.08 244.907C194.831 254.301 192.499 262.281 190.084 268.848L172.579 271.899C161.586 219.79 166.318 173.112 186.775 131.864Z" fill="#FF9B21"/>
<path fill-rule="evenodd" clip-rule="evenodd" d="M204.611 206.265C209.597 222.541 215.034 234.036 220.92 240.752L197.08 244.907C199.703 233.95 202.214 221.069 204.611 206.265Z" fill="black" fill-opacity="0.1"/>
</svg>
