<svg width="376" height="383" viewBox="0 0 376 383" fill="none" xmlns="http://www.w3.org/2000/svg">
<path d="M376 197C376 243.349 358.695 288.028 327.475 322.286C296.256 356.543 253.37 377.91 207.22 382.201L200.422 309.083C228.351 306.486 254.305 293.555 273.199 272.822C292.093 252.09 302.566 225.05 302.566 197H376Z" fill="#FFB946"/>
<path d="M0 197C3.00395e-06 162.639 9.51832 128.949 27.4991 99.6682L90.0761 138.095C79.1942 155.816 73.4338 176.205 73.4338 197H0Z" fill="#D9D9D9"/>
<path d="M99.2692 359.541C70.9436 344.61 46.9521 322.62 29.6169 295.699C12.2816 268.778 2.18975 237.838 0.318048 205.873L73.6263 201.58C74.759 220.925 80.8666 239.65 91.3578 255.943C101.849 272.235 116.368 285.543 133.511 294.579L99.2692 359.541Z" fill="#56CCF2"/>
<path d="M199.489 382.758C168.252 384.354 137.117 378.046 108.963 364.419L140.957 298.321C157.995 306.568 176.838 310.385 195.743 309.42L199.489 382.758Z" fill="#10B1B5"/>
<path d="M120.694 13.3945C149.3 1.90837 180.312 -2.28803 210.942 1.1827C241.572 4.65343 270.859 15.6825 296.17 33.278C321.48 50.8736 342.021 74.484 355.945 101.986C369.868 129.488 376.738 160.02 375.937 190.835L302.528 188.926C303.013 170.277 298.855 151.799 290.429 135.155C282.002 118.511 269.571 104.222 254.253 93.5735C238.935 82.9247 221.211 76.25 202.674 74.1496C184.137 72.0491 165.368 74.5887 148.056 81.5401L120.694 13.3945Z" fill="#6F87EE"/>
<path d="M28.1505 94.3445C48.1142 59.0916 79.0421 31.3208 116.233 15.2534L145.357 82.6651C122.849 92.389 104.131 109.196 92.0495 130.531L28.1505 94.3445Z" fill="#E63946"/>
<path d="M72.142 88.2983C71.0199 88.2912 69.9368 88.103 68.8928 87.7337C67.8558 87.3643 66.9254 86.7642 66.1016 85.9332C65.2777 85.1023 64.6243 84.0014 64.1413 82.6307C63.6655 81.2599 63.4276 79.5767 63.4276 77.581C63.4347 75.7486 63.6442 74.1115 64.0561 72.6697C64.4751 71.2209 65.0717 69.9922 65.8459 68.9837C66.6271 67.9751 67.5611 67.2081 68.6477 66.6825C69.7344 66.1499 70.9524 65.8835 72.3018 65.8835C73.7578 65.8835 75.0433 66.1676 76.1584 66.7358C77.2734 67.2969 78.1683 68.0604 78.843 69.0263C79.5249 69.9922 79.9368 71.0753 80.0788 72.2756H75.5298C75.3523 71.5156 74.9794 70.919 74.4112 70.4858C73.843 70.0526 73.1399 69.8359 72.3018 69.8359C70.8814 69.8359 69.8018 70.4538 69.0632 71.6896C68.3317 72.9254 67.9588 74.6051 67.9446 76.7287H68.0938C68.4205 76.0824 68.8608 75.532 69.4148 75.0774C69.9759 74.6158 70.6115 74.2642 71.3217 74.0227C72.0391 73.7741 72.7955 73.6499 73.5909 73.6499C74.8835 73.6499 76.0341 73.9553 77.0426 74.5661C78.0511 75.1697 78.8466 76.0007 79.429 77.0589C80.0114 78.1172 80.3026 79.3281 80.3026 80.6918C80.3026 82.169 79.9581 83.483 79.2692 84.6335C78.5874 85.7841 77.6321 86.6861 76.4034 87.3395C75.1818 87.9858 73.7614 88.3054 72.142 88.2983ZM72.1207 84.6761C72.831 84.6761 73.4666 84.5057 74.0277 84.1648C74.5888 83.8239 75.0291 83.3622 75.3487 82.7798C75.6683 82.1974 75.8281 81.544 75.8281 80.8196C75.8281 80.0952 75.6683 79.4453 75.3487 78.87C75.0362 78.2947 74.603 77.8366 74.049 77.4957C73.495 77.1548 72.8629 76.9844 72.1527 76.9844C71.62 76.9844 71.1264 77.0838 70.6719 77.2827C70.2244 77.4815 69.8303 77.7585 69.4893 78.1136C69.1555 78.4687 68.8928 78.8807 68.701 79.3494C68.5092 79.8111 68.4134 80.3047 68.4134 80.8303C68.4134 81.5334 68.5732 82.1761 68.8928 82.7585C69.2195 83.3409 69.6598 83.8061 70.2138 84.1541C70.7749 84.5021 71.4105 84.6761 72.1207 84.6761ZM95.5156 83.9091V82.7585C95.5156 81.8849 95.7003 81.0824 96.0696 80.3509C96.446 79.6122 96.9893 79.0227 97.6996 78.5824C98.4169 78.1349 99.2905 77.9112 100.32 77.9112C101.364 77.9112 102.241 78.1314 102.952 78.5717C103.669 79.0121 104.209 79.6016 104.571 80.3402C104.94 81.0717 105.125 81.8778 105.125 82.7585V83.9091C105.125 84.7827 104.94 85.5888 104.571 86.3274C104.202 87.0589 103.658 87.6449 102.941 88.0852C102.224 88.5327 101.35 88.7564 100.32 88.7564C99.2763 88.7564 98.3991 88.5327 97.6889 88.0852C96.9787 87.6449 96.4389 87.0589 96.0696 86.3274C95.7003 85.5888 95.5156 84.7827 95.5156 83.9091ZM98.6158 82.7585V83.9091C98.6158 84.4134 98.7365 84.8892 98.978 85.3366C99.2266 85.7841 99.674 86.0078 100.32 86.0078C100.967 86.0078 101.407 85.7876 101.641 85.3473C101.883 84.907 102.004 84.4276 102.004 83.9091V82.7585C102.004 82.2401 101.89 81.7571 101.663 81.3097C101.435 80.8622 100.988 80.6385 100.32 80.6385C99.6811 80.6385 99.2372 80.8622 98.9886 81.3097C98.7401 81.7571 98.6158 82.2401 98.6158 82.7585ZM84.3189 71.4233V70.2727C84.3189 69.392 84.5071 68.5859 84.8835 67.8544C85.2599 67.1158 85.8033 66.5263 86.5135 66.0859C87.2308 65.6456 88.0973 65.4254 89.1129 65.4254C90.1641 65.4254 91.0447 65.6456 91.755 66.0859C92.4652 66.5263 93.005 67.1158 93.3743 67.8544C93.7436 68.5859 93.9283 69.392 93.9283 70.2727V71.4233C93.9283 72.304 93.7401 73.1101 93.3636 73.8416C92.9943 74.5732 92.451 75.1591 91.7337 75.5994C91.0234 76.0327 90.1499 76.2493 89.1129 76.2493C88.076 76.2493 87.1989 76.0291 86.4815 75.5888C85.7713 75.1413 85.2315 74.5554 84.8622 73.831C84.5 73.0994 84.3189 72.2969 84.3189 71.4233ZM87.4403 70.2727V71.4233C87.4403 71.9418 87.5611 72.4212 87.8026 72.8615C88.0511 73.3018 88.4879 73.522 89.1129 73.522C89.7663 73.522 90.2102 73.3018 90.4446 72.8615C90.6861 72.4212 90.8068 71.9418 90.8068 71.4233V70.2727C90.8068 69.7543 90.6932 69.2713 90.4659 68.8239C90.2386 68.3764 89.7876 68.1527 89.1129 68.1527C88.4808 68.1527 88.044 68.38 87.8026 68.8345C87.5611 69.2891 87.4403 69.7685 87.4403 70.2727ZM85.7251 88L100.725 66.1818H103.516L88.5163 88H85.7251Z" fill="#232323"/>
<path d="M24.142 170.298C23.0199 170.291 21.9368 170.103 20.8928 169.734C19.8558 169.364 18.9254 168.764 18.1016 167.933C17.2777 167.102 16.6243 166.001 16.1413 164.631C15.6655 163.26 15.4276 161.577 15.4276 159.581C15.4347 157.749 15.6442 156.112 16.0561 154.67C16.4751 153.221 17.0717 151.992 17.8459 150.984C18.6271 149.975 19.5611 149.208 20.6477 148.683C21.7344 148.15 22.9524 147.884 24.3018 147.884C25.7578 147.884 27.0433 148.168 28.1584 148.736C29.2734 149.297 30.1683 150.06 30.843 151.026C31.5249 151.992 31.9368 153.075 32.0788 154.276H27.5298C27.3523 153.516 26.9794 152.919 26.4112 152.486C25.843 152.053 25.1399 151.836 24.3018 151.836C22.8814 151.836 21.8018 152.454 21.0632 153.69C20.3317 154.925 19.9588 156.605 19.9446 158.729H20.0938C20.4205 158.082 20.8608 157.532 21.4148 157.077C21.9759 156.616 22.6115 156.264 23.3217 156.023C24.0391 155.774 24.7955 155.65 25.5909 155.65C26.8835 155.65 28.0341 155.955 29.0426 156.566C30.0511 157.17 30.8466 158.001 31.429 159.059C32.0114 160.117 32.3026 161.328 32.3026 162.692C32.3026 164.169 31.9581 165.483 31.2692 166.634C30.5874 167.784 29.6321 168.686 28.4034 169.339C27.1818 169.986 25.7614 170.305 24.142 170.298ZM24.1207 166.676C24.831 166.676 25.4666 166.506 26.0277 166.165C26.5888 165.824 27.0291 165.362 27.3487 164.78C27.6683 164.197 27.8281 163.544 27.8281 162.82C27.8281 162.095 27.6683 161.445 27.3487 160.87C27.0362 160.295 26.603 159.837 26.049 159.496C25.495 159.155 24.8629 158.984 24.1527 158.984C23.62 158.984 23.1264 159.084 22.6719 159.283C22.2244 159.482 21.8303 159.759 21.4893 160.114C21.1555 160.469 20.8928 160.881 20.701 161.349C20.5092 161.811 20.4134 162.305 20.4134 162.83C20.4134 163.533 20.5732 164.176 20.8928 164.759C21.2195 165.341 21.6598 165.806 22.2138 166.154C22.7749 166.502 23.4105 166.676 24.1207 166.676ZM47.5156 165.909V164.759C47.5156 163.885 47.7003 163.082 48.0696 162.351C48.446 161.612 48.9893 161.023 49.6996 160.582C50.4169 160.135 51.2905 159.911 52.3203 159.911C53.3643 159.911 54.2415 160.131 54.9517 160.572C55.669 161.012 56.2088 161.602 56.571 162.34C56.9403 163.072 57.125 163.878 57.125 164.759V165.909C57.125 166.783 56.9403 167.589 56.571 168.327C56.2017 169.059 55.6584 169.645 54.9411 170.085C54.2237 170.533 53.3501 170.756 52.3203 170.756C51.2763 170.756 50.3991 170.533 49.6889 170.085C48.9787 169.645 48.4389 169.059 48.0696 168.327C47.7003 167.589 47.5156 166.783 47.5156 165.909ZM50.6158 164.759V165.909C50.6158 166.413 50.7365 166.889 50.978 167.337C51.2266 167.784 51.674 168.008 52.3203 168.008C52.9666 168.008 53.407 167.788 53.6413 167.347C53.8828 166.907 54.0036 166.428 54.0036 165.909V164.759C54.0036 164.24 53.8899 163.757 53.6626 163.31C53.4354 162.862 52.9879 162.638 52.3203 162.638C51.6811 162.638 51.2372 162.862 50.9886 163.31C50.7401 163.757 50.6158 164.24 50.6158 164.759ZM36.3189 153.423V152.273C36.3189 151.392 36.5071 150.586 36.8835 149.854C37.2599 149.116 37.8033 148.526 38.5135 148.086C39.2308 147.646 40.0973 147.425 41.1129 147.425C42.1641 147.425 43.0447 147.646 43.755 148.086C44.4652 148.526 45.005 149.116 45.3743 149.854C45.7436 150.586 45.9283 151.392 45.9283 152.273V153.423C45.9283 154.304 45.7401 155.11 45.3636 155.842C44.9943 156.573 44.451 157.159 43.7337 157.599C43.0234 158.033 42.1499 158.249 41.1129 158.249C40.076 158.249 39.1989 158.029 38.4815 157.589C37.7713 157.141 37.2315 156.555 36.8622 155.831C36.5 155.099 36.3189 154.297 36.3189 153.423ZM39.4403 152.273V153.423C39.4403 153.942 39.5611 154.421 39.8026 154.862C40.0511 155.302 40.4879 155.522 41.1129 155.522C41.7663 155.522 42.2102 155.302 42.4446 154.862C42.6861 154.421 42.8068 153.942 42.8068 153.423V152.273C42.8068 151.754 42.6932 151.271 42.4659 150.824C42.2386 150.376 41.7876 150.153 41.1129 150.153C40.4808 150.153 40.044 150.38 39.8026 150.835C39.5611 151.289 39.4403 151.768 39.4403 152.273ZM37.7251 170L52.7251 148.182H55.5163L40.5163 170H37.7251Z" fill="#232323"/>
<path d="M50.9077 288.298C49.267 288.298 47.8075 288.032 46.5291 287.499C45.2578 286.96 44.2599 286.224 43.5355 285.294C42.8111 284.364 42.4489 283.309 42.4489 282.13C42.4489 281.221 42.6548 280.386 43.0668 279.626C43.4858 278.859 44.054 278.224 44.7713 277.719C45.4886 277.208 46.2912 276.881 47.179 276.739V276.59C46.0142 276.356 45.0696 275.791 44.3452 274.896C43.6207 273.994 43.2585 272.947 43.2585 271.754C43.2585 270.624 43.5888 269.619 44.2493 268.739C44.9098 267.851 45.8153 267.155 46.9659 266.651C48.1236 266.139 49.4375 265.884 50.9077 265.884C52.3778 265.884 53.6882 266.139 54.8388 266.651C55.9964 267.162 56.9055 267.862 57.5661 268.749C58.2266 269.63 58.5604 270.631 58.5675 271.754C58.5604 272.954 58.1911 274.001 57.4595 274.896C56.728 275.791 55.7905 276.356 54.647 276.59V276.739C55.5206 276.881 56.3125 277.208 57.0227 277.719C57.7401 278.224 58.3082 278.859 58.7273 279.626C59.1534 280.386 59.37 281.221 59.3771 282.13C59.37 283.309 59.0043 284.364 58.2798 285.294C57.5554 286.224 56.554 286.96 55.2756 287.499C54.0043 288.032 52.5483 288.298 50.9077 288.298ZM50.9077 284.911C51.6392 284.911 52.2784 284.779 52.8253 284.516C53.3722 284.246 53.7983 283.877 54.1037 283.408C54.4162 282.933 54.5724 282.386 54.5724 281.768C54.5724 281.136 54.4126 280.578 54.093 280.095C53.7734 279.605 53.3402 279.222 52.7933 278.945C52.2464 278.661 51.6179 278.518 50.9077 278.518C50.2045 278.518 49.576 278.661 49.022 278.945C48.468 279.222 48.0313 279.605 47.7116 280.095C47.3991 280.578 47.2429 281.136 47.2429 281.768C47.2429 282.386 47.3956 282.933 47.701 283.408C48.0064 283.877 48.4361 284.246 48.9901 284.516C49.544 284.779 50.1832 284.911 50.9077 284.911ZM50.9077 275.163C51.5185 275.163 52.0618 275.038 52.5376 274.79C53.0135 274.541 53.3864 274.197 53.6562 273.756C53.9261 273.316 54.0611 272.808 54.0611 272.233C54.0611 271.665 53.9261 271.168 53.6562 270.741C53.3864 270.308 53.017 269.971 52.5483 269.729C52.0795 269.481 51.5327 269.357 50.9077 269.357C50.2898 269.357 49.7429 269.481 49.267 269.729C48.7912 269.971 48.4183 270.308 48.1484 270.741C47.8857 271.168 47.7543 271.665 47.7543 272.233C47.7543 272.808 47.8892 273.316 48.1591 273.756C48.429 274.197 48.8018 274.541 49.2777 274.79C49.7536 275.038 50.2969 275.163 50.9077 275.163ZM74.5449 283.909V282.759C74.5449 281.885 74.7296 281.082 75.0989 280.351C75.4753 279.612 76.0186 279.023 76.7289 278.582C77.4462 278.135 78.3198 277.911 79.3496 277.911C80.3936 277.911 81.2708 278.131 81.981 278.572C82.6983 279.012 83.2381 279.602 83.6003 280.34C83.9696 281.072 84.1543 281.878 84.1543 282.759V283.909C84.1543 284.783 83.9696 285.589 83.6003 286.327C83.231 287.059 82.6877 287.645 81.9703 288.085C81.253 288.533 80.3794 288.756 79.3496 288.756C78.3056 288.756 77.4284 288.533 76.7182 288.085C76.008 287.645 75.4682 287.059 75.0989 286.327C74.7296 285.589 74.5449 284.783 74.5449 283.909ZM77.6451 282.759V283.909C77.6451 284.413 77.7658 284.889 78.0073 285.337C78.2559 285.784 78.7033 286.008 79.3496 286.008C79.9959 286.008 80.4363 285.788 80.6706 285.347C80.9121 284.907 81.0328 284.428 81.0328 283.909V282.759C81.0328 282.24 80.9192 281.757 80.6919 281.31C80.4647 280.862 80.0172 280.638 79.3496 280.638C78.7104 280.638 78.2665 280.862 78.0179 281.31C77.7694 281.757 77.6451 282.24 77.6451 282.759ZM63.3482 271.423V270.273C63.3482 269.392 63.5364 268.586 63.9128 267.854C64.2892 267.116 64.8326 266.526 65.5428 266.086C66.2601 265.646 67.1266 265.425 68.1422 265.425C69.1934 265.425 70.074 265.646 70.7843 266.086C71.4945 266.526 72.0343 267.116 72.4036 267.854C72.7729 268.586 72.9576 269.392 72.9576 270.273V271.423C72.9576 272.304 72.7694 273.11 72.3929 273.842C72.0236 274.573 71.4803 275.159 70.763 275.599C70.0527 276.033 69.1792 276.249 68.1422 276.249C67.1053 276.249 66.2282 276.029 65.5108 275.589C64.8006 275.141 64.2608 274.555 63.8915 273.831C63.5293 273.099 63.3482 272.297 63.3482 271.423ZM66.4696 270.273V271.423C66.4696 271.942 66.5904 272.421 66.8319 272.862C67.0804 273.302 67.5172 273.522 68.1422 273.522C68.7956 273.522 69.2395 273.302 69.4739 272.862C69.7154 272.421 69.8361 271.942 69.8361 271.423V270.273C69.8361 269.754 69.7225 269.271 69.4952 268.824C69.2679 268.376 68.8169 268.153 68.1422 268.153C67.5101 268.153 67.0733 268.38 66.8319 268.835C66.5904 269.289 66.4696 269.768 66.4696 270.273ZM64.7544 288L79.7544 266.182H82.5456L67.5456 288H64.7544Z" fill="#232323"/>
<path d="M131.768 352V348.676L139.535 341.485C140.195 340.846 140.749 340.271 141.197 339.759C141.651 339.248 141.996 338.747 142.23 338.257C142.464 337.76 142.582 337.224 142.582 336.648C142.582 336.009 142.436 335.459 142.145 334.997C141.854 334.528 141.456 334.17 140.952 333.921C140.447 333.665 139.876 333.538 139.237 333.538C138.569 333.538 137.987 333.673 137.489 333.942C136.992 334.212 136.609 334.599 136.339 335.104C136.069 335.608 135.934 336.208 135.934 336.904H131.555C131.555 335.477 131.879 334.237 132.525 333.186C133.171 332.135 134.077 331.322 135.241 330.746C136.406 330.171 137.749 329.884 139.268 329.884C140.831 329.884 142.191 330.161 143.349 330.714C144.513 331.261 145.419 332.021 146.065 332.994C146.712 333.967 147.035 335.082 147.035 336.339C147.035 337.163 146.871 337.977 146.545 338.779C146.225 339.582 145.653 340.473 144.83 341.453C144.006 342.426 142.844 343.594 141.346 344.958L138.161 348.08V348.229H147.322V352H131.768ZM162.607 347.909V346.759C162.607 345.885 162.792 345.082 163.161 344.351C163.538 343.612 164.081 343.023 164.791 342.582C165.509 342.135 166.382 341.911 167.412 341.911C168.456 341.911 169.333 342.131 170.044 342.572C170.761 343.012 171.301 343.602 171.663 344.34C172.032 345.072 172.217 345.878 172.217 346.759V347.909C172.217 348.783 172.032 349.589 171.663 350.327C171.294 351.059 170.75 351.645 170.033 352.085C169.316 352.533 168.442 352.756 167.412 352.756C166.368 352.756 165.491 352.533 164.781 352.085C164.07 351.645 163.531 351.059 163.161 350.327C162.792 349.589 162.607 348.783 162.607 347.909ZM165.708 346.759V347.909C165.708 348.413 165.828 348.889 166.07 349.337C166.318 349.784 166.766 350.008 167.412 350.008C168.058 350.008 168.499 349.788 168.733 349.347C168.975 348.907 169.095 348.428 169.095 347.909V346.759C169.095 346.24 168.982 345.757 168.754 345.31C168.527 344.862 168.08 344.638 167.412 344.638C166.773 344.638 166.329 344.862 166.08 345.31C165.832 345.757 165.708 346.24 165.708 346.759ZM151.411 335.423V334.273C151.411 333.392 151.599 332.586 151.975 331.854C152.352 331.116 152.895 330.526 153.605 330.086C154.323 329.646 155.189 329.425 156.205 329.425C157.256 329.425 158.137 329.646 158.847 330.086C159.557 330.526 160.097 331.116 160.466 331.854C160.835 332.586 161.02 333.392 161.02 334.273V335.423C161.02 336.304 160.832 337.11 160.455 337.842C160.086 338.573 159.543 339.159 158.825 339.599C158.115 340.033 157.242 340.249 156.205 340.249C155.168 340.249 154.291 340.029 153.573 339.589C152.863 339.141 152.323 338.555 151.954 337.831C151.592 337.099 151.411 336.297 151.411 335.423ZM154.532 334.273V335.423C154.532 335.942 154.653 336.421 154.894 336.862C155.143 337.302 155.58 337.522 156.205 337.522C156.858 337.522 157.302 337.302 157.536 336.862C157.778 336.421 157.899 335.942 157.899 335.423V334.273C157.899 333.754 157.785 333.271 157.558 332.824C157.33 332.376 156.879 332.153 156.205 332.153C155.573 332.153 155.136 332.38 154.894 332.835C154.653 333.289 154.532 333.768 154.532 334.273ZM152.817 352L167.817 330.182H170.608L155.608 352H152.817Z" fill="#232323"/>
<path d="M281.833 306.298C280.242 306.298 278.825 306.025 277.582 305.478C276.347 304.924 275.37 304.164 274.653 303.198C273.942 302.225 273.577 301.103 273.555 299.832H278.2C278.229 300.364 278.403 300.833 278.722 301.238C279.049 301.636 279.482 301.945 280.022 302.165C280.562 302.385 281.169 302.495 281.844 302.495C282.547 302.495 283.168 302.371 283.708 302.122C284.248 301.874 284.67 301.529 284.976 301.089C285.281 300.648 285.434 300.141 285.434 299.565C285.434 298.983 285.271 298.468 284.944 298.021C284.624 297.566 284.163 297.211 283.559 296.955C282.962 296.7 282.252 296.572 281.428 296.572H279.393V293.184H281.428C282.124 293.184 282.739 293.063 283.271 292.822C283.811 292.58 284.23 292.246 284.528 291.82C284.827 291.387 284.976 290.883 284.976 290.308C284.976 289.761 284.844 289.281 284.582 288.869C284.326 288.45 283.964 288.124 283.495 287.889C283.033 287.655 282.494 287.538 281.876 287.538C281.251 287.538 280.679 287.651 280.161 287.879C279.642 288.099 279.227 288.415 278.914 288.827C278.602 289.239 278.435 289.722 278.413 290.276H273.992C274.013 289.018 274.372 287.911 275.068 286.952C275.764 285.993 276.702 285.244 277.881 284.704C279.067 284.157 280.406 283.884 281.897 283.884C283.403 283.884 284.72 284.157 285.849 284.704C286.979 285.251 287.856 285.989 288.481 286.92C289.113 287.843 289.425 288.88 289.418 290.031C289.425 291.252 289.045 292.271 288.278 293.088C287.518 293.905 286.528 294.423 285.306 294.643V294.814C286.911 295.02 288.133 295.577 288.971 296.487C289.816 297.388 290.235 298.518 290.228 299.874C290.235 301.117 289.876 302.222 289.152 303.188C288.435 304.153 287.444 304.913 286.18 305.467C284.915 306.021 283.467 306.298 281.833 306.298ZM301.513 306.298C300.007 306.298 298.665 306.021 297.486 305.467C296.314 304.913 295.383 304.15 294.694 303.177C294.006 302.204 293.647 301.089 293.618 299.832H298.093C298.143 300.677 298.498 301.362 299.158 301.888C299.819 302.413 300.604 302.676 301.513 302.676C302.237 302.676 302.876 302.516 303.43 302.197C303.991 301.87 304.428 301.419 304.741 300.844C305.06 300.261 305.22 299.594 305.22 298.841C305.22 298.074 305.057 297.399 304.73 296.817C304.41 296.234 303.966 295.78 303.398 295.453C302.83 295.126 302.18 294.96 301.449 294.952C300.809 294.952 300.188 295.084 299.584 295.347C298.988 295.609 298.523 295.968 298.189 296.423L294.087 295.688L295.121 284.182H308.459V287.953H298.924L298.359 293.418H298.487C298.871 292.879 299.449 292.431 300.224 292.076C300.998 291.721 301.864 291.543 302.823 291.543C304.137 291.543 305.309 291.852 306.339 292.47C307.368 293.088 308.182 293.937 308.778 295.016C309.375 296.089 309.67 297.325 309.662 298.724C309.67 300.194 309.329 301.501 308.64 302.644C307.958 303.781 307.003 304.675 305.774 305.329C304.552 305.975 303.132 306.298 301.513 306.298ZM324.822 301.909V300.759C324.822 299.885 325.007 299.082 325.376 298.351C325.753 297.612 326.296 297.023 327.006 296.582C327.724 296.135 328.597 295.911 329.627 295.911C330.671 295.911 331.548 296.131 332.258 296.572C332.976 297.012 333.515 297.602 333.878 298.34C334.247 299.072 334.432 299.878 334.432 300.759V301.909C334.432 302.783 334.247 303.589 333.878 304.327C333.508 305.059 332.965 305.645 332.248 306.085C331.53 306.533 330.657 306.756 329.627 306.756C328.583 306.756 327.706 306.533 326.996 306.085C326.285 305.645 325.746 305.059 325.376 304.327C325.007 303.589 324.822 302.783 324.822 301.909ZM327.922 300.759V301.909C327.922 302.413 328.043 302.889 328.285 303.337C328.533 303.784 328.981 304.008 329.627 304.008C330.273 304.008 330.714 303.788 330.948 303.347C331.189 302.907 331.31 302.428 331.31 301.909V300.759C331.31 300.24 331.197 299.757 330.969 299.31C330.742 298.862 330.295 298.638 329.627 298.638C328.988 298.638 328.544 298.862 328.295 299.31C328.047 299.757 327.922 300.24 327.922 300.759ZM313.626 289.423V288.273C313.626 287.392 313.814 286.586 314.19 285.854C314.567 285.116 315.11 284.526 315.82 284.086C316.537 283.646 317.404 283.425 318.42 283.425C319.471 283.425 320.351 283.646 321.062 284.086C321.772 284.526 322.312 285.116 322.681 285.854C323.05 286.586 323.235 287.392 323.235 288.273V289.423C323.235 290.304 323.047 291.11 322.67 291.842C322.301 292.573 321.758 293.159 321.04 293.599C320.33 294.033 319.456 294.249 318.42 294.249C317.383 294.249 316.506 294.029 315.788 293.589C315.078 293.141 314.538 292.555 314.169 291.831C313.807 291.099 313.626 290.297 313.626 289.423ZM316.747 288.273V289.423C316.747 289.942 316.868 290.421 317.109 290.862C317.358 291.302 317.795 291.522 318.42 291.522C319.073 291.522 319.517 291.302 319.751 290.862C319.993 290.421 320.113 289.942 320.113 289.423V288.273C320.113 287.754 320 287.271 319.773 286.824C319.545 286.376 319.094 286.153 318.42 286.153C317.787 286.153 317.351 286.38 317.109 286.835C316.868 287.289 316.747 287.768 316.747 288.273ZM315.032 306L330.032 284.182H332.823L317.823 306H315.032Z" fill="#232323"/>
<path d="M242.142 77.2983C241.02 77.2912 239.937 77.103 238.893 76.7337C237.856 76.3643 236.925 75.7642 236.102 74.9332C235.278 74.1023 234.624 73.0014 234.141 71.6307C233.665 70.2599 233.428 68.5767 233.428 66.581C233.435 64.7486 233.644 63.1115 234.056 61.6697C234.475 60.2209 235.072 58.9922 235.846 57.9837C236.627 56.9751 237.561 56.2081 238.648 55.6825C239.734 55.1499 240.952 54.8835 242.302 54.8835C243.758 54.8835 245.043 55.1676 246.158 55.7358C247.273 56.2969 248.168 57.0604 248.843 58.0263C249.525 58.9922 249.937 60.0753 250.079 61.2756H245.53C245.352 60.5156 244.979 59.919 244.411 59.4858C243.843 59.0526 243.14 58.8359 242.302 58.8359C240.881 58.8359 239.802 59.4538 239.063 60.6896C238.332 61.9254 237.959 63.6051 237.945 65.7287H238.094C238.42 65.0824 238.861 64.532 239.415 64.0774C239.976 63.6158 240.612 63.2642 241.322 63.0227C242.039 62.7741 242.795 62.6499 243.591 62.6499C244.884 62.6499 246.034 62.9553 247.043 63.5661C248.051 64.1697 248.847 65.0007 249.429 66.0589C250.011 67.1172 250.303 68.3281 250.303 69.6918C250.303 71.169 249.958 72.483 249.269 73.6335C248.587 74.7841 247.632 75.6861 246.403 76.3395C245.182 76.9858 243.761 77.3054 242.142 77.2983ZM242.121 73.6761C242.831 73.6761 243.467 73.5057 244.028 73.1648C244.589 72.8239 245.029 72.3622 245.349 71.7798C245.668 71.1974 245.828 70.544 245.828 69.8196C245.828 69.0952 245.668 68.4453 245.349 67.87C245.036 67.2947 244.603 66.8366 244.049 66.4957C243.495 66.1548 242.863 65.9844 242.153 65.9844C241.62 65.9844 241.126 66.0838 240.672 66.2827C240.224 66.4815 239.83 66.7585 239.489 67.1136C239.156 67.4687 238.893 67.8807 238.701 68.3494C238.509 68.8111 238.413 69.3047 238.413 69.8303C238.413 70.5334 238.573 71.1761 238.893 71.7585C239.219 72.3409 239.66 72.8061 240.214 73.1541C240.775 73.5021 241.411 73.6761 242.121 73.6761ZM261.542 77.2983C260.036 77.2983 258.694 77.0213 257.515 76.4673C256.343 75.9134 255.413 75.1499 254.724 74.1768C254.035 73.2038 253.676 72.0888 253.648 70.8317H258.122C258.172 71.6768 258.527 72.3622 259.188 72.8878C259.848 73.4134 260.633 73.6761 261.542 73.6761C262.266 73.6761 262.906 73.5163 263.46 73.1967C264.021 72.87 264.457 72.419 264.77 71.8438C265.089 71.2614 265.249 70.5937 265.249 69.8409C265.249 69.0739 265.086 68.3991 264.759 67.8168C264.44 67.2344 263.996 66.7798 263.428 66.4531C262.859 66.1264 262.21 65.9595 261.478 65.9524C260.839 65.9524 260.217 66.0838 259.614 66.3466C259.017 66.6094 258.552 66.968 258.218 67.4226L254.116 66.6875L255.15 55.1818H268.488V58.9531H258.953L258.388 64.4183H258.516C258.9 63.8786 259.479 63.4311 260.253 63.076C261.027 62.7209 261.893 62.5433 262.852 62.5433C264.166 62.5433 265.338 62.8523 266.368 63.4702C267.398 64.0881 268.211 64.9368 268.808 66.0163C269.404 67.0888 269.699 68.3246 269.692 69.7237C269.699 71.1939 269.358 72.5007 268.669 73.6442C267.987 74.7805 267.032 75.6754 265.803 76.3288C264.582 76.9751 263.161 77.2983 261.542 77.2983ZM284.852 72.9091V71.7585C284.852 70.8849 285.036 70.0824 285.406 69.3509C285.782 68.6122 286.325 68.0227 287.036 67.5824C287.753 67.1349 288.626 66.9112 289.656 66.9112C290.7 66.9112 291.577 67.1314 292.288 67.5717C293.005 68.0121 293.545 68.6016 293.907 69.3402C294.276 70.0717 294.461 70.8778 294.461 71.7585V72.9091C294.461 73.7827 294.276 74.5888 293.907 75.3274C293.538 76.0589 292.994 76.6449 292.277 77.0852C291.56 77.5327 290.686 77.7564 289.656 77.7564C288.612 77.7564 287.735 77.5327 287.025 77.0852C286.315 76.6449 285.775 76.0589 285.406 75.3274C285.036 74.5888 284.852 73.7827 284.852 72.9091ZM287.952 71.7585V72.9091C287.952 73.4134 288.072 73.8892 288.314 74.3366C288.563 74.7841 289.01 75.0078 289.656 75.0078C290.303 75.0078 290.743 74.7876 290.977 74.3473C291.219 73.907 291.339 73.4276 291.339 72.9091V71.7585C291.339 71.2401 291.226 70.7571 290.999 70.3097C290.771 69.8622 290.324 69.6385 289.656 69.6385C289.017 69.6385 288.573 69.8622 288.325 70.3097C288.076 70.7571 287.952 71.2401 287.952 71.7585ZM273.655 60.4233V59.2727C273.655 58.392 273.843 57.5859 274.219 56.8544C274.596 56.1158 275.139 55.5263 275.849 55.0859C276.567 54.6456 277.433 54.4254 278.449 54.4254C279.5 54.4254 280.381 54.6456 281.091 55.0859C281.801 55.5263 282.341 56.1158 282.71 56.8544C283.08 57.5859 283.264 58.392 283.264 59.2727V60.4233C283.264 61.304 283.076 62.1101 282.7 62.8416C282.33 63.5732 281.787 64.1591 281.07 64.5994C280.359 65.0327 279.486 65.2493 278.449 65.2493C277.412 65.2493 276.535 65.0291 275.817 64.5888C275.107 64.1413 274.567 63.5554 274.198 62.831C273.836 62.0994 273.655 61.2969 273.655 60.4233ZM276.776 59.2727V60.4233C276.776 60.9418 276.897 61.4212 277.138 61.8615C277.387 62.3018 277.824 62.522 278.449 62.522C279.102 62.522 279.546 62.3018 279.781 61.8615C280.022 61.4212 280.143 60.9418 280.143 60.4233V59.2727C280.143 58.7543 280.029 58.2713 279.802 57.8239C279.575 57.3764 279.124 57.1527 278.449 57.1527C277.817 57.1527 277.38 57.38 277.138 57.8345C276.897 58.2891 276.776 58.7685 276.776 59.2727ZM275.061 77L290.061 55.1818H292.852L277.852 77H275.061Z" fill="#232323"/>
</svg>
