<svg width="175" height="175" viewBox="0 0 175 175" fill="none" xmlns="http://www.w3.org/2000/svg">
<path d="M153.125 58.3335C151.652 58.3335 117.76 58.545 87.4999 72.9752C57.2395 58.545 23.3478 58.3335 21.8749 58.3335C19.941 58.3335 18.0864 59.1017 16.7189 60.4692C15.3515 61.8366 14.5833 63.6913 14.5833 65.6252V137.689C14.5833 138.667 14.7802 139.635 15.1622 140.536C15.5443 141.437 16.1037 142.251 16.8072 142.931C18.2291 144.302 20.3072 145.155 22.1228 144.973L23.0489 144.966C28.0291 144.966 54.3739 145.68 84.4155 159.731C84.5322 159.79 84.6635 159.768 84.7801 159.812C85.6478 160.169 86.5593 160.417 87.4999 160.417C88.4405 160.417 89.352 160.169 90.227 159.812C90.3437 159.768 90.4749 159.79 90.5916 159.731C120.633 145.673 146.978 144.966 151.958 144.966L152.884 144.973C154.62 145.155 156.771 144.302 158.2 142.931C159.615 141.553 160.417 139.657 160.417 137.689V65.6252C160.417 63.6913 159.648 61.8366 158.281 60.4692C156.913 59.1017 155.059 58.3335 153.125 58.3335ZM29.1666 73.2741C39.9947 74.0835 61.1114 76.7741 80.2083 85.6116V142.064C58.3333 133.496 39.4478 131.17 29.1666 130.572V73.2741ZM145.833 130.572C135.552 131.17 116.667 133.496 94.7916 142.064V85.6116C113.888 76.7741 135.005 74.0835 145.833 73.2741V130.572Z" fill="#B6B6B6"/>
<path d="M87.5 58.3335C99.5812 58.3335 109.375 48.5397 109.375 36.4585C109.375 24.3773 99.5812 14.5835 87.5 14.5835C75.4188 14.5835 65.625 24.3773 65.625 36.4585C65.625 48.5397 75.4188 58.3335 87.5 58.3335Z" fill="#B6B6B6"/>
</svg>
