<svg width="303" height="302" viewBox="0 0 303 302" fill="none" xmlns="http://www.w3.org/2000/svg">
<circle cx="151.086" cy="151" r="151" fill="#2F2F2F"/>
<path d="M169.732 88.1786H204.515V170.256C204.515 180.015 202.179 188.461 197.508 195.593C192.879 202.683 186.414 208.167 178.115 212.046C169.815 215.883 160.181 217.801 149.212 217.801C138.16 217.801 128.485 215.883 120.185 212.046C111.885 208.167 105.421 202.683 100.792 195.593C96.204 188.461 93.9102 180.015 93.9102 170.256V88.1786H128.693V167.253C128.693 171.215 129.569 174.761 131.321 177.888C133.072 180.975 135.491 183.394 138.577 185.145C141.705 186.897 145.25 187.773 149.212 187.773C153.216 187.773 156.761 186.897 159.848 185.145C162.934 183.394 165.353 180.975 167.104 177.888C168.856 174.761 169.732 171.215 169.732 167.253V88.1786Z" fill="#E5C148"/>
</svg>
