<svg width="84" height="68" viewBox="0 0 84 68" fill="none" xmlns="http://www.w3.org/2000/svg">
<mask id="mask0_0_1" style="mask-type:alpha" maskUnits="userSpaceOnUse" x="-8" y="-16" width="100" height="100">
<rect x="-8" y="-16" width="100" height="100" fill="#D9D9D9"/>
</mask>
<g mask="url(#mask0_0_1)">
<path d="M53.4585 33.167L70.1252 23.5837L53.4585 14.0003L36.7918 23.5837L53.4585 33.167ZM53.4585 45.8753L64.9168 39.2087V30.4587L53.4585 37.1253L42.0002 30.4587V39.2087L53.4585 45.8753ZM8.66683 0.666992H75.3335C77.6252 0.666992 79.5877 1.48366 81.221 3.11699C82.8516 4.74755 83.6668 6.70866 83.6668 9.00033V59.0003C83.6668 61.292 82.8516 63.2545 81.221 64.8878C79.5877 66.5184 77.6252 67.3337 75.3335 67.3337H54.5002V59.0003H75.3335V9.00033H8.66683V13.167H0.333496V9.00033C0.333496 6.70866 1.15016 4.74755 2.7835 3.11699C4.41405 1.48366 6.37516 0.666992 8.66683 0.666992ZM0.333496 67.3337H12.8335C12.8335 63.8614 11.6182 60.91 9.18766 58.4795C6.75711 56.0489 3.80572 54.8337 0.333496 54.8337V67.3337ZM21.1668 67.3337H29.5002C29.5002 59.2087 26.671 52.3156 21.0127 46.6545C15.3516 40.9962 8.4585 38.167 0.333496 38.167V46.5003C6.09739 46.5003 11.0099 48.5309 15.071 52.592C19.1349 56.6559 21.1668 61.5698 21.1668 67.3337ZM0.333496 21.5003V29.8337C5.54183 29.8337 10.421 30.8225 14.971 32.8003C19.5182 34.7809 23.4766 37.4545 26.846 40.8212C30.2127 44.1906 32.8863 48.1503 34.8668 52.7003C36.8446 57.2476 37.8335 62.1253 37.8335 67.3337H46.1668C46.1668 61.0142 44.9682 55.0767 42.571 49.5212C40.1766 43.9656 36.896 39.1045 32.7293 34.9378C28.5627 30.7712 23.7016 27.4906 18.146 25.0962C12.5904 22.6989 6.65294 21.5003 0.333496 21.5003Z" fill="#2F2F2F"/>
</g>
</svg>
