<svg width="84" height="76" viewBox="0 0 84 76" fill="none" xmlns="http://www.w3.org/2000/svg">
<mask id="mask0_0_1" style="mask-type:alpha" maskUnits="userSpaceOnUse" x="-8" y="-12" width="100" height="100">
<rect x="-8" y="-12" width="100" height="100" fill="#D9D9D9"/>
</mask>
<g mask="url(#mask0_0_1)">
<path d="M31.5835 52.5833L60.7502 33.8333L31.5835 15.0833V52.5833ZM25.3335 75.5V67.1667H8.66683C6.37516 67.1667 4.41405 66.3514 2.7835 64.7208C1.15016 63.0875 0.333496 61.125 0.333496 58.8333V8.83333C0.333496 6.54167 1.15016 4.57917 2.7835 2.94583C4.41405 1.31528 6.37516 0.5 8.66683 0.5H75.3335C77.6252 0.5 79.5877 1.31528 81.221 2.94583C82.8516 4.57917 83.6668 6.54167 83.6668 8.83333V58.8333C83.6668 61.125 82.8516 63.0875 81.221 64.7208C79.5877 66.3514 77.6252 67.1667 75.3335 67.1667H58.6668V75.5H25.3335ZM8.66683 58.8333H75.3335V8.83333H8.66683V58.8333Z" fill="#2F2F2F"/>
</g>
</svg>
