<svg width="84" height="84" viewBox="0 0 84 84" fill="none" xmlns="http://www.w3.org/2000/svg">
<mask id="mask0_0_1" style="mask-type:alpha" maskUnits="userSpaceOnUse" x="-8" y="-8" width="100" height="100">
<rect x="-8" y="-8" width="100" height="100" fill="#D9D9D9"/>
</mask>
<g mask="url(#mask0_0_1)">
<path d="M42.0002 83.6664C36.2363 83.6664 30.8196 82.5719 25.7502 80.383C20.6807 78.1969 16.271 75.2289 12.521 71.4789C8.771 67.7289 5.80294 63.3191 3.61683 58.2497C1.42794 53.1802 0.333496 47.7636 0.333496 41.9997C0.333496 36.2358 1.42794 30.8191 3.61683 25.7497C5.80294 20.6802 8.771 16.2705 12.521 12.5205C16.271 8.77051 20.6807 5.80106 25.7502 3.61217C30.8196 1.42606 36.2363 0.333008 42.0002 0.333008C47.7641 0.333008 53.1807 1.42606 58.2502 3.61217C63.3196 5.80106 67.7293 8.77051 71.4793 12.5205C75.2293 16.2705 78.1974 20.6802 80.3835 25.7497C82.5724 30.8191 83.6668 36.2358 83.6668 41.9997C83.6668 47.7636 82.5724 53.1802 80.3835 58.2497C78.1974 63.3191 75.2293 67.7289 71.4793 71.4789C67.7293 75.2289 63.3196 78.1969 58.2502 80.383C53.1807 82.5719 47.7641 83.6664 42.0002 83.6664ZM29.9168 73.0414L34.9168 61.583C32.0002 60.5413 29.4835 58.9261 27.3668 56.7372C25.2474 54.5511 23.5974 51.9997 22.4168 49.083L10.9585 53.8747C12.5557 58.3191 15.021 62.208 18.3543 65.5413C21.6877 68.8747 25.5418 71.3747 29.9168 73.0414ZM22.4168 34.9163C23.5974 31.9997 25.2474 29.4483 27.3668 27.2622C29.4835 25.0733 32.0002 23.458 34.9168 22.4163L30.1252 10.958C25.6807 12.6247 21.7918 15.1247 18.4585 18.458C15.1252 21.7913 12.6252 25.6802 10.9585 30.1247L22.4168 34.9163ZM42.0002 54.4997C45.4724 54.4997 48.4238 53.2844 50.8543 50.8538C53.2849 48.4233 54.5002 45.4719 54.5002 41.9997C54.5002 38.5275 53.2849 35.5761 50.8543 33.1455C48.4238 30.715 45.4724 29.4997 42.0002 29.4997C38.5279 29.4997 35.5766 30.715 33.146 33.1455C30.7154 35.5761 29.5002 38.5275 29.5002 41.9997C29.5002 45.4719 30.7154 48.4233 33.146 50.8538C35.5766 53.2844 38.5279 54.4997 42.0002 54.4997ZM54.0835 73.0414C58.4585 71.3747 62.296 68.8927 65.596 65.5955C68.8932 62.2955 71.3752 58.458 73.0418 54.083L61.5835 49.083C60.5418 51.9997 58.9446 54.5163 56.7918 56.633C54.6391 58.7525 52.1391 60.4025 49.2918 61.583L54.0835 73.0414ZM61.5835 34.708L73.0418 29.9163C71.3752 25.5413 68.8932 21.7038 65.596 18.4038C62.296 15.1066 58.4585 12.6247 54.0835 10.958L49.2918 22.6247C52.1391 23.6663 54.6043 25.2455 56.6877 27.3622C58.771 29.4816 60.4029 31.9302 61.5835 34.708Z" fill="#2F2F2F"/>
</g>
</svg>
