<svg width="100" height="100" viewBox="0 0 100 100" fill="none" xmlns="http://www.w3.org/2000/svg">
<mask id="mask0_59_876" style="mask-type:alpha" maskUnits="userSpaceOnUse" x="0" y="0" width="100" height="100">
<rect width="100" height="100" fill="#D9D9D9"/>
</mask>
<g mask="url(#mask0_59_876)">
<path d="M12.4998 83.3333C10.2082 83.3333 8.24706 82.5181 6.6165 80.8875C4.98317 79.2542 4.1665 77.2917 4.1665 75C4.1665 72.7083 4.98317 70.7458 6.6165 69.1125C8.24706 67.4819 10.2082 66.6667 12.4998 66.6667H13.5957C13.9068 66.6667 14.2359 66.7361 14.5832 66.875L33.5415 47.9167C33.4026 47.5694 33.3332 47.2389 33.3332 46.925V45.8333C33.3332 43.5417 34.1498 41.5792 35.7832 39.9458C37.4137 38.3153 39.3748 37.5 41.6665 37.5C43.9582 37.5 45.9207 38.3153 47.554 39.9458C49.1846 41.5792 49.9998 43.5417 49.9998 45.8333C49.9998 45.9722 49.9304 46.6667 49.7915 47.9167L60.4165 58.5417C60.7637 58.4028 61.0943 58.3333 61.4082 58.3333H63.5915C63.9054 58.3333 64.2359 58.4028 64.5832 58.5417L79.3748 43.75C79.2359 43.4028 79.1665 43.0722 79.1665 42.7583V41.6667C79.1665 39.375 79.9818 37.4125 81.6123 35.7792C83.2457 34.1486 85.2082 33.3333 87.4998 33.3333C89.7915 33.3333 91.754 34.1486 93.3873 35.7792C95.0179 37.4125 95.8332 39.375 95.8332 41.6667C95.8332 43.9583 95.0179 45.9194 93.3873 47.55C91.754 49.1833 89.7915 50 87.4998 50H86.4082C86.0943 50 85.7637 49.9306 85.4165 49.7917L70.6248 64.5833C70.7637 64.9306 70.8332 65.2611 70.8332 65.575V66.6667C70.8332 68.9583 70.0179 70.9208 68.3873 72.5542C66.754 74.1847 64.7915 75 62.4998 75C60.2082 75 58.2471 74.1847 56.6165 72.5542C54.9832 70.9208 54.1665 68.9583 54.1665 66.6667V65.575C54.1665 65.2611 54.2359 64.9306 54.3748 64.5833L43.7498 53.9583C43.4026 54.0972 43.0721 54.1667 42.7582 54.1667H41.6665C41.5276 54.1667 40.8332 54.0972 39.5832 53.9583L20.6248 72.9167C20.7637 73.2639 20.8332 73.5945 20.8332 73.9083V75C20.8332 77.2917 20.0165 79.2542 18.3832 80.8875C16.7526 82.5181 14.7915 83.3333 12.4998 83.3333ZM16.6665 41.5625L14.0623 35.9375L8.43734 33.3333L14.0623 30.7292L16.6665 25.1042L19.2707 30.7292L24.8957 33.3333L19.2707 35.9375L16.6665 41.5625ZM62.4998 37.5L58.5415 28.9583L49.9998 25L58.5415 21.0417L62.4998 12.5L66.4582 21.0417L74.9998 25L66.4582 28.9583L62.4998 37.5Z" fill="#2F2F2F"/>
</g>
</svg>
