<svg width="84" height="84" viewBox="0 0 84 84" fill="none" xmlns="http://www.w3.org/2000/svg">
<mask id="mask0_0_1" style="mask-type:alpha" maskUnits="userSpaceOnUse" x="-8" y="-8" width="100" height="100">
<rect x="-8" y="-8" width="100" height="100" fill="#D9D9D9"/>
</mask>
<g mask="url(#mask0_0_1)">
<path d="M29.5002 50.333C29.5002 39.9163 33.146 31.0622 40.4377 23.7705C47.7293 16.4788 56.5835 12.833 67.0002 12.833V21.1663C58.8752 21.1663 51.9835 23.9955 46.3252 29.6538C40.6641 35.315 37.8335 42.208 37.8335 50.333H29.5002ZM46.1668 50.333C46.1668 44.5691 48.1988 39.6552 52.2627 35.5913C56.3238 31.5302 61.2363 29.4997 67.0002 29.4997V37.833C63.5279 37.833 60.5766 39.0483 58.146 41.4788C55.7154 43.9094 54.5002 46.8608 54.5002 50.333H46.1668ZM12.8335 16.9997C10.5418 16.9997 8.57933 16.183 6.946 14.5497C5.31544 12.9191 4.50016 10.958 4.50016 8.66634C4.50016 6.37467 5.31544 4.41217 6.946 2.77884C8.57933 1.14829 10.5418 0.333008 12.8335 0.333008C15.1252 0.333008 17.0863 1.14829 18.7168 2.77884C20.3502 4.41217 21.1668 6.37467 21.1668 8.66634C21.1668 10.958 20.3502 12.9191 18.7168 14.5497C17.0863 16.183 15.1252 16.9997 12.8335 16.9997ZM0.333496 37.833V27.4163C0.333496 25.6802 0.941829 24.2052 2.1585 22.9913C3.37239 21.7747 4.84739 21.1663 6.5835 21.1663H19.0835C22.2085 21.1663 24.9002 20.1761 27.1585 18.1955C29.4141 16.2177 30.8196 13.7358 31.3752 10.7497H39.7085C39.2918 14.9163 37.7641 18.5969 35.1252 21.7913C32.4863 24.9858 29.2224 27.208 25.3335 28.458V37.833H0.333496ZM71.1668 62.833C68.8752 62.833 66.9127 62.0177 65.2793 60.3872C63.6488 58.7538 62.8335 56.7913 62.8335 54.4997C62.8335 52.208 63.6488 50.2455 65.2793 48.6122C66.9127 46.9816 68.8752 46.1663 71.1668 46.1663C73.4585 46.1663 75.421 46.9816 77.0543 48.6122C78.6849 50.2455 79.5002 52.208 79.5002 54.4997C79.5002 56.7913 78.6849 58.7538 77.0543 60.3872C75.421 62.0177 73.4585 62.833 71.1668 62.833ZM58.6668 83.6664V74.2913C54.7779 73.0413 51.5141 70.8191 48.8752 67.6247C46.2363 64.4302 44.7085 60.7497 44.2918 56.583H52.6252C53.1807 59.5691 54.5863 62.0525 56.8418 64.033C59.1002 66.0108 61.7918 66.9997 64.9168 66.9997H77.4168C79.1529 66.9997 80.6279 67.608 81.8418 68.8247C83.0585 70.0386 83.6668 71.5136 83.6668 73.2497V83.6664H58.6668Z" fill="#2F2F2F"/>
</g>
</svg>
