<svg width="36" height="44" viewBox="0 0 36 44" fill="none" xmlns="http://www.w3.org/2000/svg">
<path d="M0.586426 37.1663V32.833H4.91976V17.6663C4.91976 14.6691 5.82254 12.0056 7.62809 9.67567C9.43365 7.34723 11.7809 5.8219 14.6698 5.09967V3.58301C14.6698 2.68023 14.9861 1.91323 15.6188 1.28201C16.25 0.649341 17.017 0.333008 17.9198 0.333008C18.8225 0.333008 19.5895 0.649341 20.2208 1.28201C20.8534 1.91323 21.1698 2.68023 21.1698 3.58301V5.09967C24.0586 5.8219 26.4059 7.34723 28.2114 9.67567C30.017 12.0056 30.9198 14.6691 30.9198 17.6663V32.833H35.2531V37.1663H0.586426ZM17.9198 43.6663C16.7281 43.6663 15.7083 43.2424 14.8604 42.3945C14.0111 41.5452 13.5864 40.5247 13.5864 39.333H22.2531C22.2531 40.5247 21.8291 41.5452 20.9813 42.3945C20.1319 43.2424 19.1114 43.6663 17.9198 43.6663ZM9.25309 32.833H26.5864V17.6663C26.5864 15.283 25.7378 13.2427 24.0406 11.5455C22.3434 9.84829 20.3031 8.99967 17.9198 8.99967C15.5364 8.99967 13.4961 9.84829 11.7989 11.5455C10.1017 13.2427 9.25309 15.283 9.25309 17.6663V32.833Z" fill="#1C1B1F"/>
</svg>
