<svg width="90" height="90" viewBox="0 0 90 90" fill="none" xmlns="http://www.w3.org/2000/svg">
<circle cx="45" cy="45" r="45" fill="#D9D9D9"/>
<path d="M77.4959 20.7282H66.541V17.0028C66.541 16.0147 66.1562 15.0671 65.4714 14.3685C64.7866 13.6698 63.8578 13.2773 62.8893 13.2773H26.3729C25.4045 13.2773 24.4757 13.6698 23.7908 14.3685C23.106 15.0671 22.7213 16.0147 22.7213 17.0028V20.7282H11.7664C10.7979 20.7282 9.8691 21.1207 9.18429 21.8193C8.49947 22.518 8.11475 23.4655 8.11475 24.4536V35.6298C8.11475 51.6863 14.6877 61.3724 25.7156 61.7077C27.3247 64.5463 29.5262 66.9889 32.1641 68.8625C34.802 70.736 37.8116 71.9944 40.9795 72.5486V80.3347H33.6762V87.7855H55.5861V80.3347H48.2828V72.5486C51.4507 71.9944 54.4603 70.736 57.0982 68.8625C59.736 66.9889 61.9376 64.5463 63.5466 61.7077C74.5015 61.3351 81.1475 51.6491 81.1475 35.6298V24.4536C81.1475 23.4655 80.7628 22.518 80.078 21.8193C79.3932 21.1207 78.4644 20.7282 77.4959 20.7282ZM15.418 35.6298V28.179H22.7213V53.6235C16.2214 50.8295 15.418 40.4728 15.418 35.6298ZM66.541 53.6235V28.179H73.8443V35.6298C73.8443 40.4728 73.0409 50.8295 66.541 53.6235Z" fill="#2F2F2F"/>
<path d="M31.5645 49.6342C30.635 49.6342 29.8072 49.4745 29.0811 49.155C28.3591 48.8313 27.7886 48.3874 27.3695 47.823C26.9545 47.2546 26.7409 46.599 26.7284 45.8563H29.4421C29.4587 46.1675 29.5603 46.4413 29.7471 46.6778C29.9379 46.9102 30.191 47.0907 30.5064 47.2193C30.8217 47.3479 31.1765 47.4123 31.5707 47.4123C31.9815 47.4123 32.3446 47.3396 32.6599 47.1944C32.9753 47.0492 33.2221 46.8479 33.4006 46.5907C33.579 46.3334 33.6682 46.0367 33.6682 45.7007C33.6682 45.3604 33.5728 45.0596 33.3819 44.7982C33.1952 44.5326 32.9255 44.3251 32.5728 44.1758C32.2242 44.0264 31.8093 43.9517 31.328 43.9517H30.1392V41.9725H31.328C31.7346 41.9725 32.0935 41.9019 32.4047 41.7608C32.7201 41.6198 32.9649 41.4247 33.1392 41.1758C33.3134 40.9227 33.4006 40.6281 33.4006 40.292C33.4006 39.9725 33.3238 39.6924 33.1703 39.4517C33.0209 39.2069 32.8093 39.0161 32.5354 38.8791C32.2657 38.7422 31.9504 38.6737 31.5894 38.6737C31.2242 38.6737 30.8902 38.7401 30.5873 38.8729C30.2844 39.0015 30.0417 39.1862 29.8591 39.4268C29.6765 39.6675 29.579 39.9497 29.5666 40.2733H26.9836C26.996 39.5389 27.2056 38.8916 27.6122 38.3314C28.0189 37.7712 28.5666 37.3335 29.2554 37.0181C29.9483 36.6986 30.7305 36.5389 31.6018 36.5389C32.4815 36.5389 33.2512 36.6986 33.9109 37.0181C34.5707 37.3376 35.0831 37.7692 35.4483 38.3127C35.8176 38.8522 36.0001 39.458 35.996 40.1302C36.0001 40.8438 35.7781 41.4393 35.33 41.9164C34.886 42.3936 34.3072 42.6965 33.5935 42.8252V42.9247C34.5313 43.0451 35.2449 43.3708 35.7346 43.9019C36.2283 44.4289 36.4732 45.0886 36.469 45.8811C36.4732 46.6073 36.2636 47.2525 35.8404 47.8168C35.4213 48.3811 34.8425 48.8251 34.1039 49.1488C33.3653 49.4724 32.5188 49.6342 31.5645 49.6342ZM43.1614 49.6342C42.2029 49.6342 41.3502 49.4786 40.6033 49.1674C39.8606 48.8521 39.2776 48.4226 38.8544 47.8791C38.4311 47.3355 38.2195 46.7193 38.2195 46.0305C38.2195 45.4994 38.3398 45.0119 38.5805 44.5679C38.8253 44.1197 39.1573 43.7484 39.5763 43.4538C39.9954 43.155 40.4643 42.9642 40.983 42.8812V42.794C40.3025 42.6571 39.7506 42.3272 39.3274 41.8044C38.9042 41.2774 38.6925 40.6654 38.6925 39.9683C38.6925 39.3086 38.8855 38.7214 39.2714 38.2069C39.6573 37.6883 40.1863 37.2816 40.8585 36.987C41.5348 36.6883 42.3025 36.5389 43.1614 36.5389C44.0203 36.5389 44.7859 36.6883 45.458 36.987C46.1344 37.2858 46.6655 37.6945 47.0514 38.2132C47.4373 38.7277 47.6323 39.3127 47.6365 39.9683C47.6323 40.6696 47.4165 41.2816 46.9892 41.8044C46.5618 42.3272 46.0141 42.6571 45.346 42.794V42.8812C45.8564 42.9642 46.319 43.155 46.734 43.4538C47.1531 43.7484 47.485 44.1197 47.7298 44.5679C47.9788 45.0119 48.1053 45.4994 48.1095 46.0305C48.1053 46.7193 47.8916 47.3355 47.4684 47.8791C47.0452 48.4226 46.4601 48.8521 45.7132 49.1674C44.9705 49.4786 44.1199 49.6342 43.1614 49.6342ZM43.1614 47.655C43.5888 47.655 43.9622 47.5782 44.2817 47.4247C44.6012 47.267 44.8502 47.0513 45.0286 46.7774C45.2112 46.4994 45.3024 46.1799 45.3024 45.8189C45.3024 45.4496 45.2091 45.1239 45.0224 44.8417C44.8356 44.5554 44.5825 44.3314 44.263 44.1695C43.9435 44.0036 43.5763 43.9206 43.1614 43.9206C42.7506 43.9206 42.3834 44.0036 42.0597 44.1695C41.7361 44.3314 41.4809 44.5554 41.2942 44.8417C41.1116 45.1239 41.0203 45.4496 41.0203 45.8189C41.0203 46.1799 41.1095 46.4994 41.288 46.7774C41.4664 47.0513 41.7174 47.267 42.0411 47.4247C42.3647 47.5782 42.7382 47.655 43.1614 47.655ZM43.1614 41.96C43.5182 41.96 43.8357 41.8874 44.1137 41.7422C44.3917 41.5969 44.6095 41.3957 44.7672 41.1384C44.9249 40.8812 45.0037 40.5845 45.0037 40.2484C45.0037 39.9165 44.9249 39.626 44.7672 39.377C44.6095 39.1239 44.3937 38.9268 44.1199 38.7858C43.846 38.6405 43.5265 38.5679 43.1614 38.5679C42.8004 38.5679 42.4809 38.6405 42.2029 38.7858C41.9249 38.9268 41.707 39.1239 41.5494 39.377C41.3958 39.626 41.3191 39.9165 41.3191 40.2484C41.3191 40.5845 41.3979 40.8812 41.5556 41.1384C41.7133 41.3957 41.9311 41.5969 42.2091 41.7422C42.4871 41.8874 42.8045 41.96 43.1614 41.96ZM56.9709 47.0699V46.3977C56.9709 45.8874 57.0788 45.4185 57.2946 44.9911C57.5145 44.5596 57.8319 44.2152 58.2469 43.9579C58.6659 43.6965 59.1763 43.5658 59.778 43.5658C60.3879 43.5658 60.9004 43.6944 61.3153 43.9517C61.7344 44.209 62.0497 44.5534 62.2614 44.9849C62.4771 45.4123 62.585 45.8832 62.585 46.3977V47.0699C62.585 47.5803 62.4771 48.0513 62.2614 48.4828C62.0456 48.9102 61.7282 49.2525 61.3091 49.5098C60.89 49.7712 60.3796 49.9019 59.778 49.9019C59.168 49.9019 58.6556 49.7712 58.2406 49.5098C57.8257 49.2525 57.5103 48.9102 57.2946 48.4828C57.0788 48.0513 56.9709 47.5803 56.9709 47.0699ZM58.7821 46.3977V47.0699C58.7821 47.3645 58.8527 47.6425 58.9937 47.904C59.139 48.1654 59.4004 48.2961 59.778 48.2961C60.1556 48.2961 60.4128 48.1674 60.5497 47.9102C60.6908 47.6529 60.7614 47.3728 60.7614 47.0699V46.3977C60.7614 46.0948 60.695 45.8127 60.5622 45.5513C60.4294 45.2899 60.168 45.1592 59.778 45.1592C59.4045 45.1592 59.1452 45.2899 59 45.5513C58.8547 45.8127 58.7821 46.0948 58.7821 46.3977ZM50.4295 39.7754V39.1032C50.4295 38.5887 50.5394 38.1177 50.7594 37.6903C50.9793 37.2588 51.2967 36.9144 51.7116 36.6571C52.1307 36.3999 52.6369 36.2713 53.2303 36.2713C53.8444 36.2713 54.3589 36.3999 54.7739 36.6571C55.1888 36.9144 55.5041 37.2588 55.7199 37.6903C55.9357 38.1177 56.0436 38.5887 56.0436 39.1032V39.7754C56.0436 40.2899 55.9336 40.7609 55.7137 41.1882C55.4979 41.6156 55.1805 41.9579 54.7614 42.2152C54.3465 42.4683 53.8361 42.5949 53.2303 42.5949C52.6245 42.5949 52.112 42.4662 51.693 42.209C51.278 41.9476 50.9627 41.6052 50.7469 41.182C50.5353 40.7546 50.4295 40.2858 50.4295 39.7754ZM52.2531 39.1032V39.7754C52.2531 40.0783 52.3237 40.3584 52.4647 40.6156C52.61 40.8729 52.8652 41.0015 53.2303 41.0015C53.612 41.0015 53.8714 40.8729 54.0083 40.6156C54.1494 40.3584 54.2199 40.0783 54.2199 39.7754V39.1032C54.2199 38.8003 54.1535 38.5181 54.0207 38.2567C53.888 37.9953 53.6245 37.8646 53.2303 37.8646C52.861 37.8646 52.6058 37.9974 52.4647 38.2629C52.3237 38.5285 52.2531 38.8086 52.2531 39.1032ZM51.2511 49.46L60.0145 36.7132H61.6452L52.8818 49.46H51.2511Z" fill="white"/>
</svg>
