<svg width="476" height="386" viewBox="0 0 476 386" fill="none" xmlns="http://www.w3.org/2000/svg">
<path d="M329 138.5L351 152.5L348.5 170L325 179.5L329 138.5Z" fill="#D9D9D9"/>
<path d="M384.043 132.518L440.742 135.531C443.5 135.678 445.616 138.032 445.47 140.79L442.937 188.441C442.79 191.198 440.436 193.315 437.679 193.168L380.979 190.155L384.043 132.518Z" fill="#B6B6B6"/>
<rect x="393.056" y="144.214" width="43" height="28" transform="rotate(4.18322 393.056 144.214)" fill="#D9D9D9"/>
<circle cx="437.5" cy="143.5" r="2.5" fill="#D9D9D9"/>
<circle cx="393.508" cy="179.632" r="2" transform="rotate(2.63466 393.508 179.632)" fill="#D9D9D9"/>
<circle cx="401.5" cy="180" r="2" transform="rotate(2.63466 401.5 180)" fill="#D9D9D9"/>
<circle cx="409.491" cy="180.367" r="2" transform="rotate(2.63466 409.491 180.367)" fill="#D9D9D9"/>
<path d="M349.774 140.972C350.204 134.913 355.465 130.348 361.525 130.778L385.465 132.476L381.412 189.616L346.5 187.14L349.774 140.972Z" fill="#D9D9D9"/>
<path d="M391 127V133L419 135V129.5H426.5V103.5L386 101L384.5 127H391Z" fill="#D9D9D9"/>
<path d="M374.051 187L420.979 189.59L420.428 199.574L373.5 196.985L374.051 187Z" fill="#D9D9D9"/>
<rect x="385.5" y="197" width="23" height="6" rx="2" fill="#D9D9D9"/>
<rect x="396.936" y="202.307" width="6.53465" height="182.653" transform="rotate(-11.5363 396.936 202.307)" fill="#D9D9D9"/>
<rect x="392.5" y="201" width="6.53465" height="182.653" fill="#D9D9D9"/>
<rect x="389.169" y="201" width="6.53465" height="182.653" transform="rotate(10.6222 389.169 201)" fill="#D9D9D9"/>
<path d="M436.72 209L469.715 209.605C473.028 209.666 475.664 212.401 475.604 215.714L475.494 221.713L436.5 220.998L436.72 209Z" fill="#D9D9D9"/>
<rect x="411.5" y="199" width="3" height="14" fill="#D9D9D9"/>
<rect x="411.5" y="214" width="3" height="27" transform="rotate(-90 411.5 214)" fill="#D9D9D9"/>
<path d="M106.133 32.1547L88.694 14.7038C85.7602 11.7689 81.0027 11.7679 78.0678 14.7016C78.0671 14.7023 78.0663 14.7031 78.0656 14.7038L31.6371 61.1558C28.8202 63.9739 27.2378 67.7953 27.2378 71.7798V379.449" stroke="#CBCBCB" stroke-width="8"/>
<path d="M2.81757 378.511H52.5969C54.153 378.511 55.4146 379.772 55.4146 381.328V382.268C55.4146 383.824 54.153 385.085 52.5969 385.085H2.81757C1.26139 385.085 -0.0001297 383.824 -0.0001297 382.268V381.328C-0.0001297 379.772 1.26139 378.511 2.81757 378.511Z" fill="#AFB9C5"/>
<path fill-rule="evenodd" clip-rule="evenodd" d="M95.6445 21.9165C83.5403 34.0207 83.5403 53.6454 95.6445 65.7496L114.24 84.3454L158.073 40.5124L139.478 21.9165C127.373 9.81236 107.749 9.81236 95.6445 21.9165Z" fill="#C5CFD6"/>
<path d="M139.732 66.2417C127.628 78.3459 115.883 86.2255 113.499 83.8414C111.115 81.4572 118.994 69.7121 131.099 57.6079C143.203 45.5038 154.948 37.6241 157.332 40.0083C159.716 42.3925 151.837 54.1376 139.732 66.2417Z" fill="#F2F2F2"/>
<path fill-rule="evenodd" clip-rule="evenodd" d="M169.455 164.51C165.94 160.385 163.561 155.329 163.959 149.664C165.104 133.342 187.825 136.933 192.245 145.171C196.665 153.409 196.14 174.306 190.428 175.778C188.15 176.365 183.297 174.927 178.358 171.95L181.458 193.882H163.153L169.455 164.51Z" fill="#B28B67"/>
<path fill-rule="evenodd" clip-rule="evenodd" d="M155.978 144.23C155.387 143.644 155.064 142.808 154.785 142.014C154.496 141.189 154.214 140.356 154.022 139.497C153.637 137.781 153.634 135.809 154.857 134.476C155.839 133.408 157.312 132.929 158.671 132.825C159.576 132.756 160.506 132.882 161.374 133.168C162.236 133.451 162.978 134.015 163.813 134.365C163.845 132.517 164.162 130.582 165.099 129.004C166.002 127.485 167.441 126.633 169.08 126.407C170.762 126.176 172.422 126.569 173.928 127.384C174.305 127.587 174.679 127.801 175.036 128.043C175.335 128.245 175.646 128.489 175.998 128.572C176.389 128.663 176.583 128.437 176.837 128.152C177.136 127.817 177.472 127.522 177.827 127.261C179.4 126.105 181.463 125.629 183.285 126.322C184.124 126.641 184.941 127.184 185.51 127.931C186.018 128.597 186.38 129.653 187.08 130.117C187.378 130.314 187.588 130.053 187.858 129.86C188.265 129.57 188.653 129.25 189.064 128.969C189.642 128.573 190.268 128.276 190.938 128.121C191.92 127.894 193.275 127.947 193.556 129.233C193.661 129.715 193.581 130.231 193.546 130.718C193.5 131.386 193.451 132.053 193.393 132.72C193.349 133.226 193.293 133.715 193.198 134.212C193.147 134.477 192.987 134.971 193.101 135.237C193.243 135.569 193.899 135.38 194.179 135.392C194.732 135.414 195.287 135.511 195.799 135.748C196.195 135.931 196.612 136.2 196.779 136.655C196.882 136.934 196.855 137.22 196.806 137.507C196.748 137.852 196.814 138.035 196.858 138.382C197.601 138.017 200.175 137.204 200.499 138.535C200.607 138.979 200.361 139.479 200.174 139.853C199.845 140.509 199.414 141.108 198.974 141.68C198.055 142.872 196.958 143.901 195.778 144.78C197.161 145.395 197.522 147.208 196.325 148.288C195.796 148.765 195.086 148.871 194.419 148.841C194.175 148.83 193.823 148.736 193.631 148.778C193.528 148.801 193.417 148.889 193.274 148.899C192.333 148.963 191.271 148.736 190.351 148.527C188.712 148.155 187.161 147.379 185.894 146.196C185.569 145.893 185.3 145.718 184.863 145.723C184.479 145.727 184.103 145.832 183.72 145.842C182.707 145.867 181.793 145.372 180.852 145.042C180.794 146.314 180.432 147.714 179.912 148.857C179.488 149.79 178.602 149.926 177.732 150.007C174.949 150.269 172.157 149.977 169.37 149.981C172.068 150.591 174.855 150.842 177.528 151.559C178.736 151.884 177.814 152.698 177.297 153.263C176.446 154.192 175.814 155.344 175.375 156.558C174.056 154.838 171.723 153.705 169.657 154.233C167.374 154.817 165.767 157.904 167.227 160.123C168.074 161.412 169.605 161.909 170.878 162.463C169.885 163.496 169.644 165.021 169.046 166.306C168.751 166.94 168.337 167.657 167.678 167.878C167.434 167.959 167.148 167.966 166.955 168.165C166.717 168.411 166.66 168.687 166.355 168.898C165.14 169.743 163.242 169.678 162.165 168.576C161.191 167.579 161.444 166.001 162.258 164.99C160.963 164.45 158.604 163.756 159.118 161.738C156.312 161.552 149.5 157.001 153.266 153.676C151.199 152.508 149.3 149.653 150.628 147.137C151.65 145.199 154.027 144.333 155.978 144.23Z" fill="#191847"/>
<path fill-rule="evenodd" clip-rule="evenodd" d="M130.068 289.221H188.991L196.712 383.797H109L130.068 289.221Z" fill="#C5CFD6"/>
<path fill-rule="evenodd" clip-rule="evenodd" d="M130.068 289.221H148.19L159.037 383.797H109L130.068 289.221Z" fill="black" fill-opacity="0.1"/>
<path fill-rule="evenodd" clip-rule="evenodd" d="M256.168 273.017C262.45 269.245 272.99 274.092 272.983 279.487C272.961 295.629 258.23 371.708 257.461 376.518C256.691 381.327 248.452 382.597 247.972 376.534C247.208 366.885 245.79 333.483 247.209 318.022C247.795 311.641 248.426 305.563 249.047 300.14C241.317 314.1 229.362 334.088 213.181 360.102L204.397 356.089C211.295 333.363 216.951 317.319 221.365 307.957C228.924 291.928 236.011 278.2 238.994 273.365C243.686 265.759 251.853 268.413 256.168 273.017Z" fill="#B28B67"/>
<path fill-rule="evenodd" clip-rule="evenodd" d="M205.026 343.469L235.174 272.05C242.396 260.432 262.646 274.414 260.183 281.152C254.591 296.45 226.153 345.977 224.487 350.535L205.026 343.469Z" fill="#1F28CF"/>
<path fill-rule="evenodd" clip-rule="evenodd" d="M203.351 351.586C201.473 353.132 200.251 354.395 199.686 355.374C198.998 356.565 198.193 358.418 197.271 360.932C198.652 361.73 211.071 368.9 234.526 382.441C237.342 379.8 237.78 377.749 235.842 376.29C233.903 374.83 232.304 373.599 231.043 372.597L218.184 354.88C217.936 354.539 217.459 354.464 217.118 354.711C217.113 354.715 217.107 354.72 217.101 354.724L214.429 356.781C211.978 356.568 210.149 356.112 208.942 355.415C207.961 354.849 206.835 353.671 205.564 351.88L205.564 351.88C205.076 351.194 204.124 351.032 203.437 351.52C203.408 351.541 203.379 351.563 203.351 351.586Z" fill="#E4E4E4"/>
<path fill-rule="evenodd" clip-rule="evenodd" d="M246.043 372.663C245.189 374.941 244.763 376.645 244.763 377.776C244.763 379.151 244.992 381.158 245.45 383.797C247.046 383.797 261.385 383.797 288.468 383.797C289.586 380.101 288.941 378.106 286.532 377.811C284.124 377.517 282.123 377.251 280.53 377.013L260.536 368.099C260.151 367.928 259.7 368.101 259.528 368.486C259.525 368.492 259.523 368.499 259.52 368.505L258.235 371.623C256.005 372.663 254.193 373.184 252.799 373.184C251.667 373.184 250.102 372.726 248.107 371.811L248.107 371.811C247.341 371.46 246.436 371.796 246.084 372.562C246.069 372.595 246.055 372.629 246.043 372.663Z" fill="#E4E4E4"/>
<path fill-rule="evenodd" clip-rule="evenodd" d="M275.096 284.974C275.096 305.237 265.473 352.503 265.467 356.965L244.763 356.98C247.793 314.806 248.868 293.492 247.987 293.037C246.665 292.356 193.795 298.316 177.939 298.316C155.074 298.316 145.615 283.897 144.848 257.187H190.142C199.365 258.173 247.47 267.876 265.335 271.212C272.983 272.64 275.096 279.393 275.096 284.974Z" fill="#2B44FF"/>
<path fill-rule="evenodd" clip-rule="evenodd" d="M197.199 209.67L223.672 195.171C228.075 189.943 232.412 185.883 236.685 182.99C237.991 182.445 240.274 182.115 238.139 185.905C236.003 189.695 233.928 193.777 235.016 194.945C236.104 196.113 238.816 194.481 240.114 196.421C240.979 197.715 236.345 199.758 226.211 202.55L206.975 220.163L197.199 209.67ZM238.661 221.904L250.29 215.516C251.922 209.307 253.872 206.183 256.141 206.144C257.885 205.333 254.849 213.178 258.153 212.498C261.458 211.818 269.524 205.819 270.914 207.037C272.97 208.839 271.136 214.372 268.976 217.124C264.939 222.268 261.596 224.027 253.335 226.331C249.015 227.536 244.344 229.95 239.323 233.574L238.661 221.904Z" fill="#997659"/>
<path fill-rule="evenodd" clip-rule="evenodd" d="M184.306 206.441C193.578 206.343 205.944 204.385 219.137 196.01L224.319 207.565C215.218 216.597 202.422 224.017 191.233 223.703C182.415 223.455 177.909 212.79 184.306 206.441Z" fill="#2026A2"/>
<path fill-rule="evenodd" clip-rule="evenodd" d="M196.791 224.971C206.636 227.426 223.144 224.531 246.316 216.286C252.063 228.176 254.72 236.654 254.287 241.717C234.408 252.101 217.371 256.73 203.335 257.036C203.781 265.365 202.767 273.29 199.362 280.531C192.36 295.418 151.365 281.631 137.581 284.344C128.949 256.311 145.639 244.919 145.653 226.981C145.667 207.338 161.44 177.103 163.761 177.103H184.923C186.091 192.104 191.968 208.638 196.791 224.971Z" fill="#1F28CF"/>
</svg>
