<svg width="241" height="83" viewBox="0 0 241 83" fill="none" xmlns="http://www.w3.org/2000/svg">
<path fill-rule="evenodd" clip-rule="evenodd" d="M236.242 58.16C233.764 58.16 231.756 56.152 231.756 53.674C231.756 51.197 233.764 49.188 236.242 49.188C238.719 49.188 240.728 51.197 240.728 53.674C240.728 56.152 238.719 58.16 236.242 58.16ZM236.242 33.566C233.764 33.566 231.756 31.558 231.756 29.08C231.756 26.603 233.764 24.594 236.242 24.594C238.719 24.594 240.728 26.603 240.728 29.08C240.728 31.558 238.719 33.566 236.242 33.566ZM236.242 8.972C233.764 8.972 231.756 6.963 231.756 4.486C231.756 2.009 233.764 0 236.242 0C238.719 0 240.728 2.009 240.728 4.486C240.728 6.963 238.719 8.972 236.242 8.972ZM210.571 82.037C208.093 82.037 206.085 80.029 206.085 77.551C206.085 75.073 208.093 73.064 210.571 73.064C213.049 73.064 215.057 75.073 215.057 77.551C215.057 80.029 213.049 82.037 210.571 82.037ZM210.571 58.16C208.093 58.16 206.085 56.152 206.085 53.674C206.085 51.197 208.093 49.188 210.571 49.188C213.049 49.188 215.057 51.197 215.057 53.674C215.057 56.152 213.049 58.16 210.571 58.16ZM210.571 33.566C208.093 33.566 206.085 31.558 206.085 29.08C206.085 26.603 208.093 24.594 210.571 24.594C213.049 24.594 215.057 26.603 215.057 29.08C215.057 31.558 213.049 33.566 210.571 33.566ZM210.571 8.972C208.093 8.972 206.085 6.963 206.085 4.486C206.085 2.009 208.093 0 210.571 0C213.049 0 215.057 2.009 215.057 4.486C215.057 6.963 213.049 8.972 210.571 8.972ZM184.9 82.037C182.423 82.037 180.414 80.029 180.414 77.551C180.414 75.073 182.423 73.064 184.9 73.064C187.378 73.064 189.386 75.073 189.386 77.551C189.386 80.029 187.378 82.037 184.9 82.037ZM184.9 58.16C182.423 58.16 180.414 56.152 180.414 53.674C180.414 51.197 182.423 49.188 184.9 49.188C187.378 49.188 189.386 51.197 189.386 53.674C189.386 56.152 187.378 58.16 184.9 58.16ZM184.9 33.566C182.423 33.566 180.414 31.558 180.414 29.08C180.414 26.603 182.423 24.594 184.9 24.594C187.378 24.594 189.386 26.603 189.386 29.08C189.386 31.558 187.378 33.566 184.9 33.566ZM184.9 8.972C182.423 8.972 180.414 6.963 180.414 4.486C180.414 2.009 182.423 0 184.9 0C187.378 0 189.386 2.009 189.386 4.486C189.386 6.963 187.378 8.972 184.9 8.972ZM158.87 82.037C156.393 82.037 154.384 80.029 154.384 77.551C154.384 75.073 156.393 73.064 158.87 73.064C161.348 73.064 163.356 75.073 163.356 77.551C163.356 80.029 161.348 82.037 158.87 82.037ZM158.87 58.16C156.393 58.16 154.384 56.152 154.384 53.674C154.384 51.197 156.393 49.188 158.87 49.188C161.348 49.188 163.356 51.197 163.356 53.674C163.356 56.152 161.348 58.16 158.87 58.16ZM158.87 33.566C156.393 33.566 154.384 31.558 154.384 29.08C154.384 26.603 156.393 24.594 158.87 24.594C161.348 24.594 163.356 26.603 163.356 29.08C163.356 31.558 161.348 33.566 158.87 33.566ZM158.87 8.972C156.393 8.972 154.384 6.963 154.384 4.486C154.384 2.009 156.393 0 158.87 0C161.348 0 163.356 2.009 163.356 4.486C163.356 6.963 161.348 8.972 158.87 8.972ZM133.2 82.037C130.722 82.037 128.713 80.029 128.713 77.551C128.713 75.073 130.722 73.064 133.2 73.064C135.677 73.064 137.686 75.073 137.686 77.551C137.686 80.029 135.677 82.037 133.2 82.037ZM133.2 58.16C130.722 58.16 128.713 56.152 128.713 53.674C128.713 51.197 130.722 49.188 133.2 49.188C135.677 49.188 137.686 51.197 137.686 53.674C137.686 56.152 135.677 58.16 133.2 58.16ZM133.2 33.566C130.722 33.566 128.713 31.558 128.713 29.08C128.713 26.603 130.722 24.594 133.2 24.594C135.677 24.594 137.686 26.603 137.686 29.08C137.686 31.558 135.677 33.566 133.2 33.566ZM133.2 8.972C130.722 8.972 128.713 6.963 128.713 4.486C128.713 2.009 130.722 0 133.2 0C135.677 0 137.686 2.009 137.686 4.486C137.686 6.963 135.677 8.972 133.2 8.972ZM107.529 82.037C105.051 82.037 103.043 80.029 103.043 77.551C103.043 75.073 105.051 73.064 107.529 73.064C110.006 73.064 112.015 75.073 112.015 77.551C112.015 80.029 110.006 82.037 107.529 82.037ZM107.529 58.16C105.051 58.16 103.043 56.152 103.043 53.674C103.043 51.197 105.051 49.188 107.529 49.188C110.006 49.188 112.015 51.197 112.015 53.674C112.015 56.152 110.006 58.16 107.529 58.16ZM107.529 33.566C105.051 33.566 103.043 31.558 103.043 29.08C103.043 26.603 105.051 24.594 107.529 24.594C110.006 24.594 112.015 26.603 112.015 29.08C112.015 31.558 110.006 33.566 107.529 33.566ZM107.529 8.972C105.051 8.972 103.043 6.963 103.043 4.486C103.043 2.009 105.051 0 107.529 0C110.006 0 112.015 2.009 112.015 4.486C112.015 6.963 110.006 8.972 107.529 8.972ZM81.858 82.037C79.38 82.037 77.372 80.029 77.372 77.551C77.372 75.073 79.38 73.064 81.858 73.064C84.335 73.064 86.344 75.073 86.344 77.551C86.344 80.029 84.335 82.037 81.858 82.037ZM81.858 58.16C79.38 58.16 77.372 56.152 77.372 53.674C77.372 51.197 79.38 49.188 81.858 49.188C84.335 49.188 86.344 51.197 86.344 53.674C86.344 56.152 84.335 58.16 81.858 58.16ZM81.858 33.566C79.38 33.566 77.372 31.558 77.372 29.08C77.372 26.603 79.38 24.594 81.858 24.594C84.335 24.594 86.344 26.603 86.344 29.08C86.344 31.558 84.335 33.566 81.858 33.566ZM81.858 8.972C79.38 8.972 77.372 6.963 77.372 4.486C77.372 2.009 79.38 0 81.858 0C84.335 0 86.344 2.009 86.344 4.486C86.344 6.963 84.335 8.972 81.858 8.972ZM56.187 82.037C53.709 82.037 51.701 80.029 51.701 77.551C51.701 75.073 53.709 73.064 56.187 73.064C58.665 73.064 60.673 75.073 60.673 77.551C60.673 80.029 58.665 82.037 56.187 82.037ZM56.187 58.16C53.709 58.16 51.701 56.152 51.701 53.674C51.701 51.197 53.709 49.188 56.187 49.188C58.665 49.188 60.673 51.197 60.673 53.674C60.673 56.152 58.665 58.16 56.187 58.16ZM56.187 33.566C53.709 33.566 51.701 31.558 51.701 29.08C51.701 26.603 53.709 24.594 56.187 24.594C58.665 24.594 60.673 26.603 60.673 29.08C60.673 31.558 58.665 33.566 56.187 33.566ZM56.187 8.972C53.709 8.972 51.701 6.963 51.701 4.486C51.701 2.009 53.709 0 56.187 0C58.665 0 60.673 2.009 60.673 4.486C60.673 6.963 58.665 8.972 56.187 8.972ZM30.157 82.037C27.68 82.037 25.671 80.029 25.671 77.551C25.671 75.073 27.68 73.064 30.157 73.064C32.635 73.064 34.643 75.073 34.643 77.551C34.643 80.029 32.635 82.037 30.157 82.037ZM30.157 58.16C27.68 58.16 25.671 56.152 25.671 53.674C25.671 51.197 27.68 49.188 30.157 49.188C32.635 49.188 34.643 51.197 34.643 53.674C34.643 56.152 32.635 58.16 30.157 58.16ZM30.157 33.566C27.68 33.566 25.671 31.558 25.671 29.08C25.671 26.603 27.68 24.594 30.157 24.594C32.635 24.594 34.643 26.603 34.643 29.08C34.643 31.558 32.635 33.566 30.157 33.566ZM30.157 8.972C27.68 8.972 25.671 6.963 25.671 4.486C25.671 2.009 27.68 0 30.157 0C32.635 0 34.643 2.009 34.643 4.486C34.643 6.963 32.635 8.972 30.157 8.972ZM4.486 82.037C2.009 82.037 0 80.029 0 77.551C0 75.073 2.009 73.064 4.486 73.064C6.964 73.064 8.972 75.073 8.972 77.551C8.972 80.029 6.964 82.037 4.486 82.037ZM4.486 58.16C2.009 58.16 0 56.152 0 53.674C0 51.197 2.009 49.188 4.486 49.188C6.964 49.188 8.972 51.197 8.972 53.674C8.972 56.152 6.964 58.16 4.486 58.16ZM4.486 33.566C2.009 33.566 0 31.558 0 29.08C0 26.603 2.009 24.594 4.486 24.594C6.964 24.594 8.972 26.603 8.972 29.08C8.972 31.558 6.964 33.566 4.486 33.566ZM4.486 8.972C2.009 8.972 0 6.963 0 4.486C0 2.009 2.009 0 4.486 0C6.964 0 8.972 2.009 8.972 4.486C8.972 6.963 6.964 8.972 4.486 8.972ZM236.242 73.064C238.719 73.064 240.728 75.073 240.728 77.551C240.728 80.029 238.719 82.037 236.242 82.037C233.764 82.037 231.756 80.029 231.756 77.551C231.756 75.073 233.764 73.064 236.242 73.064Z" fill="#959595"/>
</svg>
