<svg width="98" height="98" viewBox="0 0 98 98" fill="none" xmlns="http://www.w3.org/2000/svg">
<circle cx="49" cy="49" r="49" fill="#F3B601"/>
<mask id="mask0_0_1" style="mask-type:alpha" maskUnits="userSpaceOnUse" x="19" y="19" width="60" height="60">
<rect x="19" y="19" width="60" height="60" fill="#D9D9D9"/>
</mask>
<g mask="url(#mask0_0_1)">
<path d="M64 76.5V69H56.5V64H64V56.5H69V64H76.5V69H69V76.5H64ZM24 69V54H21.5V49L24 36.5H61.5L64 49V54H61.5V61.5H56.5V54H46.5V69H24ZM29 64H41.5V54H29V64ZM24 34V29H61.5V34H24ZM26.625 49H58.875L57.375 41.5H28.125L26.625 49Z" fill="#1C1B1F"/>
</g>
</svg>
