<svg width="98" height="98" viewBox="0 0 98 98" fill="none" xmlns="http://www.w3.org/2000/svg">
<circle cx="49" cy="49" r="49" fill="#F3B601"/>
<mask id="mask0_0_1" style="mask-type:alpha" maskUnits="userSpaceOnUse" x="19" y="19" width="60" height="60">
<rect x="19" y="19" width="60" height="60" fill="#D9D9D9"/>
</mask>
<g mask="url(#mask0_0_1)">
<path d="M34 59H54V57.625C54 55.7917 53.0833 54.3125 51.25 53.1875C49.4167 52.0625 47 51.5 44 51.5C41 51.5 38.5833 52.0625 36.75 53.1875C34.9167 54.3125 34 55.7917 34 57.625V59ZM44 49C45.375 49 46.5525 48.51 47.5325 47.53C48.5108 46.5517 49 45.375 49 44C49 42.625 48.5108 41.4475 47.5325 40.4675C46.5525 39.4892 45.375 39 44 39C42.625 39 41.4483 39.4892 40.47 40.4675C39.49 41.4475 39 42.625 39 44C39 45.375 39.49 46.5517 40.47 47.53C41.4483 48.51 42.625 49 44 49ZM29 69C27.625 69 26.4483 68.5108 25.47 67.5325C24.49 66.5525 24 65.375 24 64V34C24 32.625 24.49 31.4483 25.47 30.47C26.4483 29.49 27.625 29 29 29H59C60.375 29 61.5525 29.49 62.5325 30.47C63.5108 31.4483 64 32.625 64 34V45.25L74 35.25V62.75L64 52.75V64C64 65.375 63.5108 66.5525 62.5325 67.5325C61.5525 68.5108 60.375 69 59 69H29ZM29 64H59V34H29V64Z" fill="white"/>
</g>
</svg>
