<svg width="98" height="98" viewBox="0 0 98 98" fill="none" xmlns="http://www.w3.org/2000/svg">
<circle cx="49" cy="49" r="49" fill="#F3B601"/>
<mask id="mask0_0_1" style="mask-type:alpha" maskUnits="userSpaceOnUse" x="19" y="14" width="60" height="60">
<rect x="19" y="14" width="60" height="60" fill="#D9D9D9"/>
</mask>
<g mask="url(#mask0_0_1)">
<path d="M21.5 64V54C21.5 52.5833 21.99 51.3958 22.97 50.4375C23.9483 49.4792 25.125 49 26.5 49H34.6875C35.5208 49 36.3125 49.2083 37.0625 49.625C37.8125 50.0417 38.4167 50.6042 38.875 51.3125C40.0833 52.9375 41.5733 54.2083 43.345 55.125C45.115 56.0417 47 56.5 49 56.5C51.0417 56.5 52.9483 56.0417 54.72 55.125C56.49 54.2083 57.9583 52.9375 59.125 51.3125C59.6667 50.6042 60.3017 50.0417 61.03 49.625C61.76 49.2083 62.5208 49 63.3125 49H71.5C72.9167 49 74.1042 49.4792 75.0625 50.4375C76.0208 51.3958 76.5 52.5833 76.5 54V64H59V58.3125C57.5417 59.3542 55.9692 60.1458 54.2825 60.6875C52.5942 61.2292 50.8333 61.5 49 61.5C47.2083 61.5 45.4583 61.2192 43.75 60.6575C42.0417 60.0942 40.4583 59.2917 39 58.25V64H21.5ZM49 54C47.4167 54 45.9167 53.635 44.5 52.905C43.0833 52.1767 41.8958 51.1667 40.9375 49.875C40.2292 48.8333 39.3442 48.0108 38.2825 47.4075C37.2192 46.8025 36.0625 46.5 34.8125 46.5C35.7292 44.9583 37.6667 43.7392 40.625 42.8425C43.5833 41.9475 46.375 41.5 49 41.5C51.625 41.5 54.4167 41.9475 57.375 42.8425C60.3333 43.7392 62.2708 44.9583 63.1875 46.5C61.9792 46.5 60.8333 46.8025 59.75 47.4075C58.6667 48.0108 57.7708 48.8333 57.0625 49.875C56.1458 51.2083 54.9792 52.2292 53.5625 52.9375C52.1458 53.6458 50.625 54 49 54ZM29 46.5C26.9167 46.5 25.1458 45.7708 23.6875 44.3125C22.2292 42.8542 21.5 41.0833 21.5 39C21.5 36.875 22.2292 35.0933 23.6875 33.655C25.1458 32.2183 26.9167 31.5 29 31.5C31.125 31.5 32.9067 32.2183 34.345 33.655C35.7817 35.0933 36.5 36.875 36.5 39C36.5 41.0833 35.7817 42.8542 34.345 44.3125C32.9067 45.7708 31.125 46.5 29 46.5ZM69 46.5C66.9167 46.5 65.1458 45.7708 63.6875 44.3125C62.2292 42.8542 61.5 41.0833 61.5 39C61.5 36.875 62.2292 35.0933 63.6875 33.655C65.1458 32.2183 66.9167 31.5 69 31.5C71.125 31.5 72.9067 32.2183 74.345 33.655C75.7817 35.0933 76.5 36.875 76.5 39C76.5 41.0833 75.7817 42.8542 74.345 44.3125C72.9067 45.7708 71.125 46.5 69 46.5ZM49 39C46.9167 39 45.1458 38.2708 43.6875 36.8125C42.2292 35.3542 41.5 33.5833 41.5 31.5C41.5 29.375 42.2292 27.5933 43.6875 26.155C45.1458 24.7183 46.9167 24 49 24C51.125 24 52.9058 24.7183 54.3425 26.155C55.7808 27.5933 56.5 29.375 56.5 31.5C56.5 33.5833 55.7808 35.3542 54.3425 36.8125C52.9058 38.2708 51.125 39 49 39Z" fill="#1C1B1F"/>
</g>
</svg>
