<?xml version="1.0" encoding="UTF-8" ?>
<!DOCTYPE svg PUBLIC "-//W3C//DTD SVG 1.1//EN" "http://www.w3.org/Graphics/SVG/1.1/DTD/svg11.dtd">
<svg width="304pt" height="214pt" viewBox="0 0 304 214" version="1.1" xmlns="http://www.w3.org/2000/svg">
<g id="#ffffffff">
</g>
<g id="#9e9e9eff">
<path fill="#9e9e9e" opacity="1.00" d=" M 16.37 5.43 C 22.83 1.35 30.71 1.98 38.00 2.01 C 96.35 2.03 154.70 2.02 213.05 2.01 C 228.56 1.53 242.88 15.41 242.89 30.92 C 243.07 48.02 242.58 65.13 243.11 82.22 C 263.93 66.33 283.24 48.44 304.00 32.44 L 304.00 183.57 C 283.14 167.70 263.93 149.67 243.07 133.81 C 242.56 151.56 243.19 169.34 242.79 187.09 C 241.65 200.49 230.45 211.45 217.48 214.00 L 25.51 214.00 C 12.11 211.31 1.90 199.84 0.00 186.42 L 0.00 29.58 C 1.54 19.60 7.32 10.22 16.37 5.43 M 30.91 32.08 C 30.49 82.67 30.50 133.33 30.91 183.92 C 91.53 184.03 152.17 184.20 212.78 183.84 C 212.78 133.29 212.53 82.75 212.72 32.20 C 152.13 31.75 91.51 32.00 30.91 32.08 Z" />
</g>
</svg>
