<?xml version="1.0" encoding="UTF-8" ?>
<!DOCTYPE svg PUBLIC "-//W3C//DTD SVG 1.1//EN" "http://www.w3.org/Graphics/SVG/1.1/DTD/svg11.dtd">
<svg width="350pt" height="350pt" viewBox="0 0 350 350" version="1.1" xmlns="http://www.w3.org/2000/svg">
<g id="#ffffffff">
</g>
<g id="#b6b6b6ff">
<path fill="#b6b6b6" opacity="1.00" d=" M 168.41 29.61 C 186.03 26.68 204.85 35.95 213.26 51.70 C 219.98 63.56 220.63 78.59 214.91 90.96 C 209.02 104.00 196.41 113.78 182.30 116.16 C 159.88 120.45 136.44 104.23 132.13 81.91 C 126.52 58.27 144.31 32.64 168.41 29.61 Z" />
<path fill="#b6b6b6" opacity="1.00" d=" M 39.43 117.41 C 45.86 115.93 52.53 116.97 59.04 117.26 C 97.39 120.37 135.81 128.12 170.96 144.15 C 176.71 147.02 182.25 142.33 187.49 140.45 C 221.58 126.38 258.30 119.69 294.94 116.99 C 301.88 116.86 310.03 115.28 315.79 120.17 C 320.90 124.52 321.00 131.78 321.00 137.96 C 320.81 177.97 320.97 217.99 320.91 258.00 C 320.81 264.57 321.42 271.19 320.53 277.73 C 319.75 284.37 313.72 289.73 307.05 289.86 C 263.85 290.10 221.18 301.32 181.96 319.06 C 177.32 321.24 171.94 321.00 167.36 318.79 C 132.93 302.91 95.64 293.03 57.81 290.37 C 50.81 289.64 43.30 291.21 36.71 288.21 C 31.21 285.36 28.88 278.96 29.06 273.06 C 29.14 226.70 29.10 180.34 29.09 133.99 C 28.76 127.06 32.11 119.15 39.43 117.41 M 58.28 146.90 C 58.44 184.88 58.26 222.87 58.37 260.85 C 93.24 263.45 127.51 271.45 160.17 283.84 C 160.42 246.28 160.55 208.71 160.11 171.17 C 134.15 159.01 105.93 152.52 77.67 148.46 C 71.26 147.45 64.77 146.94 58.28 146.90 M 258.50 150.66 C 234.97 154.82 211.59 160.99 189.88 171.13 C 189.47 208.68 189.59 246.26 189.82 283.82 C 222.52 271.53 256.78 263.43 291.65 260.80 C 291.72 222.84 291.56 184.88 291.72 146.91 C 280.54 146.81 269.51 148.93 258.50 150.66 Z" />
</g>
</svg>
