<svg width="837" height="500" viewBox="0 0 837 500" fill="none" xmlns="http://www.w3.org/2000/svg">
<path fill-rule="evenodd" clip-rule="evenodd" d="M65 31H781.895C795.149 31 805.895 41.745 805.895 55V475.821C805.895 489.076 795.149 499.821 781.895 499.821H65C51.745 499.821 41 489.076 41 475.821V55C41 41.745 51.745 31 65 31Z" fill="#EEEEEE"/>
<path fill-rule="evenodd" clip-rule="evenodd" d="M24 0H812.184C825.439 0 836.184 10.744 836.184 23.999V444.82C836.184 458.075 825.439 468.82 812.184 468.82H24C10.745 468.82 0 458.075 0 444.82V23.999C0 10.744 10.745 0 24 0Z" fill="#F6F6F6"/>
</svg>
