<svg width="597" height="502" viewBox="0 0 597 502" fill="none" xmlns="http://www.w3.org/2000/svg">
<path opacity="0.05" d="M235.365 126.185V128.398C235.291 141.975 233.926 152.858 231.27 161.048C228.613 169.164 224.85 175.731 219.98 180.749C215.111 185.692 209.245 190.304 202.383 194.583C198.03 197.24 194.045 200.339 190.43 203.88C186.888 207.422 184.084 211.443 182.018 215.944C179.952 220.371 178.919 225.352 178.919 230.885C178.919 237.378 180.469 243.023 183.568 247.819C186.667 252.689 190.762 256.415 195.853 258.997C201.018 261.654 206.736 262.982 213.008 262.982C218.689 262.982 224.112 261.764 229.277 259.329C234.442 256.968 238.722 253.316 242.116 248.372C245.584 243.429 247.539 237.046 247.982 229.225H281.628C281.185 242.507 277.828 253.722 271.556 262.871C265.358 272.02 257.131 278.956 246.875 283.678C236.693 288.474 225.404 290.872 213.008 290.872C199.431 290.872 187.552 288.327 177.37 283.236C167.188 278.218 159.256 271.172 153.574 262.096C147.967 253.021 145.163 242.507 145.163 230.553C145.163 222.216 146.454 214.763 149.036 208.197C151.619 201.556 155.308 195.653 160.104 190.488C164.9 185.323 170.582 180.749 177.148 176.764C183.42 172.928 188.474 168.906 192.311 164.701C196.222 160.421 199.063 155.441 200.833 149.759C202.604 144.004 203.563 136.884 203.711 128.398V126.185H235.365ZM218.652 58.8932C224.703 58.8932 229.905 61.0699 234.258 65.4232C238.611 69.7765 240.788 74.9783 240.788 81.0286C240.788 87.079 238.611 92.2808 234.258 96.6341C229.905 100.987 224.703 103.164 218.652 103.164C212.676 103.164 207.474 100.987 203.047 96.6341C198.694 92.2808 196.517 87.079 196.517 81.0286C196.517 76.9705 197.513 73.2812 199.505 69.9609C201.571 66.6406 204.264 63.9844 207.585 61.9922C210.979 59.9262 214.668 58.8932 218.652 58.8932ZM352.184 164.811V162.708C352.332 148.984 353.697 138.064 356.279 129.948C358.936 121.832 362.699 115.265 367.568 110.247C372.438 105.23 378.304 100.655 385.166 96.5234C389.593 93.7196 393.577 90.5838 397.119 87.1159C400.661 83.648 403.465 79.6636 405.531 75.1627C407.597 70.6619 408.63 65.6814 408.63 60.2213C408.63 53.6545 407.08 47.9731 403.981 43.1771C400.882 38.3811 396.75 34.6918 391.585 32.1094C386.494 29.4531 380.813 28.125 374.541 28.125C368.86 28.125 363.436 29.3055 358.271 31.6667C353.107 34.0278 348.827 37.717 345.433 42.7344C342.039 47.6779 340.084 54.0603 339.567 61.8815H305.921C306.438 48.6002 309.795 37.385 315.993 28.2357C322.191 19.0126 330.381 12.0399 340.563 7.31768C350.819 2.59546 362.145 0.234352 374.541 0.234352C388.117 0.234352 399.997 2.77993 410.179 7.87108C420.361 12.8884 428.256 19.9349 433.864 29.0104C439.545 38.0121 442.386 48.5265 442.386 60.5534C442.386 68.8173 441.095 76.2695 438.512 82.9101C435.93 89.477 432.241 95.3429 427.445 100.508C422.722 105.673 417.041 110.247 410.4 114.232C404.129 118.142 399.038 122.201 395.127 126.406C391.29 130.612 388.486 135.592 386.716 141.348C384.945 147.103 383.985 154.223 383.838 162.708V164.811H352.184ZM368.896 232.103C362.846 232.103 357.644 229.963 353.291 225.684C348.938 221.33 346.761 216.092 346.761 209.967C346.761 203.917 348.938 198.752 353.291 194.473C357.644 190.119 362.846 187.943 368.896 187.943C374.873 187.943 380.038 190.119 384.391 194.473C388.818 198.752 391.032 203.917 391.032 209.967C391.032 214.026 389.999 217.752 387.933 221.146C385.941 224.466 383.285 227.122 379.964 229.115C376.644 231.107 372.955 232.103 368.896 232.103Z" fill="black"/>
<path fill-rule="evenodd" clip-rule="evenodd" d="M499.163 247.126C497.238 273.297 373.23 350.348 372.506 352.51C372.185 353.471 385.051 383.844 411.106 443.628L400.265 447.824C360.302 384.508 341.347 349.477 343.4 342.73C346.338 333.071 378.411 301.296 439.617 247.405L499.163 247.126Z" fill="#B28B67"/>
<path fill-rule="evenodd" clip-rule="evenodd" d="M408.253 430.127L390.554 436.545C353.235 394.6 338.606 359.991 341.274 342.358C343.052 330.602 375.013 298.88 437.159 247.191L500.432 247.191C498.273 307.799 383.333 352.742 381.796 355.324C380.258 357.907 395.388 383.203 408.253 430.127Z" fill="#2F3676"/>
<path fill-rule="evenodd" clip-rule="evenodd" d="M415.122 441.627C417.335 444.214 418.712 446.252 419.253 447.739C419.912 449.548 420.571 452.298 421.232 455.988C419.133 456.752 400.273 463.616 364.65 476.582C361.41 472.256 361.304 469.323 364.331 467.782C367.358 466.242 369.862 464.934 371.844 463.859L393.875 442.563C394.299 442.153 394.975 442.165 395.385 442.589C395.392 442.596 395.399 442.603 395.405 442.611L398.588 446.096C402.019 446.397 404.651 446.214 406.485 445.546C407.974 445.004 409.813 443.654 412 441.495L412 441.495C412.839 440.667 414.191 440.675 415.019 441.515C415.055 441.551 415.089 441.588 415.122 441.627Z" fill="#E4E4E4"/>
<path fill-rule="evenodd" clip-rule="evenodd" d="M484.905 247.127L540.148 379.236L594.442 490.923H581.632L441.483 247.127H484.905Z" fill="#997659"/>
<path fill-rule="evenodd" clip-rule="evenodd" d="M595.208 485.871C596.403 489.059 597 491.445 597 493.027C597 494.953 596.679 497.762 596.038 501.455C593.805 501.455 573.734 501.455 535.825 501.455C534.26 496.282 535.163 493.49 538.535 493.077C541.906 492.665 544.706 492.292 546.936 491.96L574.923 479.483C575.461 479.243 576.092 479.485 576.332 480.024C576.336 480.033 576.34 480.042 576.344 480.052L578.143 484.415C581.264 485.872 583.8 486.6 585.751 486.6C587.337 486.6 589.526 485.959 592.319 484.679L592.319 484.679C593.391 484.187 594.659 484.658 595.15 485.73C595.171 485.776 595.191 485.823 595.208 485.871Z" fill="#E4E4E4"/>
<path fill-rule="evenodd" clip-rule="evenodd" d="M589.539 467.721L561.075 473.039C539.067 440.808 446.962 308.649 436.864 247.127H500.231C533.955 291.602 568.561 434.957 589.539 467.721Z" fill="#5C63AB"/>
<path fill-rule="evenodd" clip-rule="evenodd" d="M465.142 118.572C468.531 111.829 470.064 104.218 467.623 96.7268C460.59 75.1429 430.936 87.6703 427.699 100.256C424.461 112.842 432.188 140.794 440.44 140.842C443.73 140.861 449.838 137.281 455.547 131.601L458.698 162.174L483.558 155.976L465.142 118.572Z" fill="#B28B67"/>
<path fill-rule="evenodd" clip-rule="evenodd" d="M426.593 105.821C426.48 104.322 426.684 102.576 426.831 101.095C427.02 99.1857 427.573 97.3688 428.244 95.6191C429.508 92.325 431.231 89.2052 433.307 86.4548C437.099 81.4311 442.593 77.709 448.717 76.946C451.809 76.5607 455.006 76.9691 457.957 78.2396C460.623 79.3875 463.405 81.3624 466.351 80.8195C469.557 80.2286 471.762 76.7452 473.869 74.4082C476.244 71.7734 478.932 69.615 482.133 68.2385C487.495 65.9327 493.212 66.4953 498.198 70.0801C503.503 73.8948 508.251 80.2451 507.157 87.325C506.954 88.6411 506.56 89.8059 505.844 90.8687C505.187 91.8432 504.095 92.978 504.056 94.2833C504.014 95.6707 505.521 97.0715 506.236 98.1359C507.259 99.6609 508.195 101.296 508.472 103.162C508.928 106.226 507.743 109.555 506.23 112.021C504.691 114.53 502.468 116.303 499.921 117.5C498.22 118.299 496.44 118.95 494.589 119.271C493.669 119.43 492.811 119.38 491.887 119.4C490.989 119.42 490.569 119.763 489.963 120.405C487.146 123.388 483.749 125.118 479.799 125.764C476.465 126.308 472.504 126.463 469.286 124.909C465.713 123.183 464.924 119.77 464.716 115.967C464.068 116.513 462.083 117.247 462.943 115.498C463.283 114.805 464.138 114.345 464.674 113.854C465.298 113.282 465.905 112.593 466.306 111.814C467.926 108.669 464.331 103.987 461.27 103.831C456.723 103.599 457.254 109.76 454.618 112.045C453.103 113.358 450.988 112.606 449.382 111.701C447.23 110.487 445.499 108.601 443.921 106.635C442.621 105.016 441.373 103.357 440.059 101.752C439.445 101.002 437.456 98.9464 437.915 97.8113C434.738 97.9677 431.677 100.055 429.477 102.341C428.568 103.285 427.932 104.236 427.655 105.572C427.596 105.859 427.517 106.686 427.188 106.801C426.576 107.015 426.621 106.198 426.593 105.821Z" fill="#191847"/>
<path fill-rule="evenodd" clip-rule="evenodd" d="M397.338 237.886L363.723 263.36C354.532 266 346.871 269.22 340.739 273.019C339.299 274.371 337.577 277.09 343.639 276.519C349.7 275.949 356.102 275.62 356.975 277.665C357.849 279.711 354.219 282.239 355.96 284.989C357.121 286.822 362.372 282.083 371.714 270.77L405.188 256.269L397.338 237.886ZM528.082 236.463L505.777 236.939C520.322 280.941 528.168 304.286 529.313 306.974C531.889 313.022 526.824 322.39 524.676 327.414C532.012 330.528 531.027 318.537 540.285 322.628C548.734 326.362 555.233 333.282 564.814 327.167C565.992 326.415 567.248 323.64 564.058 321.544C556.111 316.323 544.63 307.142 543.047 304.081C540.888 299.908 535.899 277.368 528.082 236.463Z" fill="#B28B67"/>
<path fill-rule="evenodd" clip-rule="evenodd" d="M463.066 144.43L453.809 143.016C420.076 173.052 406.997 229.851 365.543 260.543L375.864 272.829C448.53 262.585 465.376 193.288 463.066 144.43Z" fill="#E87613"/>
<path fill-rule="evenodd" clip-rule="evenodd" d="M505.317 259.15C468.308 259.796 441.085 260.271 423.648 260.575C419.916 260.64 420.525 255.266 421.018 252.551C426.699 221.214 450.415 187.128 449.639 142.676L473.132 138.589C493.161 169.432 500.57 207.707 505.317 259.15Z" fill="#DDE3E9"/>
<path fill-rule="evenodd" clip-rule="evenodd" d="M503.082 168.728C506.486 167.69 509.156 165.36 511.091 161.739C519.431 146.129 516.173 137.671 506.922 135.034C497.672 132.397 489.567 138.303 474.906 138.559C474.109 138.573 473.379 138.635 472.718 138.746L465.35 139.294C445.437 211.019 440.433 258.728 450.337 282.422L514.617 281.3C518.58 290.07 522.354 297.442 525.94 303.414L543.455 303.108C544.177 250.043 530.72 205.25 503.082 168.728Z" fill="#FF9B21"/>
<path fill-rule="evenodd" clip-rule="evenodd" d="M499.98 244.898C498.252 261.764 495.179 274.037 490.762 281.716L514.617 281.3C509.994 271.07 505.115 258.935 499.98 244.898Z" fill="black" fill-opacity="0.1"/>
<path fill-rule="evenodd" clip-rule="evenodd" d="M132.887 106.776C127.896 100.917 124.518 93.7365 125.082 85.691C126.709 62.5095 158.978 67.6091 165.255 79.3091C171.532 91.0092 170.786 120.687 162.674 122.778C159.439 123.612 152.547 121.57 145.532 117.342L149.935 148.49H123.938L132.887 106.776Z" fill="#B28B67"/>
<path fill-rule="evenodd" clip-rule="evenodd" d="M176.772 63.0896C176.234 61.1973 174.786 59.5771 172.834 59.0964C172.361 58.9798 171.873 58.9327 171.386 58.9523C171.211 58.9593 171.162 59.0097 171.08 58.8875C171.02 58.797 171.018 58.5757 170.993 58.4693C170.916 58.1384 170.819 57.8116 170.699 57.4932C170.291 56.4075 169.605 55.4465 168.778 54.6371C167.23 53.1227 165.14 52.0775 162.968 51.8885C161.779 51.785 160.599 51.9782 159.475 52.3649C158.893 52.565 158.329 52.8143 157.78 53.0899C157.614 53.1728 157.077 53.5791 156.911 53.5528C156.728 53.5238 156.359 53.0681 156.21 52.9537C154.367 51.5397 152.091 50.9837 149.796 51.0004C147.205 51.0199 144.71 51.1493 142.549 52.7289C142.091 53.0633 141.656 53.4294 141.241 53.8149C141.022 54.0179 140.811 54.2285 140.609 54.4478C140.487 54.5801 140.369 54.7154 140.255 54.8543C140.061 55.0901 140.092 55.1676 139.821 55.0031C138.781 54.3712 137.576 54.0757 136.362 54.2249C135.641 54.3135 134.94 54.5299 134.274 54.8148C134.047 54.9117 133.522 55.2985 133.281 55.3023C133.041 55.306 132.524 54.9474 132.277 54.8563C130.943 54.364 129.505 54.2426 128.104 54.4701C126.658 54.7049 125.237 55.2818 124.012 56.079C123.423 56.4625 122.909 56.8874 122.496 57.4577C122.317 57.7039 122.156 57.9643 121.954 58.1926C121.836 58.3263 121.601 58.4634 121.538 58.6326C121.576 58.5313 119.957 57.907 119.804 57.8671C118.99 57.6544 118.161 57.6975 117.363 57.9599C115.864 58.4532 114.575 59.5596 113.516 60.6938C112.971 61.2765 112.495 61.9205 112.091 62.6066C111.897 62.9352 111.72 63.2733 111.558 63.6185C111.479 63.7858 111.427 63.995 111.324 64.1456C111.19 64.3398 111.101 64.3435 110.859 64.4281C109.632 64.8579 108.514 65.5855 107.662 66.5685C106.801 67.5631 106.242 68.7879 106.007 70.0777C105.994 70.1536 105.985 70.4685 105.941 70.5096C105.88 70.5662 105.633 70.5412 105.54 70.5521C105.217 70.5901 104.896 70.6465 104.579 70.7214C103.995 70.8596 103.427 71.0629 102.89 71.3288C100.795 72.3654 99.2967 74.3086 98.5635 76.4952C97.7941 78.79 97.8078 81.419 98.7273 83.6709C98.8758 84.0347 99.0526 84.3877 99.2602 84.7217C99.3876 84.9267 99.4288 84.9272 99.346 85.1423C99.2537 85.3817 99.0852 85.6142 98.9757 85.848C98.6183 86.6111 98.3684 87.4205 98.2106 88.2471C97.9517 89.603 97.8234 91.028 98.0788 92.3942C98.1974 93.0286 98.404 93.6488 98.7193 94.2139C98.8801 94.502 99.0682 94.7752 99.2805 95.028C99.3908 95.1592 99.5079 95.2845 99.6304 95.4046C99.7004 95.4732 99.7922 95.5332 99.8518 95.6099C99.9972 95.7967 100.028 95.6431 99.9528 95.9174C99.8479 96.3009 99.6103 96.6793 99.4648 97.0525C99.3148 97.437 99.1793 97.8269 99.0553 98.2205C98.8042 99.0177 98.5919 99.8293 98.4592 100.655C98.2042 102.24 98.249 103.929 98.9987 105.383C99.3193 106.006 99.7792 106.552 100.337 106.976C100.61 107.184 100.906 107.363 101.216 107.51C101.375 107.586 101.579 107.618 101.651 107.772C101.73 107.938 101.614 108.267 101.587 108.452C101.357 110.065 101.241 111.757 101.72 113.337C102.162 114.792 103.133 116.077 104.395 116.927C106.843 118.577 110.142 118.484 112.714 117.163C113.384 116.819 114.012 116.392 114.571 115.887C115.996 117.805 118.927 117.744 121.01 117.198C123.604 116.517 125.685 114.713 126.885 112.343C128.525 114.34 131.966 113.692 133.103 111.526C133.382 110.996 133.547 110.412 133.628 109.821C133.671 109.51 133.644 109.196 133.676 108.888C133.717 108.495 133.979 108.113 134.13 107.733C134.424 106.993 134.606 106.229 134.614 105.431C134.618 105.014 134.566 104.608 134.526 104.195C134.49 103.823 134.593 103.476 134.652 103.109C133.987 103.219 133.176 103.039 132.549 102.846C131.934 102.657 131.358 102.158 130.924 101.703C129.916 100.646 129.3 99.2596 128.879 97.88C127.954 94.8521 128.333 91.2193 131.379 89.5576C132.798 88.7834 137.048 88.786 138.738 89.1686C140.515 89.5709 142.529 93.4913 142.628 93.8598C142.689 94.0879 142.658 94.3701 142.868 94.5221C143.328 94.8562 144.088 94.2764 144.427 93.9902C145.013 93.4963 145.431 92.8391 145.793 92.173C146.582 90.7218 147.218 89.1655 147.667 87.5768C148.014 86.352 148.235 85.0889 148.688 83.8953C149.138 82.7076 149.848 81.646 150.953 80.9732C152.154 80.2413 153.53 79.8558 154.849 79.3958C156.156 78.94 157.44 78.3828 158.453 77.4155C158.676 77.2028 158.892 76.9768 159.071 76.7264C159.213 76.5287 159.353 76.1503 159.569 76.025C159.904 75.83 160.393 76.337 160.683 76.5211C162.113 77.4296 163.307 78.6965 164.269 80.0806C165.226 81.4571 166.012 82.7816 166.65 84.3186C167.123 85.4586 167.419 86.9186 168.251 87.8528C168.623 88.27 171.386 88.5223 172.28 88.1581C173.175 87.794 174.178 86.8483 174.479 86.2556C174.786 85.6491 174.86 84.9827 174.728 84.3186C174.651 83.928 174.493 83.563 174.407 83.1793C174.334 82.857 174.268 82.5523 174.111 82.257C173.814 81.6974 173.306 81.2952 172.693 81.1271C173.331 80.5393 173.859 79.8361 174.225 79.05C174.604 78.2333 174.926 77.2402 175.018 76.3439C175.092 75.6158 174.977 74.8616 174.579 74.2359C174.161 73.5796 173.42 73.1514 172.779 72.742C173.758 71.9762 174.596 71.0448 175.285 70.0136C176.624 68.0082 177.453 65.4804 176.772 63.0896Z" fill="#191847"/>
<path fill-rule="evenodd" clip-rule="evenodd" d="M115.283 238.423L167.366 376.238L203.873 477.815H224.689L174.507 238.423L115.283 238.423Z" fill="#1F28CF"/>
<path fill-rule="evenodd" clip-rule="evenodd" d="M102.411 238.423C101.844 285.71 102.254 349.375 100.935 352.322C100.055 354.287 72.7023 376.677 18.876 419.492L29.6053 437.736C93.5095 396.526 127.095 373.175 130.362 367.685C135.263 359.449 159.884 283.662 172.694 238.423H102.411Z" fill="#2B44FF"/>
<path fill-rule="evenodd" clip-rule="evenodd" d="M2.94691e-05 431.769L18.1221 417.977L32.744 435.403C33.8687 448.54 38.2182 463.273 45.7925 479.602L42.4733 482.387L16.0145 450.855L8.62246 438.675L6.96286 440.067L2.94691e-05 431.769Z" fill="#191847"/>
<path fill-rule="evenodd" clip-rule="evenodd" d="M201.941 497.313L203.024 474.565H225.772C236.558 482.148 250.64 488.286 268.018 492.98V497.313H226.855L212.773 495.147V497.313H201.941Z" fill="#191847"/>
<path fill-rule="evenodd" clip-rule="evenodd" d="M208.437 195.417L251.206 189.583C259.762 184.824 267.632 181.603 274.818 179.918C276.84 179.859 280.057 180.594 275.265 184.589C270.473 188.584 265.61 193.004 266.464 195.136C267.318 197.268 271.775 196.475 272.513 199.754C273.005 201.94 265.772 202.296 250.814 200.82L216.111 214.578L208.437 195.417ZM74.085 205.316L97.8048 205.405C71.7954 263.936 58.2337 294.582 57.1197 297.343C54.6132 303.554 59.9173 313.015 62.1855 318.099C54.7979 321.405 55.5851 309.162 46.2658 313.498C37.7595 317.455 31.2889 324.626 21.4611 318.562C20.2529 317.816 18.9288 315.009 22.1279 312.815C30.098 307.35 41.5834 297.786 43.1353 294.637C45.2515 290.344 55.5681 260.57 74.085 205.316Z" fill="#997659"/>
<path fill-rule="evenodd" clip-rule="evenodd" d="M139.056 130.087L157.628 131.324C162.202 172.704 187.116 198.842 242.896 189.993L250.306 243.282C198.171 250.02 152.449 229.147 143.078 172.634C140.652 158.005 138.737 142.78 139.056 130.087Z" fill="#AFB9C5"/>
<path fill-rule="evenodd" clip-rule="evenodd" d="M129.894 124.688L158.033 131.133C158.033 179.53 173.45 210.409 181.357 245.992H105.362C104.292 258.288 103.634 270.925 103.292 283.905H46.3892C59.2836 215.298 86.4993 162.22 128.036 124.671H129.879L129.894 124.688Z" fill="#C5CFD6"/>
<path fill-rule="evenodd" clip-rule="evenodd" d="M117.352 176.946C115.393 207.105 116.545 230.12 120.807 245.992H105.362C107.483 221.634 111.224 198.619 117.352 176.946L117.352 176.946Z" fill="black" fill-opacity="0.1"/>
</svg>
