<svg width="44" height="44" viewBox="0 0 44 44" fill="none" xmlns="http://www.w3.org/2000/svg">
<path d="M13.2529 43.6663C12.0613 43.6663 11.0415 43.2424 10.1936 42.3945C9.34426 41.5452 8.9196 40.5247 8.9196 39.333C8.9196 38.1413 9.34426 37.1208 10.1936 36.2715C11.0415 35.4236 12.0613 34.9997 13.2529 34.9997C14.4446 34.9997 15.4644 35.4236 16.3123 36.2715C17.1616 37.1208 17.5863 38.1413 17.5863 39.333C17.5863 40.5247 17.1616 41.5452 16.3123 42.3945C15.4644 43.2424 14.4446 43.6663 13.2529 43.6663ZM34.9196 43.6663C33.7279 43.6663 32.7082 43.2424 31.8603 42.3945C31.0109 41.5452 30.5863 40.5247 30.5863 39.333C30.5863 38.1413 31.0109 37.1208 31.8603 36.2715C32.7082 35.4236 33.7279 34.9997 34.9196 34.9997C36.1113 34.9997 37.1318 35.4236 37.9811 36.2715C38.829 37.1208 39.2529 38.1413 39.2529 39.333C39.2529 40.5247 38.829 41.5452 37.9811 42.3945C37.1318 43.2424 36.1113 43.6663 34.9196 43.6663ZM11.4113 8.99967L16.6113 19.833H31.7779L37.7363 8.99967H11.4113ZM9.35293 4.66634H41.3113C42.1418 4.66634 42.7738 5.03612 43.2071 5.77567C43.6404 6.51667 43.6585 7.26634 43.2613 8.02467L35.5696 21.8913C35.1724 22.6136 34.6394 23.1733 33.9706 23.5705C33.3033 23.9677 32.5724 24.1663 31.7779 24.1663H15.6363L13.2529 28.4997H39.2529V32.833H13.2529C11.6279 32.833 10.4002 32.1194 9.5696 30.6923C8.73904 29.2667 8.70293 27.8497 9.46126 26.4413L12.3863 21.133L4.58626 4.66634H0.25293V0.333008H7.2946L9.35293 4.66634Z" fill="#1C1B1F"/>
</svg>
