<svg width="44" height="41" viewBox="0 0 44 41" fill="none" xmlns="http://www.w3.org/2000/svg">
<path d="M22 40.5005L18.8583 37.6839C15.2111 34.3977 12.1958 31.563 9.81248 29.1797C7.42915 26.7964 5.53331 24.6564 4.12498 22.7599C2.71665 20.8647 1.73298 19.1227 1.17398 17.5339C0.613535 15.945 0.333313 14.32 0.333313 12.6589C0.333313 9.26441 1.47081 6.42969 3.74581 4.15469C6.02081 1.87969 8.85553 0.742188 12.25 0.742188C14.1278 0.742188 15.9153 1.13941 17.6125 1.93385C19.3097 2.7283 20.7722 3.84774 22 5.29219C23.2278 3.84774 24.6903 2.7283 26.3875 1.93385C28.0847 1.13941 29.8722 0.742188 31.75 0.742188C35.1444 0.742188 37.9791 1.87969 40.2541 4.15469C42.5291 6.42969 43.6666 9.26441 43.6666 12.6589C43.6666 14.32 43.3871 15.945 42.8281 17.5339C42.2677 19.1227 41.2833 20.8647 39.875 22.7599C38.4666 24.6564 36.5708 26.7964 34.1875 29.1797C31.8041 31.563 28.7889 34.3977 25.1416 37.6839L22 40.5005ZM22 34.6505C25.4666 31.545 28.3194 28.8814 30.5583 26.6599C32.7972 24.4397 34.5666 22.5085 35.8666 20.8662C37.1666 19.2224 38.0694 17.7592 38.575 16.4765C39.0805 15.1953 39.3333 13.9227 39.3333 12.6589C39.3333 10.4922 38.6111 8.68663 37.1666 7.24219C35.7222 5.79774 33.9166 5.07552 31.75 5.07552C30.0528 5.07552 28.4819 5.55363 27.0375 6.50985C25.593 7.46752 24.6 8.68663 24.0583 10.1672H19.9416C19.4 8.68663 18.4069 7.46752 16.9625 6.50985C15.518 5.55363 13.9472 5.07552 12.25 5.07552C10.0833 5.07552 8.27776 5.79774 6.83331 7.24219C5.38887 8.68663 4.66665 10.4922 4.66665 12.6589C4.66665 13.9227 4.91942 15.1953 5.42498 16.4765C5.93053 17.7592 6.83331 19.2224 8.13331 20.8662C9.43331 22.5085 11.2028 24.4397 13.4416 26.6599C15.6805 28.8814 18.5333 31.545 22 34.6505Z" fill="white"/>
</svg>
