<svg width="78" height="110" viewBox="0 0 78 110" fill="none" xmlns="http://www.w3.org/2000/svg">
<path d="M22.5 99H55.5V110H22.5V99ZM65.983 64.416C71.648 57.783 77.5 50.9245 77.5 38.5C77.5 17.2755 60.2245 0 39 0C17.7755 0 0.5 17.2755 0.5 38.5C0.5 51.0675 6.3685 57.904 12.0555 64.515C14.0245 66.814 16.065 69.1955 18.0175 71.9345C18.8095 73.0675 20.1075 77.4125 21.268 82.5H16.912V93.5H61.088V82.5H56.743C57.9145 77.4015 59.218 73.0455 60.0045 71.9125C61.9405 69.146 63.9975 66.7425 65.983 64.416Z" fill="#B6B6B6"/>
</svg>
