<svg width="48" height="36" viewBox="0 0 48 36" fill="none" xmlns="http://www.w3.org/2000/svg">
<path d="M0.166645 5.00033C0.166645 3.80866 0.590588 2.78888 1.43848 1.94099C2.28781 1.09166 3.30831 0.666992 4.49998 0.666992L28.3333 0.666992C29.525 0.666992 30.5455 1.09166 31.3948 1.94099C32.2427 2.78888 32.6666 3.80866 32.6666 5.00033V11.5003H28.3333V5.00033L4.49998 5.00033V31.0003L28.3333 31.0003L28.3333 24.5003H32.6666V31.0003C32.6666 32.192 32.2427 33.2125 31.3948 34.0618C30.5455 34.9097 29.525 35.3337 28.3333 35.3337H4.49998C3.30831 35.3337 2.28781 34.9097 1.43848 34.0618C0.590588 33.2125 0.166645 32.192 0.166645 31.0003V5.00033ZM15.3333 15.8337L39.5458 15.8337L36.0791 12.367L39.1666 9.33366L47.8333 18.0003L39.1666 26.667L36.0791 23.6337L39.5458 20.167L15.3333 20.167V15.8337Z" fill="white"/>
</svg>
