<svg width="209" height="57" viewBox="0 0 209 57" fill="none" xmlns="http://www.w3.org/2000/svg">
<path d="M0.128206 56V1.45441H13.3118V45.2933H36.0036V56H0.128206ZM92.1872 28.7272C92.1872 34.7286 91.0331 39.8157 88.7248 43.9883C86.4166 48.1608 83.2916 51.3302 79.3498 53.4964C75.4258 55.6626 71.0224 56.7457 66.1396 56.7457C61.239 56.7457 56.8267 55.6538 52.9027 53.4698C48.9786 51.2859 45.8625 48.1165 43.5543 43.9616C41.2638 39.789 40.1185 34.7109 40.1185 28.7272C40.1185 22.7258 41.2638 17.6388 43.5543 13.4662C45.8625 9.29356 48.9786 6.12417 52.9027 3.95797C56.8267 1.79177 61.239 0.70867 66.1396 0.70867C71.0224 0.70867 75.4258 1.79177 79.3498 3.95797C83.2916 6.12417 86.4166 9.29356 88.7248 13.4662C91.0331 17.6388 92.1872 22.7258 92.1872 28.7272ZM78.7106 28.7272C78.7106 25.1761 78.2046 22.1753 77.1925 19.7251C76.1982 17.2748 74.76 15.4193 72.8779 14.1586C71.0135 12.898 68.7674 12.2676 66.1396 12.2676C63.5295 12.2676 61.2834 12.898 59.4013 14.1586C57.5191 15.4193 56.0721 17.2748 55.06 19.7251C54.0657 22.1753 53.5685 25.1761 53.5685 28.7272C53.5685 32.2783 54.0657 35.2791 55.06 37.7294C56.0721 40.1796 57.5191 42.0351 59.4013 43.2958C61.2834 44.5564 63.5295 45.1868 66.1396 45.1868C68.7674 45.1868 71.0135 44.5564 72.8779 43.2958C74.76 42.0351 76.1982 40.1796 77.1925 37.7294C78.2046 35.2791 78.7106 32.2783 78.7106 28.7272ZM135.68 19.2723C135.378 18.1537 134.934 17.1682 134.348 16.316C133.762 15.4459 133.043 14.7091 132.191 14.1054C131.339 13.5017 130.362 13.0489 129.261 12.7471C128.16 12.4274 126.953 12.2676 125.639 12.2676C122.993 12.2676 120.703 12.9069 118.768 14.1853C116.85 15.4637 115.367 17.328 114.32 19.7783C113.272 22.2109 112.748 25.1672 112.748 28.6473C112.748 32.1452 113.254 35.1281 114.266 37.5962C115.279 40.0642 116.743 41.9463 118.661 43.2425C120.579 44.5387 122.905 45.1868 125.639 45.1868C128.054 45.1868 130.096 44.7961 131.765 44.0149C133.452 43.2159 134.73 42.0884 135.6 40.6324C136.47 39.1764 136.905 37.463 136.905 35.4921L139.355 35.7851L126.092 35.7851V26.1704L149.609 26.1704V33.3881C149.609 38.2709 148.571 42.4524 146.493 45.9325C144.433 49.4126 141.593 52.0849 137.97 53.9492C134.366 55.8136 130.22 56.7457 125.532 56.7457C120.33 56.7457 115.758 55.6183 111.816 53.3633C107.874 51.1083 104.803 47.8945 102.601 43.7219C100.399 39.5316 99.2984 34.56 99.2984 28.8071C99.2984 24.3327 99.9642 20.3643 101.296 16.9019C102.628 13.4218 104.483 10.4743 106.862 8.05954C109.259 5.64476 112.029 3.81592 115.172 2.57302C118.333 1.33012 121.733 0.70867 125.373 0.70867C128.533 0.70867 131.472 1.16144 134.188 2.06698C136.923 2.97253 139.338 4.25094 141.433 5.90222C143.546 7.5535 145.259 9.51551 146.573 11.7882C147.887 14.061 148.704 16.5557 149.023 19.2723H135.68ZM208.862 28.7272C208.862 34.7286 207.708 39.8157 205.4 43.9883C203.092 48.1608 199.967 51.3302 196.025 53.4964C192.101 55.6626 187.697 56.7457 182.815 56.7457C177.914 56.7457 173.502 55.6538 169.578 53.4698C165.654 51.2859 162.538 48.1165 160.229 43.9616C157.939 39.789 156.794 34.7109 156.794 28.7272C156.794 22.7258 157.939 17.6388 160.229 13.4662C162.538 9.29356 165.654 6.12417 169.578 3.95797C173.502 1.79177 177.914 0.70867 182.815 0.70867C187.697 0.70867 192.101 1.79177 196.025 3.95797C199.967 6.12417 203.092 9.29356 205.4 13.4662C207.708 17.6388 208.862 22.7258 208.862 28.7272ZM195.386 28.7272C195.386 25.1761 194.88 22.1753 193.868 19.7251C192.873 17.2748 191.435 15.4193 189.553 14.1586C187.689 12.898 185.442 12.2676 182.815 12.2676C180.205 12.2676 177.958 12.898 176.076 14.1586C174.194 15.4193 172.747 17.2748 171.735 19.7251C170.741 22.1753 170.244 25.1761 170.244 28.7272C170.244 32.2783 170.741 35.2791 171.735 37.7294C172.747 40.1796 174.194 42.0351 176.076 43.2958C177.958 44.5564 180.205 45.1868 182.815 45.1868C185.442 45.1868 187.689 44.5564 189.553 43.2958C191.435 42.0351 192.873 40.1796 193.868 37.7294C194.88 35.2791 195.386 32.2783 195.386 28.7272Z" fill="white"/>
</svg>
