<svg width="862" height="558" viewBox="0 0 862 558" fill="none" xmlns="http://www.w3.org/2000/svg">
<rect width="862" height="558" fill="#0F0F0F" fill-opacity="0.7"/>
<path d="M32.1008 437.909H38.4137L43.7688 450.967H44.0159L49.3711 437.909H55.6839V459H50.7201V446.045H50.5451L45.4783 458.866H42.3064L37.2397 445.973H37.0646V459H32.1008V437.909ZM63.3227 459.268C62.3134 459.268 61.4175 459.1 60.6348 458.763C59.859 458.42 59.2445 457.905 58.7914 457.218C58.3452 456.525 58.122 455.656 58.122 454.613C58.122 453.734 58.2765 452.993 58.5855 452.388C58.8944 451.784 59.3201 451.293 59.8624 450.916C60.4048 450.538 61.0296 450.253 61.7367 450.061C62.4439 449.862 63.1991 449.728 64.0024 449.659C64.9017 449.577 65.6261 449.491 66.1753 449.402C66.7245 449.306 67.1227 449.172 67.3699 449C67.6239 448.822 67.7509 448.571 67.7509 448.249V448.197C67.7509 447.668 67.569 447.26 67.2051 446.972C66.8413 446.683 66.3504 446.539 65.7325 446.539C65.0665 446.539 64.531 446.683 64.1259 446.972C63.7209 447.26 63.4634 447.658 63.3536 448.166L58.709 448.001C58.8463 447.04 59.1999 446.182 59.7698 445.427C60.3465 444.665 61.136 444.067 62.1384 443.635C63.1476 443.196 64.3594 442.976 65.7737 442.976C66.7829 442.976 67.7132 443.096 68.5645 443.336C69.4158 443.57 70.1573 443.913 70.7889 444.366C71.4206 444.812 71.908 445.362 72.2513 446.014C72.6014 446.666 72.7765 447.411 72.7765 448.249V459H68.0393V456.796H67.9157C67.6342 457.332 67.2738 457.785 66.8344 458.156C66.4019 458.526 65.8904 458.804 65.2999 458.99C64.7164 459.175 64.0573 459.268 63.3227 459.268ZM64.8777 455.972C65.4201 455.972 65.9075 455.862 66.3401 455.643C66.7795 455.423 67.1296 455.121 67.3905 454.737C67.6514 454.345 67.7818 453.892 67.7818 453.377V451.874C67.6377 451.949 67.4626 452.018 67.2566 452.08C67.0575 452.141 66.8378 452.2 66.5975 452.255C66.3572 452.31 66.1101 452.358 65.8561 452.399C65.602 452.44 65.3583 452.478 65.1249 452.512C64.6512 452.588 64.2461 452.704 63.9097 452.862C63.5801 453.02 63.3261 453.226 63.1476 453.48C62.976 453.727 62.8901 454.022 62.8901 454.366C62.8901 454.888 63.0755 455.286 63.4463 455.56C63.8239 455.835 64.301 455.972 64.8777 455.972ZM83.2396 459.299C81.5713 459.299 80.1398 458.955 78.9452 458.269C77.7574 457.582 76.8443 456.628 76.2058 455.406C75.5673 454.177 75.2481 452.756 75.2481 451.142C75.2481 449.522 75.5673 448.101 76.2058 446.879C76.8512 445.65 77.7677 444.692 78.9555 444.006C80.1501 443.319 81.5747 442.976 83.2293 442.976C84.6916 442.976 85.9652 443.24 87.0499 443.769C88.1416 444.297 88.9929 445.046 89.6039 446.014C90.2218 446.975 90.5479 448.104 90.5823 449.402H85.8759C85.7798 448.592 85.5052 447.957 85.0521 447.497C84.6058 447.037 84.0222 446.807 83.3014 446.807C82.7178 446.807 82.2063 446.972 81.7669 447.301C81.3275 447.624 80.9842 448.104 80.7371 448.743C80.4968 449.375 80.3766 450.157 80.3766 451.091C80.3766 452.025 80.4968 452.814 80.7371 453.46C80.9842 454.098 81.3275 454.582 81.7669 454.912C82.2063 455.234 82.7178 455.396 83.3014 455.396C83.7682 455.396 84.1802 455.296 84.5372 455.097C84.901 454.898 85.1997 454.606 85.4331 454.222C85.6665 453.83 85.8141 453.357 85.8759 452.8H90.5823C90.5342 454.105 90.2081 455.245 89.6039 456.219C89.0066 457.194 88.1656 457.953 87.0808 458.495C86.003 459.031 84.7225 459.299 83.2396 459.299ZM98.1953 449.979V459H93.1594V437.909H98.0305V446.086H98.2056C98.5626 445.111 99.1461 444.349 99.9563 443.8C100.773 443.25 101.772 442.976 102.953 442.976C104.065 442.976 105.033 443.223 105.857 443.717C106.681 444.205 107.32 444.895 107.773 445.787C108.233 446.68 108.459 447.723 108.452 448.918V459H103.417V449.907C103.423 449.028 103.204 448.341 102.757 447.847C102.311 447.353 101.683 447.105 100.873 447.105C100.344 447.105 99.8773 447.222 99.4723 447.456C99.0741 447.682 98.7617 448.008 98.5351 448.434C98.3154 448.86 98.2021 449.375 98.1953 449.979ZM111.596 459V443.182H116.632V459H111.596ZM114.119 441.338C113.412 441.338 112.804 441.105 112.296 440.638C111.788 440.164 111.534 439.595 111.534 438.929C111.534 438.27 111.788 437.707 112.296 437.24C112.804 436.766 113.412 436.529 114.119 436.529C114.833 436.529 115.441 436.766 115.942 437.24C116.45 437.707 116.704 438.27 116.704 438.929C116.704 439.595 116.45 440.164 115.942 440.638C115.441 441.105 114.833 441.338 114.119 441.338ZM124.873 449.979V459H119.837V443.182H124.626V446.086H124.801C125.151 445.118 125.748 444.359 126.593 443.81C127.437 443.254 128.443 442.976 129.61 442.976C130.722 442.976 131.687 443.226 132.504 443.728C133.328 444.222 133.966 444.915 134.42 445.808C134.88 446.694 135.106 447.73 135.099 448.918V459H130.063V449.907C130.07 449.028 129.847 448.341 129.394 447.847C128.948 447.353 128.326 447.105 127.53 447.105C127.001 447.105 126.534 447.222 126.129 447.456C125.731 447.682 125.422 448.008 125.203 448.434C124.99 448.86 124.88 449.375 124.873 449.979ZM145.611 459.299C143.957 459.299 142.529 458.973 141.327 458.32C140.133 457.661 139.213 456.724 138.567 455.509C137.929 454.287 137.609 452.835 137.609 451.153C137.609 449.519 137.932 448.091 138.577 446.869C139.223 445.64 140.133 444.685 141.307 444.006C142.481 443.319 143.864 442.976 145.457 442.976C146.583 442.976 147.613 443.151 148.546 443.501C149.48 443.851 150.287 444.37 150.966 445.056C151.646 445.743 152.175 446.591 152.552 447.6C152.93 448.602 153.119 449.752 153.119 451.05V452.306H139.37V449.381H148.433C148.426 448.846 148.299 448.369 148.052 447.95C147.805 447.531 147.465 447.205 147.032 446.972C146.607 446.731 146.116 446.611 145.56 446.611C144.997 446.611 144.492 446.738 144.046 446.992C143.6 447.239 143.246 447.579 142.985 448.012C142.724 448.437 142.587 448.921 142.573 449.464V452.44C142.573 453.085 142.7 453.652 142.954 454.139C143.208 454.62 143.569 454.994 144.036 455.262C144.502 455.529 145.059 455.663 145.704 455.663C146.15 455.663 146.555 455.602 146.919 455.478C147.283 455.354 147.595 455.172 147.856 454.932C148.117 454.692 148.313 454.397 148.443 454.047L153.067 454.18C152.875 455.217 152.453 456.12 151.8 456.889C151.155 457.651 150.307 458.245 149.257 458.67C148.206 459.089 146.991 459.299 145.611 459.299ZM161.921 459V437.909H167.019V454.86H175.793V459H161.921ZM185.826 459.299C184.171 459.299 182.743 458.973 181.542 458.32C180.347 457.661 179.427 456.724 178.782 455.509C178.144 454.287 177.824 452.835 177.824 451.153C177.824 449.519 178.147 448.091 178.792 446.869C179.438 445.64 180.347 444.685 181.521 444.006C182.695 443.319 184.079 442.976 185.672 442.976C186.798 442.976 187.827 443.151 188.761 443.501C189.695 443.851 190.501 444.37 191.181 445.056C191.861 445.743 192.389 446.591 192.767 447.6C193.145 448.602 193.334 449.752 193.334 451.05V452.306H179.585V449.381H188.648C188.641 448.846 188.514 448.369 188.267 447.95C188.02 447.531 187.68 447.205 187.247 446.972C186.822 446.731 186.331 446.611 185.775 446.611C185.212 446.611 184.707 446.738 184.261 446.992C183.814 447.239 183.461 447.579 183.2 448.012C182.939 448.437 182.802 448.921 182.788 449.464V452.44C182.788 453.085 182.915 453.652 183.169 454.139C183.423 454.62 183.784 454.994 184.25 455.262C184.717 455.529 185.273 455.663 185.919 455.663C186.365 455.663 186.77 455.602 187.134 455.478C187.498 455.354 187.81 455.172 188.071 454.932C188.332 454.692 188.528 454.397 188.658 454.047L193.282 454.18C193.09 455.217 192.668 456.12 192.015 456.889C191.37 457.651 190.522 458.245 189.472 458.67C188.421 459.089 187.206 459.299 185.826 459.299ZM200.365 459.268C199.355 459.268 198.459 459.1 197.677 458.763C196.901 458.42 196.287 457.905 195.833 457.218C195.387 456.525 195.164 455.656 195.164 454.613C195.164 453.734 195.318 452.993 195.627 452.388C195.936 451.784 196.362 451.293 196.904 450.916C197.447 450.538 198.072 450.253 198.779 450.061C199.486 449.862 200.241 449.728 201.044 449.659C201.944 449.577 202.668 449.491 203.217 449.402C203.767 449.306 204.165 449.172 204.412 449C204.666 448.822 204.793 448.571 204.793 448.249V448.197C204.793 447.668 204.611 447.26 204.247 446.972C203.883 446.683 203.392 446.539 202.774 446.539C202.109 446.539 201.573 446.683 201.168 446.972C200.763 447.26 200.505 447.658 200.396 448.166L195.751 448.001C195.888 447.04 196.242 446.182 196.812 445.427C197.388 444.665 198.178 444.067 199.18 443.635C200.19 443.196 201.401 442.976 202.816 442.976C203.825 442.976 204.755 443.096 205.606 443.336C206.458 443.57 207.199 443.913 207.831 444.366C208.463 444.812 208.95 445.362 209.293 446.014C209.643 446.666 209.818 447.411 209.818 448.249V459H205.081V456.796H204.958C204.676 457.332 204.316 457.785 203.876 458.156C203.444 458.526 202.932 458.804 202.342 458.99C201.758 459.175 201.099 459.268 200.365 459.268ZM201.92 455.972C202.462 455.972 202.95 455.862 203.382 455.643C203.821 455.423 204.172 455.121 204.432 454.737C204.693 454.345 204.824 453.892 204.824 453.377V451.874C204.68 451.949 204.505 452.018 204.299 452.08C204.1 452.141 203.88 452.2 203.64 452.255C203.399 452.31 203.152 452.358 202.898 452.399C202.644 452.44 202.4 452.478 202.167 452.512C201.693 452.588 201.288 452.704 200.952 452.862C200.622 453.02 200.368 453.226 200.19 453.48C200.018 453.727 199.932 454.022 199.932 454.366C199.932 454.888 200.118 455.286 200.488 455.56C200.866 455.835 201.343 455.972 201.92 455.972ZM212.898 459V443.182H217.789V446.065H217.954C218.243 445.022 218.713 444.246 219.365 443.738C220.017 443.223 220.776 442.966 221.641 442.966C221.874 442.966 222.115 442.983 222.362 443.017C222.609 443.045 222.839 443.089 223.052 443.151V447.528C222.812 447.445 222.496 447.38 222.104 447.332C221.72 447.284 221.377 447.26 221.075 447.26C220.477 447.26 219.938 447.394 219.458 447.662C218.984 447.922 218.61 448.29 218.335 448.763C218.067 449.23 217.934 449.78 217.934 450.411V459H212.898ZM230.14 449.979V459H225.104V443.182H229.892V446.086H230.068C230.418 445.118 231.015 444.359 231.859 443.81C232.704 443.254 233.71 442.976 234.877 442.976C235.989 442.976 236.954 443.226 237.771 443.728C238.595 444.222 239.233 444.915 239.686 445.808C240.146 446.694 240.373 447.73 240.366 448.918V459H235.33V449.907C235.337 449.028 235.114 448.341 234.661 447.847C234.214 447.353 233.593 447.105 232.797 447.105C232.268 447.105 231.801 447.222 231.396 447.456C230.998 447.682 230.689 448.008 230.469 448.434C230.256 448.86 230.146 449.375 230.14 449.979ZM243.484 459V443.182H248.519V459H243.484ZM246.007 441.338C245.3 441.338 244.692 441.105 244.184 440.638C243.676 440.164 243.422 439.595 243.422 438.929C243.422 438.27 243.676 437.707 244.184 437.24C244.692 436.766 245.3 436.529 246.007 436.529C246.721 436.529 247.328 436.766 247.83 437.24C248.338 437.707 248.592 438.27 248.592 438.929C248.592 439.595 248.338 440.164 247.83 440.638C247.328 441.105 246.721 441.338 246.007 441.338ZM256.761 449.979V459H251.725V443.182H256.514V446.086H256.689C257.039 445.118 257.636 444.359 258.481 443.81C259.325 443.254 260.331 442.976 261.498 442.976C262.61 442.976 263.575 443.226 264.392 443.728C265.216 444.222 265.854 444.915 266.307 445.808C266.767 446.694 266.994 447.73 266.987 448.918V459H261.951V449.907C261.958 449.028 261.735 448.341 261.282 447.847C260.835 447.353 260.214 447.105 259.418 447.105C258.889 447.105 258.422 447.222 258.017 447.456C257.619 447.682 257.31 448.008 257.09 448.434C256.877 448.86 256.768 449.375 256.761 449.979ZM277.478 465.261C275.975 465.261 274.687 465.052 273.616 464.633C272.545 464.214 271.704 463.641 271.093 462.913C270.482 462.186 270.115 461.362 269.991 460.442L274.76 460.174C274.849 460.497 275.014 460.778 275.254 461.018C275.501 461.259 275.82 461.444 276.212 461.575C276.61 461.705 277.077 461.77 277.612 461.77C278.457 461.77 279.153 461.564 279.703 461.152C280.259 460.747 280.537 460.037 280.537 459.021V456.24H280.362C280.163 456.728 279.861 457.163 279.456 457.548C279.051 457.932 278.546 458.234 277.942 458.454C277.344 458.674 276.658 458.784 275.882 458.784C274.729 458.784 273.671 458.516 272.71 457.98C271.756 457.438 270.99 456.6 270.414 455.468C269.844 454.328 269.559 452.862 269.559 451.07C269.559 449.223 269.854 447.703 270.445 446.508C271.035 445.307 271.807 444.418 272.762 443.841C273.723 443.264 274.756 442.976 275.861 442.976C276.692 442.976 277.403 443.12 277.993 443.408C278.591 443.69 279.081 444.054 279.466 444.5C279.85 444.946 280.142 445.41 280.341 445.89H280.485V443.182H285.501V459.062C285.501 460.401 285.164 461.53 284.491 462.45C283.819 463.37 282.878 464.067 281.67 464.54C280.461 465.021 279.064 465.261 277.478 465.261ZM277.633 455.118C278.244 455.118 278.766 454.956 279.198 454.634C279.631 454.311 279.964 453.847 280.197 453.243C280.43 452.639 280.547 451.915 280.547 451.07C280.547 450.212 280.43 449.474 280.197 448.856C279.97 448.231 279.638 447.751 279.198 447.414C278.766 447.078 278.244 446.91 277.633 446.91C277.008 446.91 276.479 447.081 276.047 447.425C275.614 447.768 275.285 448.252 275.058 448.877C274.839 449.495 274.729 450.226 274.729 451.07C274.729 451.915 274.842 452.639 275.068 453.243C275.295 453.847 275.621 454.311 276.047 454.634C276.479 454.956 277.008 455.118 277.633 455.118ZM299.401 459.268C298.392 459.268 297.496 459.1 296.713 458.763C295.937 458.42 295.323 457.905 294.87 457.218C294.423 456.525 294.2 455.656 294.2 454.613C294.2 453.734 294.355 452.993 294.664 452.388C294.973 451.784 295.398 451.293 295.941 450.916C296.483 450.538 297.108 450.253 297.815 450.061C298.522 449.862 299.277 449.728 300.08 449.659C300.98 449.577 301.704 449.491 302.253 449.402C302.803 449.306 303.201 449.172 303.448 449C303.702 448.822 303.829 448.571 303.829 448.249V448.197C303.829 447.668 303.647 447.26 303.283 446.972C302.919 446.683 302.428 446.539 301.811 446.539C301.145 446.539 300.609 446.683 300.204 446.972C299.799 447.26 299.542 447.658 299.432 448.166L294.787 448.001C294.924 447.04 295.278 446.182 295.848 445.427C296.425 444.665 297.214 444.067 298.216 443.635C299.226 443.196 300.437 442.976 301.852 442.976C302.861 442.976 303.791 443.096 304.643 443.336C305.494 443.57 306.235 443.913 306.867 444.366C307.499 444.812 307.986 445.362 308.329 446.014C308.68 446.666 308.855 447.411 308.855 448.249V459H304.117V456.796H303.994C303.712 457.332 303.352 457.785 302.913 458.156C302.48 458.526 301.969 458.804 301.378 458.99C300.794 459.175 300.135 459.268 299.401 459.268ZM300.956 455.972C301.498 455.972 301.986 455.862 302.418 455.643C302.858 455.423 303.208 455.121 303.469 454.737C303.73 454.345 303.86 453.892 303.86 453.377V451.874C303.716 451.949 303.541 452.018 303.335 452.08C303.136 452.141 302.916 452.2 302.676 452.255C302.435 452.31 302.188 452.358 301.934 452.399C301.68 452.44 301.436 452.478 301.203 452.512C300.729 452.588 300.324 452.704 299.988 452.862C299.658 453.02 299.404 453.226 299.226 453.48C299.054 453.727 298.968 454.022 298.968 454.366C298.968 454.888 299.154 455.286 299.524 455.56C299.902 455.835 300.379 455.972 300.956 455.972ZM316.97 449.979V459H311.934V443.182H316.723V446.086H316.898C317.248 445.118 317.845 444.359 318.69 443.81C319.534 443.254 320.54 442.976 321.707 442.976C322.819 442.976 323.784 443.226 324.601 443.728C325.425 444.222 326.063 444.915 326.516 445.808C326.976 446.694 327.203 447.73 327.196 448.918V459H322.16V449.907C322.167 449.028 321.944 448.341 321.491 447.847C321.044 447.353 320.423 447.105 319.627 447.105C319.098 447.105 318.631 447.222 318.226 447.456C317.828 447.682 317.519 448.008 317.299 448.434C317.086 448.86 316.977 449.375 316.97 449.979ZM336.091 459.227C334.924 459.227 333.863 458.924 332.909 458.32C331.955 457.716 331.192 456.81 330.623 455.602C330.053 454.393 329.768 452.893 329.768 451.101C329.768 449.241 330.063 447.71 330.654 446.508C331.244 445.307 332.016 444.418 332.971 443.841C333.932 443.264 334.965 442.976 336.07 442.976C336.901 442.976 337.612 443.12 338.202 443.408C338.793 443.69 339.28 444.054 339.665 444.5C340.049 444.946 340.341 445.41 340.54 445.89H340.643V437.909H345.679V459H340.694V456.436H340.54C340.327 456.923 340.025 457.38 339.634 457.805C339.242 458.231 338.751 458.574 338.161 458.835C337.577 459.096 336.887 459.227 336.091 459.227ZM337.842 455.303C338.453 455.303 338.975 455.131 339.407 454.788C339.84 454.438 340.173 453.947 340.406 453.315C340.639 452.684 340.756 451.942 340.756 451.091C340.756 450.226 340.639 449.481 340.406 448.856C340.179 448.231 339.846 447.751 339.407 447.414C338.975 447.078 338.453 446.91 337.842 446.91C337.217 446.91 336.688 447.081 336.256 447.425C335.823 447.768 335.494 448.252 335.267 448.877C335.047 449.502 334.938 450.24 334.938 451.091C334.938 451.942 335.051 452.684 335.277 453.315C335.504 453.947 335.83 454.438 336.256 454.788C336.688 455.131 337.217 455.303 337.842 455.303ZM362.89 459H355.094V437.909H362.879C365.028 437.909 366.879 438.331 368.43 439.176C369.989 440.013 371.19 441.222 372.035 442.801C372.879 444.373 373.301 446.254 373.301 448.444C373.301 450.641 372.879 452.529 372.035 454.108C371.197 455.687 369.999 456.899 368.441 457.744C366.882 458.581 365.032 459 362.89 459ZM360.192 454.654H362.694C363.875 454.654 364.874 454.455 365.691 454.057C366.515 453.652 367.136 452.996 367.555 452.09C367.981 451.177 368.193 449.962 368.193 448.444C368.193 446.927 367.981 445.719 367.555 444.819C367.129 443.913 366.501 443.261 365.67 442.863C364.846 442.458 363.83 442.255 362.622 442.255H360.192V454.654ZM380.737 459.268C379.728 459.268 378.832 459.1 378.049 458.763C377.273 458.42 376.659 457.905 376.205 457.218C375.759 456.525 375.536 455.656 375.536 454.613C375.536 453.734 375.691 452.993 376 452.388C376.308 451.784 376.734 451.293 377.277 450.916C377.819 450.538 378.444 450.253 379.151 450.061C379.858 449.862 380.613 449.728 381.416 449.659C382.316 449.577 383.04 449.491 383.589 449.402C384.139 449.306 384.537 449.172 384.784 449C385.038 448.822 385.165 448.571 385.165 448.249V448.197C385.165 447.668 384.983 447.26 384.619 446.972C384.255 446.683 383.764 446.539 383.147 446.539C382.481 446.539 381.945 446.683 381.54 446.972C381.135 447.26 380.877 447.658 380.768 448.166L376.123 448.001C376.26 447.04 376.614 446.182 377.184 445.427C377.761 444.665 378.55 444.067 379.552 443.635C380.562 443.196 381.773 442.976 383.188 442.976C384.197 442.976 385.127 443.096 385.979 443.336C386.83 443.57 387.571 443.913 388.203 444.366C388.835 444.812 389.322 445.362 389.665 446.014C390.015 446.666 390.191 447.411 390.191 448.249V459H385.453V456.796H385.33C385.048 457.332 384.688 457.785 384.248 458.156C383.816 458.526 383.304 458.804 382.714 458.99C382.13 459.175 381.471 459.268 380.737 459.268ZM382.292 455.972C382.834 455.972 383.322 455.862 383.754 455.643C384.194 455.423 384.544 455.121 384.805 454.737C385.065 454.345 385.196 453.892 385.196 453.377V451.874C385.052 451.949 384.877 452.018 384.671 452.08C384.472 452.141 384.252 452.2 384.012 452.255C383.771 452.31 383.524 452.358 383.27 452.399C383.016 452.44 382.772 452.478 382.539 452.512C382.065 452.588 381.66 452.704 381.324 452.862C380.994 453.02 380.74 453.226 380.562 453.48C380.39 453.727 380.304 454.022 380.304 454.366C380.304 454.888 380.49 455.286 380.86 455.56C381.238 455.835 381.715 455.972 382.292 455.972ZM402.198 443.182V446.889L392.219 446.889V443.182L402.198 443.182ZM394.31 439.392L399.346 439.392V454.026C399.346 454.335 399.394 454.585 399.49 454.778C399.593 454.963 399.741 455.097 399.933 455.179C400.125 455.255 400.355 455.293 400.623 455.293C400.815 455.293 401.018 455.275 401.23 455.241C401.45 455.2 401.615 455.166 401.725 455.138L402.487 458.773C402.246 458.842 401.907 458.928 401.467 459.031C401.035 459.134 400.516 459.199 399.912 459.227C398.731 459.281 397.719 459.144 396.874 458.815C396.037 458.478 395.395 457.956 394.948 457.249C394.509 456.542 394.296 455.653 394.31 454.582V439.392ZM409.227 459.268C408.218 459.268 407.322 459.1 406.539 458.763C405.763 458.42 405.149 457.905 404.696 457.218C404.249 456.525 404.026 455.656 404.026 454.613C404.026 453.734 404.181 452.993 404.49 452.388C404.799 451.784 405.224 451.293 405.767 450.916C406.309 450.538 406.934 450.253 407.641 450.061C408.348 449.862 409.103 449.728 409.907 449.659C410.806 449.577 411.53 449.491 412.08 449.402C412.629 449.306 413.027 449.172 413.274 449C413.528 448.822 413.655 448.571 413.655 448.249V448.197C413.655 447.668 413.473 447.26 413.109 446.972C412.746 446.683 412.255 446.539 411.637 446.539C410.971 446.539 410.435 446.683 410.03 446.972C409.625 447.26 409.368 447.658 409.258 448.166L404.613 448.001C404.751 447.04 405.104 446.182 405.674 445.427C406.251 444.665 407.04 444.067 408.043 443.635C409.052 443.196 410.264 442.976 411.678 442.976C412.687 442.976 413.617 443.096 414.469 443.336C415.32 443.57 416.062 443.913 416.693 444.366C417.325 444.812 417.812 445.362 418.156 446.014C418.506 446.666 418.681 447.411 418.681 448.249V459H413.944V456.796H413.82C413.539 457.332 413.178 457.785 412.739 458.156C412.306 458.526 411.795 458.804 411.204 458.99C410.621 459.175 409.962 459.268 409.227 459.268ZM410.782 455.972C411.324 455.972 411.812 455.862 412.244 455.643C412.684 455.423 413.034 455.121 413.295 454.737C413.556 454.345 413.686 453.892 413.686 453.377V451.874C413.542 451.949 413.367 452.018 413.161 452.08C412.962 452.141 412.742 452.2 412.502 452.255C412.262 452.31 412.014 452.358 411.76 452.399C411.506 452.44 411.263 452.478 411.029 452.512C410.555 452.588 410.15 452.704 409.814 452.862C409.484 453.02 409.23 453.226 409.052 453.48C408.88 453.727 408.794 454.022 408.794 454.366C408.794 454.888 408.98 455.286 409.351 455.56C409.728 455.835 410.205 455.972 410.782 455.972ZM43.501 479.232C43.4324 478.477 43.1269 477.89 42.5845 477.471C42.049 477.046 41.2835 476.833 40.288 476.833C39.6289 476.833 39.0796 476.919 38.6402 477.09C38.2008 477.262 37.8713 477.499 37.6516 477.801C37.4319 478.096 37.3186 478.436 37.3118 478.82C37.298 479.136 37.3598 479.414 37.4971 479.654C37.6413 479.895 37.8473 480.108 38.115 480.293C38.3896 480.471 38.7192 480.629 39.1037 480.767C39.4881 480.904 39.9207 481.024 40.4012 481.127L42.2137 481.539C43.2573 481.766 44.1773 482.068 44.9737 482.445C45.777 482.823 46.4498 483.273 46.9921 483.794C47.5414 484.316 47.9568 484.917 48.2382 485.597C48.5197 486.276 48.6639 487.038 48.6708 487.883C48.6639 489.215 48.3275 490.358 47.6615 491.312C46.9956 492.266 46.0378 492.998 44.7883 493.506C43.5457 494.014 42.0455 494.268 40.288 494.268C38.5235 494.268 36.9856 494.003 35.6743 493.475C34.363 492.946 33.3435 492.143 32.6157 491.065C31.888 489.987 31.5138 488.624 31.4932 486.977H36.3746C36.4158 487.656 36.5977 488.223 36.9204 488.676C37.2431 489.129 37.6859 489.472 38.2489 489.706C38.8187 489.939 39.4778 490.056 40.2262 490.056C40.9127 490.056 41.4963 489.963 41.9769 489.778C42.4643 489.592 42.8385 489.335 43.0994 489.005C43.3603 488.676 43.4942 488.298 43.501 487.873C43.4942 487.474 43.3706 487.134 43.1303 486.853C42.89 486.565 42.5193 486.317 42.0181 486.112C41.5238 485.899 40.8921 485.703 40.1232 485.525L37.9194 485.01C36.0931 484.591 34.6548 483.915 33.6044 482.981C32.5539 482.04 32.0322 480.77 32.039 479.17C32.0322 477.866 32.3823 476.723 33.0894 475.741C33.7966 474.759 34.7749 473.994 36.0245 473.445C37.274 472.895 38.6986 472.621 40.2983 472.621C41.9323 472.621 43.35 472.899 44.5515 473.455C45.7598 474.004 46.6969 474.777 47.3629 475.772C48.0288 476.768 48.3687 477.921 48.3824 479.232H43.501ZM58.6292 494.299C56.9609 494.299 55.5294 493.955 54.3348 493.269C53.1471 492.582 52.234 491.628 51.5955 490.406C50.957 489.177 50.6377 487.756 50.6377 486.142C50.6377 484.522 50.957 483.101 51.5955 481.879C52.2408 480.65 53.1574 479.692 54.3451 479.006C55.5397 478.319 56.9643 477.976 58.6189 477.976C60.0813 477.976 61.3548 478.24 62.4396 478.769C63.5312 479.297 64.3825 480.046 64.9936 481.014C65.6115 481.975 65.9376 483.104 65.9719 484.402H61.2656C61.1695 483.592 60.8948 482.957 60.4417 482.497C59.9955 482.037 59.4119 481.807 58.691 481.807C58.1074 481.807 57.596 481.972 57.1566 482.301C56.7172 482.624 56.3739 483.104 56.1267 483.743C55.8864 484.375 55.7663 485.157 55.7663 486.091C55.7663 487.025 55.8864 487.814 56.1267 488.46C56.3739 489.098 56.7172 489.582 57.1566 489.912C57.596 490.234 58.1074 490.396 58.691 490.396C59.1579 490.396 59.5698 490.296 59.9268 490.097C60.2907 489.898 60.5893 489.606 60.8228 489.222C61.0562 488.83 61.2038 488.357 61.2656 487.8H65.9719C65.9238 489.105 65.5977 490.245 64.9936 491.219C64.3963 492.194 63.5552 492.953 62.4705 493.495C61.3926 494.031 60.1122 494.299 58.6292 494.299ZM68.5491 494V478.182H73.5849V494H68.5491ZM71.0721 476.338C70.365 476.338 69.7574 476.105 69.2493 475.638C68.7413 475.164 68.4873 474.595 68.4873 473.929C68.4873 473.27 68.7413 472.707 69.2493 472.24C69.7574 471.766 70.365 471.529 71.0721 471.529C71.7862 471.529 72.3938 471.766 72.8949 472.24C73.403 472.707 73.657 473.27 73.657 473.929C73.657 474.595 73.403 475.164 72.8949 475.638C72.3938 476.105 71.7862 476.338 71.0721 476.338ZM84.1844 494.299C82.5299 494.299 81.1018 493.973 79.9004 493.32C78.7057 492.661 77.7858 491.724 77.1404 490.509C76.5019 489.287 76.1827 487.835 76.1827 486.153C76.1827 484.519 76.5053 483.091 77.1507 481.869C77.7961 480.64 78.7057 479.685 79.8798 479.006C81.0538 478.319 82.4372 477.976 84.03 477.976C85.1559 477.976 86.1857 478.151 87.1195 478.501C88.0532 478.851 88.8599 479.37 89.5396 480.056C90.2192 480.743 90.7479 481.591 91.1255 482.6C91.5031 483.602 91.6919 484.752 91.6919 486.05V487.306H77.9437V484.381H87.0062C86.9993 483.846 86.8723 483.369 86.6251 482.95C86.378 482.531 86.0381 482.205 85.6056 481.972C85.1799 481.731 84.6891 481.611 84.133 481.611C83.57 481.611 83.0654 481.738 82.6191 481.992C82.1728 482.239 81.8193 482.579 81.5584 483.012C81.2975 483.437 81.1602 483.921 81.1464 484.464V487.44C81.1464 488.085 81.2735 488.652 81.5275 489.139C81.7815 489.62 82.1419 489.994 82.6088 490.262C83.0757 490.529 83.6318 490.663 84.2771 490.663C84.7234 490.663 85.1285 490.602 85.4923 490.478C85.8562 490.354 86.1686 490.172 86.4295 489.932C86.6904 489.692 86.886 489.397 87.0165 489.047L91.6404 489.18C91.4482 490.217 91.0259 491.12 90.3737 491.889C89.7284 492.651 88.8805 493.245 87.83 493.67C86.7796 494.089 85.5644 494.299 84.1844 494.299ZM99.2998 484.979V494H94.2639V478.182H99.0526V481.086H99.2277C99.5778 480.118 100.175 479.359 101.02 478.81C101.864 478.254 102.87 477.976 104.037 477.976C105.149 477.976 106.114 478.226 106.931 478.728C107.755 479.222 108.393 479.915 108.846 480.808C109.306 481.694 109.533 482.73 109.526 483.918V494H104.49V484.907C104.497 484.028 104.274 483.341 103.821 482.847C103.374 482.353 102.753 482.105 101.957 482.105C101.428 482.105 100.961 482.222 100.556 482.456C100.158 482.682 99.849 483.008 99.6293 483.434C99.4165 483.86 99.3066 484.375 99.2998 484.979ZM120.028 494.299C118.359 494.299 116.928 493.955 115.733 493.269C114.546 492.582 113.632 491.628 112.994 490.406C112.355 489.177 112.036 487.756 112.036 486.142C112.036 484.522 112.355 483.101 112.994 481.879C113.639 480.65 114.556 479.692 115.744 479.006C116.938 478.319 118.363 477.976 120.017 477.976C121.48 477.976 122.753 478.24 123.838 478.769C124.93 479.297 125.781 480.046 126.392 481.014C127.01 481.975 127.336 483.104 127.37 484.402H122.664C122.568 483.592 122.293 482.957 121.84 482.497C121.394 482.037 120.81 481.807 120.089 481.807C119.506 481.807 118.994 481.972 118.555 482.301C118.116 482.624 117.772 483.104 117.525 483.743C117.285 484.375 117.165 485.157 117.165 486.091C117.165 487.025 117.285 487.814 117.525 488.46C117.772 489.098 118.116 489.582 118.555 489.912C118.994 490.234 119.506 490.396 120.089 490.396C120.556 490.396 120.968 490.296 121.325 490.097C121.689 489.898 121.988 489.606 122.221 489.222C122.455 488.83 122.602 488.357 122.664 487.8H127.37C127.322 489.105 126.996 490.245 126.392 491.219C125.795 492.194 124.954 492.953 123.869 493.495C122.791 494.031 121.511 494.299 120.028 494.299ZM137.342 494.299C135.687 494.299 134.259 493.973 133.058 493.32C131.863 492.661 130.943 491.724 130.298 490.509C129.659 489.287 129.34 487.835 129.34 486.153C129.34 484.519 129.663 483.091 130.308 481.869C130.953 480.64 131.863 479.685 133.037 479.006C134.211 478.319 135.594 477.976 137.187 477.976C138.313 477.976 139.343 478.151 140.277 478.501C141.21 478.851 142.017 479.37 142.697 480.056C143.376 480.743 143.905 481.591 144.283 482.6C144.66 483.602 144.849 484.752 144.849 486.05V487.306H131.101V484.381H140.163C140.157 483.846 140.03 483.369 139.782 482.95C139.535 482.531 139.195 482.205 138.763 481.972C138.337 481.731 137.846 481.611 137.29 481.611C136.727 481.611 136.223 481.738 135.776 481.992C135.33 482.239 134.976 482.579 134.716 483.012C134.455 483.437 134.317 483.921 134.304 484.464V487.44C134.304 488.085 134.431 488.652 134.685 489.139C134.939 489.62 135.299 489.994 135.766 490.262C136.233 490.529 136.789 490.663 137.434 490.663C137.881 490.663 138.286 490.602 138.65 490.478C139.013 490.354 139.326 490.172 139.587 489.932C139.848 489.692 140.043 489.397 140.174 489.047L144.798 489.18C144.605 490.217 144.183 491.12 143.531 491.889C142.886 492.651 142.038 493.245 140.987 493.67C139.937 494.089 138.722 494.299 137.342 494.299ZM156.607 494L152.488 478.182H157.544L159.676 488.315H159.81L162.096 478.182H167.029L169.377 488.243H169.511L171.581 478.182H176.637L172.508 494H167.122L164.65 484.783H164.475L162.004 494H156.607ZM178.658 494V478.182H183.694V494H178.658ZM181.182 476.338C180.474 476.338 179.867 476.105 179.359 475.638C178.851 475.164 178.597 474.595 178.597 473.929C178.597 473.27 178.851 472.707 179.359 472.24C179.867 471.766 180.474 471.529 181.182 471.529C181.896 471.529 182.503 471.766 183.004 472.24C183.512 472.707 183.766 473.27 183.766 473.929C183.766 474.595 183.512 475.164 183.004 475.638C182.503 476.105 181.896 476.338 181.182 476.338ZM195.828 478.182V481.889H185.849V478.182H195.828ZM187.94 474.392H192.976V489.026C192.976 489.335 193.024 489.585 193.12 489.778C193.223 489.963 193.37 490.097 193.563 490.179C193.755 490.255 193.985 490.293 194.253 490.293C194.445 490.293 194.647 490.275 194.86 490.241C195.08 490.2 195.245 490.166 195.355 490.138L196.117 493.773C195.876 493.842 195.536 493.928 195.097 494.031C194.665 494.134 194.146 494.199 193.542 494.227C192.361 494.281 191.349 494.144 190.504 493.815C189.666 493.478 189.025 492.956 188.578 492.249C188.139 491.542 187.926 490.653 187.94 489.582V474.392ZM203.773 484.979V494H198.738V472.909H203.609V481.086H203.784C204.141 480.111 204.724 479.349 205.534 478.8C206.351 478.25 207.35 477.976 208.531 477.976C209.643 477.976 210.611 478.223 211.435 478.717C212.259 479.205 212.898 479.895 213.351 480.787C213.811 481.68 214.037 482.723 214.031 483.918V494H208.995V484.907C209.002 484.028 208.782 483.341 208.336 482.847C207.889 482.353 207.261 482.105 206.451 482.105C205.922 482.105 205.455 482.222 205.05 482.456C204.652 482.682 204.34 483.008 204.113 483.434C203.894 483.86 203.78 484.375 203.773 484.979ZM223.405 494V472.909H232.117C233.696 472.909 235.059 473.218 236.205 473.836C237.359 474.447 238.248 475.302 238.873 476.4C239.497 477.492 239.81 478.762 239.81 480.211C239.81 481.666 239.49 482.94 238.852 484.031C238.22 485.116 237.318 485.957 236.144 486.554C234.97 487.152 233.576 487.45 231.962 487.45H226.587V483.434H231.015C231.784 483.434 232.426 483.3 232.941 483.032C233.463 482.765 233.857 482.39 234.125 481.91C234.393 481.422 234.527 480.856 234.527 480.211C234.527 479.558 234.393 478.995 234.125 478.522C233.857 478.041 233.463 477.67 232.941 477.409C232.419 477.149 231.777 477.018 231.015 477.018H228.502V494H223.405ZM245.402 499.932C244.798 499.932 244.228 499.884 243.692 499.788C243.157 499.698 242.697 499.578 242.312 499.427L243.424 495.771C243.919 495.936 244.365 496.032 244.763 496.06C245.168 496.087 245.515 496.022 245.803 495.864C246.099 495.713 246.325 495.442 246.483 495.05L246.679 494.577L241.056 478.182H246.329L249.243 489.469H249.408L252.363 478.182H257.667L251.704 495.514C251.416 496.379 251.007 497.141 250.479 497.8C249.957 498.466 249.281 498.988 248.45 499.365C247.626 499.743 246.61 499.932 245.402 499.932ZM268.527 478.182V481.889H258.547V478.182H268.527ZM260.638 474.392H265.674V489.026C265.674 489.335 265.722 489.585 265.818 489.778C265.921 489.963 266.069 490.097 266.261 490.179C266.453 490.255 266.683 490.293 266.951 490.293C267.143 490.293 267.346 490.275 267.558 490.241C267.778 490.2 267.943 490.166 268.053 490.138L268.815 493.773C268.575 493.842 268.235 493.928 267.795 494.031C267.363 494.134 266.844 494.199 266.24 494.227C265.059 494.281 264.047 494.144 263.202 493.815C262.365 493.478 261.723 492.956 261.277 492.249C260.837 491.542 260.624 490.653 260.638 489.582V474.392ZM276.472 484.979V494H271.436V472.909H276.307V481.086H276.482C276.839 480.111 277.423 479.349 278.233 478.8C279.05 478.25 280.049 477.976 281.229 477.976C282.342 477.976 283.31 478.223 284.134 478.717C284.957 479.205 285.596 479.895 286.049 480.787C286.509 481.68 286.736 482.723 286.729 483.918V494H281.693V484.907C281.7 484.028 281.48 483.341 281.034 482.847C280.588 482.353 279.959 482.105 279.149 482.105C278.621 482.105 278.154 482.222 277.749 482.456C277.35 482.682 277.038 483.008 276.811 483.434C276.592 483.86 276.479 484.375 276.472 484.979ZM297.256 494.299C295.595 494.299 294.167 493.959 292.972 493.279C291.784 492.593 290.868 491.638 290.222 490.416C289.584 489.187 289.265 487.763 289.265 486.142C289.265 484.515 289.584 483.091 290.222 481.869C290.868 480.64 291.784 479.685 292.972 479.006C294.167 478.319 295.595 477.976 297.256 477.976C298.918 477.976 300.342 478.319 301.53 479.006C302.725 479.685 303.641 480.64 304.28 481.869C304.925 483.091 305.248 484.515 305.248 486.142C305.248 487.763 304.925 489.187 304.28 490.416C303.641 491.638 302.725 492.593 301.53 493.279C300.342 493.959 298.918 494.299 297.256 494.299ZM297.287 490.499C297.891 490.499 298.403 490.313 298.822 489.942C299.24 489.572 299.56 489.057 299.779 488.398C300.006 487.739 300.119 486.977 300.119 486.112C300.119 485.233 300.006 484.464 299.779 483.805C299.56 483.146 299.24 482.631 298.822 482.26C298.403 481.889 297.891 481.704 297.287 481.704C296.662 481.704 296.134 481.889 295.701 482.26C295.275 482.631 294.949 483.146 294.723 483.805C294.503 484.464 294.393 485.233 294.393 486.112C294.393 486.977 294.503 487.739 294.723 488.398C294.949 489.057 295.275 489.572 295.701 489.942C296.134 490.313 296.662 490.499 297.287 490.499ZM312.863 484.979V494H307.827V478.182H312.616V481.086H312.791C313.141 480.118 313.739 479.359 314.583 478.81C315.428 478.254 316.433 477.976 317.6 477.976C318.713 477.976 319.677 478.226 320.494 478.728C321.318 479.222 321.957 479.915 322.41 480.808C322.87 481.694 323.096 482.73 323.089 483.918V494H318.054V484.907C318.06 484.028 317.837 483.341 317.384 482.847C316.938 482.353 316.317 482.105 315.52 482.105C314.992 482.105 314.525 482.222 314.12 482.456C313.721 482.682 313.412 483.008 313.193 483.434C312.98 483.86 312.87 484.375 312.863 484.979Z" fill="white"/>
<path d="M59.5387 63.8182H51.5273C51.4705 63.1553 51.319 62.554 51.0728 62.0142C50.836 61.4744 50.5046 61.0104 50.0784 60.6222C49.6618 60.2244 49.1551 59.9214 48.5586 59.7131C47.962 59.4953 47.2849 59.3864 46.5273 59.3864C45.2015 59.3864 44.0794 59.7083 43.1608 60.3523C42.2517 60.9962 41.5604 61.9195 41.087 63.1222C40.6229 64.3248 40.3909 65.7689 40.3909 67.4545C40.3909 69.2348 40.6277 70.7263 41.1012 71.929C41.5841 73.1222 42.2801 74.0218 43.1892 74.6278C44.0983 75.2244 45.1921 75.5227 46.4705 75.5227C47.1997 75.5227 47.8531 75.4328 48.4307 75.2528C49.0084 75.0634 49.5103 74.7936 49.9364 74.4432C50.3625 74.0928 50.7082 73.6714 50.9733 73.179C51.2479 72.6771 51.4326 72.1136 51.5273 71.4886L59.5387 71.5455C59.444 72.7765 59.0983 74.0312 58.5017 75.3097C57.9051 76.5786 57.0576 77.7528 55.9591 78.8324C54.8701 79.9025 53.5207 80.7642 51.9108 81.4176C50.301 82.071 48.4307 82.3977 46.3 82.3977C43.6296 82.3977 41.2337 81.8248 39.1125 80.679C37.0008 79.5331 35.3294 77.8475 34.0983 75.6222C32.8767 73.3968 32.2659 70.6742 32.2659 67.4545C32.2659 64.2159 32.8909 61.4886 34.1409 59.2727C35.3909 57.0473 37.0765 55.3665 39.1978 54.2301C41.319 53.0843 43.6864 52.5114 46.3 52.5114C48.1372 52.5114 49.8275 52.7623 51.3711 53.2642C52.9146 53.7661 54.2688 54.5 55.4336 55.4659C56.5983 56.4223 57.5358 57.6013 58.2461 59.0028C58.9563 60.4044 59.3872 62.0095 59.5387 63.8182ZM73.7468 82.3977C71.3793 82.3977 69.3528 81.929 67.6672 80.9915C65.9816 80.0445 64.689 78.7282 63.7894 77.0426C62.8898 75.3475 62.4399 73.3826 62.4399 71.1477C62.4399 68.9129 62.8898 66.9527 63.7894 65.267C64.689 63.572 65.9816 62.2557 67.6672 61.3182C69.3528 60.3712 71.3793 59.8977 73.7468 59.8977C76.1142 59.8977 78.1407 60.3712 79.8263 61.3182C81.5119 62.2557 82.8045 63.572 83.7042 65.267C84.6038 66.9527 85.0536 68.9129 85.0536 71.1477C85.0536 73.3826 84.6038 75.3475 83.7042 77.0426C82.8045 78.7282 81.5119 80.0445 79.8263 80.9915C78.1407 81.929 76.1142 82.3977 73.7468 82.3977ZM73.8036 76.6023C74.4665 76.6023 75.0394 76.3797 75.5223 75.9347C76.0053 75.4896 76.3793 74.8551 76.6445 74.0312C76.9096 73.2074 77.0422 72.2273 77.0422 71.0909C77.0422 69.9451 76.9096 68.965 76.6445 68.1506C76.3793 67.3267 76.0053 66.6922 75.5223 66.2472C75.0394 65.8021 74.4665 65.5795 73.8036 65.5795C73.1028 65.5795 72.5015 65.8021 71.9996 66.2472C71.4977 66.6922 71.1142 67.3267 70.849 68.1506C70.5839 68.965 70.4513 69.9451 70.4513 71.0909C70.4513 72.2273 70.5839 73.2074 70.849 74.0312C71.1142 74.8551 71.4977 75.4896 71.9996 75.9347C72.5015 76.3797 73.1028 76.6023 73.8036 76.6023ZM96.0763 69.7273V82H88.2354V60.1818H95.6786V64.3295H95.9059C96.3793 62.947 97.2127 61.8627 98.4059 61.0767C99.6085 60.2907 101.01 59.8977 102.61 59.8977C104.154 59.8977 105.494 60.2528 106.63 60.9631C107.776 61.6638 108.662 62.6297 109.287 63.8608C109.921 65.0919 110.234 66.4981 110.224 68.0795V82H102.383V69.7273C102.393 68.6477 102.118 67.8002 101.559 67.1847C101.01 66.5691 100.243 66.2614 99.2581 66.2614C98.6142 66.2614 98.0507 66.4034 97.5678 66.6875C97.0943 66.9621 96.7297 67.3598 96.474 67.8807C96.2184 68.392 96.0858 69.0076 96.0763 69.7273ZM127.106 60.1818V65.8636H112.731V60.1818H127.106ZM115.515 54.9545H123.356V74.983C123.356 75.286 123.408 75.5417 123.512 75.75C123.617 75.9489 123.778 76.1004 123.995 76.2045C124.213 76.2992 124.493 76.3466 124.833 76.3466C125.07 76.3466 125.345 76.3182 125.657 76.2614C125.979 76.2045 126.216 76.1572 126.368 76.1193L127.504 81.6307C127.153 81.7348 126.652 81.8627 125.998 82.0142C125.354 82.1657 124.587 82.2652 123.697 82.3125C121.898 82.4072 120.387 82.2225 119.166 81.7585C117.944 81.285 117.026 80.5417 116.41 79.5284C115.795 78.5152 115.496 77.2462 115.515 75.7216V54.9545ZM130.306 82V60.1818H138.147V82H130.306ZM134.226 57.9091C133.166 57.9091 132.256 57.5587 131.499 56.858C130.741 56.1572 130.363 55.3144 130.363 54.3295C130.363 53.3447 130.741 52.5019 131.499 51.8011C132.256 51.1004 133.166 50.75 134.226 50.75C135.296 50.75 136.205 51.1004 136.953 51.8011C137.711 52.5019 138.09 53.3447 138.09 54.3295C138.09 55.3144 137.711 56.1572 136.953 56.858C136.205 57.5587 135.296 57.9091 134.226 57.9091ZM149.983 69.7273V82H142.142V60.1818H149.585V64.3295H149.812C150.286 62.947 151.119 61.8627 152.312 61.0767C153.515 60.2907 154.916 59.8977 156.517 59.8977C158.06 59.8977 159.4 60.2528 160.537 60.9631C161.682 61.6638 162.568 62.6297 163.193 63.8608C163.827 65.0919 164.14 66.4981 164.13 68.0795V82L156.289 82V69.7273C156.299 68.6477 156.024 67.8002 155.466 67.1847C154.916 66.5691 154.149 66.2614 153.164 66.2614C152.52 66.2614 151.957 66.4034 151.474 66.6875C151.001 66.9621 150.636 67.3598 150.38 67.8807C150.125 68.392 149.992 69.0076 149.983 69.7273ZM182.149 72.4545V60.1818H189.99V82H182.546V77.8523H182.319C181.846 79.2443 181.017 80.3333 179.833 81.1193C178.65 81.8958 177.243 82.2841 175.615 82.2841C174.09 82.2841 172.755 81.9337 171.609 81.233C170.473 80.5322 169.587 79.5663 168.953 78.3352C168.328 77.1042 168.01 75.6932 168.001 74.1023V60.1818H175.842V72.4545C175.851 73.5341 176.126 74.3816 176.666 74.9972C177.215 75.6127 177.982 75.9205 178.967 75.9205C179.62 75.9205 180.184 75.7831 180.657 75.5085C181.14 75.2244 181.51 74.8267 181.765 74.3153C182.03 73.7945 182.158 73.1742 182.149 72.4545ZM204.432 82.3977C202.103 82.3977 200.095 81.9527 198.409 81.0625C196.733 80.1629 195.441 78.875 194.532 77.1989C193.632 75.5133 193.182 73.4962 193.182 71.1477C193.182 68.8939 193.637 66.9242 194.546 65.2386C195.455 63.553 196.738 62.2415 198.395 61.304C200.052 60.3665 202.008 59.8977 204.262 59.8977C205.909 59.8977 207.401 60.1534 208.736 60.6648C210.071 61.1761 211.212 61.9195 212.159 62.8949C213.106 63.8608 213.836 65.035 214.347 66.4176C214.858 67.8002 215.114 69.358 215.114 71.0909V72.9091H195.625V68.5909H207.898C207.889 67.9659 207.728 67.4167 207.415 66.9432C207.112 66.4602 206.7 66.0862 206.179 65.821C205.668 65.5464 205.086 65.4091 204.432 65.4091C203.798 65.4091 203.215 65.5464 202.685 65.821C202.155 66.0862 201.729 66.4555 201.407 66.929C201.094 67.4025 200.928 67.9564 200.909 68.5909V73.25C200.909 73.9508 201.056 74.5758 201.35 75.125C201.643 75.6742 202.065 76.1051 202.614 76.4176C203.163 76.7301 203.826 76.8864 204.603 76.8864C205.142 76.8864 205.635 76.8106 206.08 76.6591C206.534 76.5076 206.923 76.2898 207.245 76.0057C207.567 75.7121 207.803 75.3617 207.955 74.9545H215.114C214.868 76.4697 214.285 77.786 213.367 78.9034C212.448 80.0114 211.231 80.8731 209.716 81.4886C208.211 82.0947 206.449 82.3977 204.432 82.3977ZM230.146 82L224.691 60.1818H232.532L235.032 73.4773H235.203L237.987 60.1818H245.6L248.498 73.3636H248.669L251.055 60.1818H258.896L253.441 82L244.975 82L241.907 70.2955H241.68L238.612 82H230.146ZM267.362 82.3409C265.97 82.3409 264.739 82.1136 263.669 81.6591C262.608 81.1951 261.775 80.4943 261.169 79.5568C260.563 78.6193 260.26 77.4261 260.26 75.9773C260.26 74.7841 260.463 73.7661 260.87 72.9233C261.278 72.071 261.846 71.375 262.575 70.8352C263.304 70.2955 264.152 69.8835 265.118 69.5994C266.093 69.3153 267.144 69.1307 268.271 69.0455C269.493 68.9508 270.473 68.8371 271.211 68.7045C271.959 68.5625 272.499 68.3684 272.831 68.1222C273.162 67.8665 273.328 67.5303 273.328 67.1136V67.0568C273.328 66.4886 273.11 66.053 272.674 65.75C272.239 65.447 271.68 65.2955 270.998 65.2955C270.25 65.2955 269.639 65.4612 269.166 65.7926C268.702 66.1146 268.422 66.6117 268.328 67.2841H261.112C261.207 65.9583 261.628 64.7367 262.376 63.6193C263.134 62.4924 264.237 61.5928 265.686 60.9205C267.135 60.2386 268.943 59.8977 271.112 59.8977C272.674 59.8977 274.076 60.0824 275.316 60.4517C276.557 60.8116 277.613 61.3182 278.484 61.9716C279.355 62.6155 280.018 63.3731 280.473 64.2443C280.937 65.1061 281.169 66.0436 281.169 67.0568V82H273.839V78.9318H273.669C273.233 79.7462 272.703 80.4044 272.078 80.9062C271.462 81.4081 270.757 81.7727 269.961 82C269.175 82.2273 268.309 82.3409 267.362 82.3409ZM269.919 77.3977C270.515 77.3977 271.074 77.2746 271.595 77.0284C272.125 76.7822 272.556 76.4271 272.887 75.9631C273.219 75.4991 273.385 74.9356 273.385 74.2727V72.4545C273.176 72.5398 272.954 72.6203 272.717 72.696C272.49 72.7718 272.243 72.8428 271.978 72.9091C271.723 72.9754 271.448 73.0369 271.154 73.0937C270.87 73.1506 270.572 73.2027 270.26 73.25C269.653 73.3447 269.156 73.5009 268.768 73.7187C268.389 73.9271 268.105 74.1875 267.916 74.5C267.736 74.803 267.646 75.1439 267.646 75.5227C267.646 76.1288 267.859 76.5928 268.285 76.9148C268.711 77.2367 269.256 77.3977 269.919 77.3977ZM297.926 60.1818V65.8636H283.551V60.1818H297.926ZM286.336 54.9545H294.176V74.983C294.176 75.286 294.229 75.5417 294.333 75.75C294.437 75.9489 294.598 76.1004 294.816 76.2045C295.033 76.2992 295.313 76.3466 295.654 76.3466C295.89 76.3466 296.165 76.3182 296.478 76.2614C296.8 76.2045 297.036 76.1572 297.188 76.1193L298.324 81.6307C297.974 81.7348 297.472 81.8627 296.818 82.0142C296.175 82.1657 295.408 82.2652 294.517 82.3125C292.718 82.4072 291.208 82.2225 289.986 81.7585C288.765 81.285 287.846 80.5417 287.23 79.5284C286.615 78.5152 286.317 77.2462 286.336 75.7216V54.9545ZM311.403 82.3977C309.036 82.3977 307.009 81.929 305.323 80.9915C303.638 80.0445 302.345 78.7282 301.446 77.0426C300.546 75.3475 300.096 73.3826 300.096 71.1477C300.096 68.9129 300.546 66.9527 301.446 65.267C302.345 63.572 303.638 62.2557 305.323 61.3182C307.009 60.3712 309.036 59.8977 311.403 59.8977C313.543 59.8977 315.394 60.286 316.957 61.0625C318.529 61.8295 319.746 62.9186 320.608 64.3295C321.469 65.7311 321.905 67.3788 321.914 69.2727H314.642C314.537 68.1269 314.206 67.2557 313.647 66.6591C313.098 66.053 312.388 65.75 311.517 65.75C310.835 65.75 310.238 65.9489 309.727 66.3466C309.216 66.7348 308.818 67.3267 308.534 68.1222C308.25 68.9081 308.108 69.8977 308.108 71.0909C308.108 72.2841 308.25 73.2784 308.534 74.0739C308.818 74.8598 309.216 75.4517 309.727 75.8494C310.238 76.2377 310.835 76.4318 311.517 76.4318C312.094 76.4318 312.606 76.2992 313.051 76.0341C313.496 75.7595 313.856 75.3617 314.13 74.8409C314.414 74.3106 314.585 73.6667 314.642 72.9091H321.914C321.886 74.8314 321.446 76.5076 320.593 77.9375C319.741 79.358 318.534 80.4564 316.971 81.233C315.418 82.0095 313.562 82.3977 311.403 82.3977ZM332.99 69.7273V82H325.149V52.9091L332.706 52.9091V64.3295H332.934C333.426 62.9375 334.245 61.8532 335.391 61.0767C336.537 60.2907 337.915 59.8977 339.524 59.8977C341.068 59.8977 342.408 60.2481 343.544 60.9489C344.69 61.6496 345.576 62.6155 346.201 63.8466C346.835 65.0777 347.148 66.4886 347.138 68.0795V82H339.297V69.7273C339.307 68.6477 339.037 67.8002 338.488 67.1847C337.948 66.5691 337.176 66.2614 336.172 66.2614C335.538 66.2614 334.979 66.4034 334.496 66.6875C334.023 66.9621 333.653 67.3598 333.388 67.8807C333.132 68.392 333 69.0076 332.99 69.7273ZM351.009 82V60.1818H358.85V82H351.009ZM354.929 57.9091C353.869 57.9091 352.96 57.5587 352.202 56.858C351.444 56.1572 351.066 55.3144 351.066 54.3295C351.066 53.3447 351.444 52.5019 352.202 51.8011C352.96 51.1004 353.869 50.75 354.929 50.75C355.999 50.75 356.908 51.1004 357.657 51.8011C358.414 52.5019 358.793 53.3447 358.793 54.3295C358.793 55.3144 358.414 56.1572 357.657 56.858C356.908 57.5587 355.999 57.9091 354.929 57.9091ZM370.686 69.7273V82H362.845V60.1818H370.288V64.3295H370.515C370.989 62.947 371.822 61.8627 373.015 61.0767C374.218 60.2907 375.619 59.8977 377.22 59.8977C378.763 59.8977 380.103 60.2528 381.24 60.9631C382.385 61.6638 383.271 62.6297 383.896 63.8608C384.53 65.0919 384.843 66.4981 384.833 68.0795V82H376.993V69.7273C377.002 68.6477 376.727 67.8002 376.169 67.1847C375.619 66.5691 374.852 66.2614 373.868 66.2614C373.224 66.2614 372.66 66.4034 372.177 66.6875C371.704 66.9621 371.339 67.3598 371.083 67.8807C370.828 68.392 370.695 69.0076 370.686 69.7273ZM399.216 90.6364C397.028 90.6364 395.153 90.3239 393.591 89.6989C392.037 89.0833 390.83 88.2311 389.968 87.142C389.116 86.0625 388.638 84.822 388.534 83.4205H396.091C396.166 83.8845 396.356 84.2585 396.659 84.5426C396.962 84.8267 397.35 85.0303 397.823 85.1534C398.306 85.286 398.846 85.3523 399.443 85.3523C400.456 85.3523 401.294 85.1061 401.957 84.6136C402.629 84.1212 402.966 83.2311 402.966 81.9432V78.25H402.738C402.454 78.9886 402.019 79.6184 401.431 80.1392C400.844 80.6506 400.139 81.0436 399.315 81.3182C398.491 81.5833 397.587 81.7159 396.602 81.7159C395.049 81.7159 393.619 81.3561 392.312 80.6364C391.015 79.9167 389.973 78.7756 389.187 77.2131C388.411 75.6506 388.022 73.6098 388.022 71.0909C388.022 68.4583 388.43 66.3182 389.244 64.6705C390.068 63.0227 391.128 61.8153 392.426 61.0483C393.733 60.2812 395.106 59.8977 396.545 59.8977C397.625 59.8977 398.572 60.0871 399.386 60.4659C400.2 60.8352 400.882 61.3324 401.431 61.9574C401.981 62.5729 402.397 63.25 402.681 63.9886H402.852V60.1818H410.693V81.9432C410.693 83.7898 410.215 85.357 409.258 86.6449C408.311 87.9422 406.976 88.9318 405.252 89.6136C403.529 90.2955 401.517 90.6364 399.216 90.6364ZM399.5 76.1477C400.219 76.1477 400.835 75.9489 401.346 75.5511C401.867 75.1439 402.265 74.5663 402.539 73.8182C402.823 73.0606 402.966 72.1515 402.966 71.0909C402.966 70.0114 402.823 69.0881 402.539 68.321C402.265 67.5445 401.867 66.9527 401.346 66.5455C400.835 66.1288 400.219 65.9205 399.5 65.9205C398.78 65.9205 398.164 66.1288 397.653 66.5455C397.151 66.9527 396.763 67.5445 396.488 68.321C396.223 69.0881 396.091 70.0114 396.091 71.0909C396.091 72.1705 396.223 73.089 396.488 73.8466C396.763 74.5947 397.151 75.1676 397.653 75.5653C398.164 75.9536 398.78 76.1477 399.5 76.1477Z" fill="white"/>
</svg>
